{"glyphs":{"0":{"ha":963,"x_min":46,"x_max":917,"o":"m 804 799 q 917 469 917 664 q 805 138 917 275 q 481 -12 683 -12 q 298 27 378 -12 q 161 132 217 66 q 76 285 105 198 q 46 469 46 372 q 62 610 46 545 q 108 729 79 675 q 178 823 138 782 q 267 892 218 864 q 370 934 315 920 q 481 949 424 949 q 804 799 681 949 m 340 560 q 334 515 336 538 q 332 469 332 492 q 341 377 332 422 q 369 297 351 332 q 416 240 388 262 q 481 219 444 219 q 540 238 513 219 q 587 290 568 256 q 618 369 607 323 q 630 469 630 414 q 620 564 630 519 q 592 643 610 609 q 545 698 573 677 q 481 718 517 718 q 424 704 448 718 q 384 666 400 689 q 357 615 367 643 q 340 560 347 587 z "},"1":{"ha":628,"x_min":60,"x_max":591,"o":"m 60 205 l 176 205 l 176 667 l 60 659 l 60 839 q 190 861 119 839 q 330 930 260 883 l 475 930 l 475 205 l 591 205 l 591 0 l 60 0 l 60 205 z "},"2":{"ha":719,"x_min":38,"x_max":665,"o":"m 275 708 q 252 706 264 708 q 226 701 239 704 q 203 695 214 699 q 186 690 193 692 q 169 682 182 688 q 142 670 156 676 q 118 659 128 664 q 108 654 108 654 l 38 861 q 206 918 127 898 q 370 939 286 939 q 496 914 441 939 q 589 848 551 890 q 646 750 627 806 q 665 632 665 694 q 639 507 665 566 q 568 395 612 448 q 466 297 524 342 q 345 215 408 252 l 324 202 l 637 202 l 637 0 l 54 0 l 54 195 q 187 329 127 264 q 290 450 247 393 q 356 553 332 507 q 380 631 380 599 q 370 667 380 652 q 346 691 361 682 q 312 704 330 700 q 275 708 293 708 z "},"3":{"ha":726,"x_min":41,"x_max":681,"o":"m 309 724 q 88 684 223 724 l 41 865 q 354 940 201 940 q 466 923 414 940 q 556 877 517 906 q 617 809 595 848 q 639 727 639 770 q 507 500 639 585 q 636 402 591 465 q 681 248 681 338 q 656 143 681 191 q 587 59 632 94 q 479 5 543 24 q 339 -15 416 -15 q 41 39 209 -15 l 88 243 q 294 198 198 198 q 378 216 349 198 q 406 277 406 233 q 383 340 406 317 q 324 375 360 363 q 242 390 288 387 q 153 393 197 393 l 153 566 q 336 591 274 566 q 398 661 398 616 q 376 711 398 697 q 309 724 354 724 z "},"4":{"ha":882,"x_min":24,"x_max":838,"o":"m 24 226 l 24 420 l 395 930 l 705 930 l 705 418 l 838 418 l 838 224 l 705 224 l 705 0 l 410 0 l 410 226 l 24 226 m 229 418 l 410 418 l 410 693 l 229 418 z "},"5":{"ha":743,"x_min":60,"x_max":705,"o":"m 591 66 q 476 5 542 28 q 329 -18 410 -18 q 65 41 211 -18 l 83 238 q 325 195 207 195 q 368 203 349 195 q 402 226 388 211 q 424 261 416 241 q 431 307 431 282 q 425 347 431 328 q 408 380 419 366 q 379 402 396 394 q 341 410 362 410 q 205 354 288 410 l 60 417 l 96 930 l 631 930 l 612 730 l 283 730 l 266 587 l 303 599 q 330 605 317 602 q 355 612 342 609 q 383 617 368 615 q 417 619 398 619 q 677 448 604 619 q 705 307 705 381 q 591 66 705 157 z "},"6":{"ha":870,"x_min":47,"x_max":827,"o":"m 614 709 q 506 728 557 728 q 430 711 461 728 q 377 665 398 694 q 345 600 357 637 q 328 522 333 562 l 322 484 l 349 510 q 433 565 388 547 q 526 583 477 583 q 652 563 596 583 q 746 507 707 544 q 806 418 785 471 q 827 300 827 366 q 711 73 827 161 q 463 -10 602 -10 q 291 21 368 -10 q 160 112 214 53 q 77 253 106 170 q 47 439 47 336 q 63 582 47 515 q 108 704 79 648 q 176 805 136 760 q 263 880 216 849 q 364 927 310 911 q 474 943 418 943 q 557 937 518 943 q 634 920 597 931 q 708 891 671 908 q 785 850 745 873 l 719 669 q 664 690 690 680 q 614 709 637 701 m 328 376 l 329 366 q 340 304 333 336 q 359 247 347 273 q 393 205 372 222 q 447 189 414 189 q 495 197 472 189 q 534 219 517 205 q 561 254 551 233 q 570 300 570 275 q 562 342 570 323 q 537 374 553 361 q 502 394 522 387 q 460 401 482 401 q 337 380 386 401 l 328 376 z "},"7":{"ha":648,"x_min":37,"x_max":618,"o":"m 334 728 l 37 728 l 37 930 l 618 930 l 618 701 l 324 -23 l 66 83 l 334 728 z "},"8":{"ha":871,"x_min":41,"x_max":828,"o":"m 71 140 q 41 260 41 192 q 55 341 41 307 q 93 400 69 375 q 147 442 117 425 q 212 473 178 459 l 216 475 l 212 479 q 111 700 111 562 q 134 797 111 753 q 200 874 157 842 q 302 924 243 906 q 435 942 362 942 q 560 928 501 942 q 663 886 618 913 q 732 819 707 859 q 758 727 758 779 q 749 662 758 690 q 726 612 741 633 q 691 573 711 590 q 647 544 671 557 l 642 541 l 647 538 q 716 495 683 519 q 773 440 749 471 q 813 369 798 410 q 828 275 828 328 q 797 142 828 198 q 712 51 766 87 q 587 -1 659 16 q 436 -18 516 -18 q 315 -8 372 -18 q 212 22 258 2 q 130 71 165 41 q 71 140 94 101 m 364 389 l 363 388 q 331 339 342 366 q 319 275 319 312 q 328 233 319 252 q 353 201 337 214 q 390 181 369 188 q 437 174 412 174 q 484 179 463 174 q 522 193 506 184 q 546 216 537 202 q 555 247 555 229 q 545 286 555 268 q 516 317 534 303 q 473 343 498 332 q 422 366 449 355 l 392 378 q 375 385 381 382 q 366 389 368 388 l 364 389 m 538 692 q 512 766 538 741 q 436 791 485 791 q 396 788 416 791 q 362 776 377 785 q 338 754 347 768 q 330 719 330 740 q 338 684 330 699 q 365 653 346 668 q 416 624 385 638 q 494 592 448 609 l 496 591 l 497 593 q 538 692 538 632 z "},"9":{"ha":855,"x_min":42,"x_max":808,"o":"m 148 262 l 199 241 q 277 215 236 225 q 357 205 318 205 q 536 399 506 205 l 543 444 l 509 415 q 442 373 479 389 q 351 357 406 357 q 222 376 279 357 q 125 431 165 395 q 63 519 85 467 q 42 635 42 570 q 71 758 42 701 q 149 854 99 814 q 267 918 199 895 q 415 941 335 941 q 537 923 482 941 q 636 871 593 904 q 712 794 680 839 q 766 697 745 749 q 797 586 787 644 q 808 469 808 528 q 774 272 808 359 q 683 122 741 184 q 550 28 626 61 q 390 -5 474 -5 q 311 1 349 -5 q 236 18 273 7 q 162 47 199 30 q 85 87 125 64 l 148 262 m 403 517 l 414 517 q 472 523 446 517 q 524 538 498 529 l 536 543 l 534 556 q 495 701 525 653 q 415 749 466 749 q 367 741 389 749 q 327 720 345 734 q 300 684 310 705 q 290 635 290 663 q 299 588 290 610 q 322 550 307 566 q 358 526 337 534 q 403 517 378 517 z "},"\u0002":{"ha":0,"x_min":0,"x_max":0,"o":""},"\t":{"ha":0,"x_min":0,"x_max":0,"o":""},"\n":{"ha":0,"x_min":0,"x_max":0,"o":""}," ":{"ha":260,"x_min":0,"x_max":0,"o":""},"!":{"ha":424,"x_min":58,"x_max":372,"o":"m 64 743 l 64 959 l 357 959 l 357 743 l 302 350 l 119 350 l 64 743 m 58 119 q 71 176 58 151 q 106 220 84 202 q 157 249 128 239 q 216 259 185 259 q 275 248 247 259 q 325 218 304 237 q 359 174 347 199 q 372 119 372 149 q 358 63 372 89 q 323 18 345 37 q 274 -11 302 -1 q 216 -22 245 -22 q 154 -11 183 -22 q 104 19 125 0 q 71 64 83 39 q 58 119 58 90 z "},"\"":{"ha":537,"x_min":41,"x_max":503,"o":"m 302 1040 l 503 1040 l 464 696 l 331 696 l 302 1040 m 41 1040 l 240 1040 l 201 696 l 68 696 l 41 1040 z "},"#":{"ha":724,"x_min":38,"x_max":686,"o":"m 144 340 l 38 340 l 49 423 l 163 423 l 189 526 l 64 526 l 75 612 l 209 612 l 289 933 l 412 933 l 332 612 l 464 612 l 543 933 l 666 933 l 587 612 l 686 612 l 675 526 l 564 526 l 540 423 l 661 423 l 650 340 l 518 340 l 435 0 l 315 0 l 397 340 l 264 340 l 182 0 l 61 0 l 144 340 m 418 423 l 442 526 l 311 526 l 285 423 l 418 423 z "},"$":{"ha":786,"x_min":43,"x_max":751,"o":"m 43 662 q 63 779 43 728 q 118 865 82 829 q 204 923 153 901 q 319 952 255 944 l 319 1069 l 458 1069 l 458 956 q 697 875 583 945 l 627 716 l 551 741 q 504 753 527 748 q 458 762 481 759 l 458 567 q 582 514 528 543 q 674 448 637 485 q 732 362 712 410 q 751 254 751 315 q 730 159 751 205 q 671 76 709 113 q 578 15 633 39 q 458 -14 524 -9 l 458 -126 l 319 -126 l 319 -20 q 57 60 157 -5 l 126 227 q 234 196 186 207 q 319 183 282 184 l 319 366 q 211 402 260 380 q 124 458 161 424 q 66 543 87 493 q 43 662 45 592 m 319 747 q 279 719 293 734 q 264 677 264 703 q 277 633 264 648 q 319 606 290 618 l 319 747 m 458 197 q 484 208 473 202 q 504 220 496 213 q 516 238 512 228 q 521 262 521 248 q 502 299 521 283 q 458 321 484 315 l 458 197 z "},"%":{"ha":1233,"x_min":34,"x_max":1199,"o":"m 677 933 l 773 933 l 543 0 l 449 0 l 677 933 m 947 -22 q 841 -1 888 -22 q 762 56 794 20 q 712 142 729 93 q 694 250 694 192 q 713 359 694 309 q 765 445 732 409 q 845 502 799 481 q 947 522 892 522 q 1053 500 1006 522 q 1132 440 1099 477 q 1182 353 1164 402 q 1199 250 1199 303 q 1181 141 1199 191 q 1129 55 1162 91 q 1049 -1 1095 19 q 947 -22 1002 -22 m 947 117 q 984 129 968 117 q 1008 161 999 142 q 1022 204 1018 180 q 1027 250 1027 228 q 1021 299 1027 275 q 1006 341 1016 323 q 981 370 996 359 q 947 381 966 381 q 911 370 926 381 q 886 340 896 359 q 871 298 876 322 q 867 250 867 275 q 872 199 867 223 q 887 157 877 175 q 912 127 897 138 q 947 117 927 117 m 285 416 q 177 438 224 416 q 98 498 130 460 q 50 584 66 535 q 34 688 34 633 q 53 797 34 747 q 105 883 71 847 q 185 939 138 919 q 288 959 232 959 q 397 935 351 959 q 476 873 444 911 q 523 786 507 834 q 538 688 538 737 q 520 578 538 628 q 468 492 501 528 q 387 436 434 456 q 285 416 340 416 m 285 553 q 322 566 307 553 q 348 598 338 578 q 362 642 357 618 q 366 688 366 665 q 361 738 366 714 q 345 780 355 762 q 319 808 334 798 q 285 819 304 819 q 248 807 263 819 q 223 777 233 795 q 210 734 214 758 q 206 688 206 711 q 211 637 206 661 q 227 594 216 613 q 251 565 237 576 q 285 553 266 553 z "},"&":{"ha":932,"x_min":39,"x_max":932,"o":"m 885 342 q 768 189 836 246 l 932 0 l 653 0 l 593 70 q 481 4 542 29 q 356 -22 421 -22 q 226 -2 284 -22 q 126 54 168 18 q 61 143 84 91 q 39 260 39 195 q 53 353 39 313 q 94 422 68 392 q 155 474 120 452 q 231 515 191 496 q 135 716 135 622 q 157 805 135 762 q 220 883 179 848 q 320 938 261 917 q 452 959 378 959 q 567 942 515 959 q 657 893 619 925 q 716 818 695 862 q 737 719 737 774 q 726 646 737 682 q 691 577 714 610 q 635 517 669 545 q 555 469 601 489 q 575 446 562 461 q 602 413 587 430 q 629 379 616 395 q 649 355 642 363 l 760 475 l 885 342 m 286 270 q 308 207 286 231 q 368 183 330 183 q 452 213 422 183 l 338 358 q 286 270 286 328 m 454 777 q 382 713 382 777 q 399 664 382 687 q 450 614 417 640 q 481 631 468 623 q 503 652 494 640 q 515 678 511 663 q 519 713 519 693 q 502 760 519 743 q 454 777 484 777 z "},"'":{"ha":275,"x_min":41,"x_max":241,"o":"m 41 1040 l 241 1040 l 202 696 l 69 696 l 41 1040 z "},"(":{"ha":580,"x_min":28,"x_max":549,"o":"m 549 -179 q 325 -116 422 -168 q 162 18 228 -65 q 62 212 96 101 q 28 453 28 323 q 64 700 28 590 q 168 888 100 809 q 332 1014 236 967 q 549 1073 429 1061 l 549 897 q 461 856 500 888 q 394 768 422 824 q 352 634 367 713 q 337 453 337 555 q 349 282 337 361 q 386 143 360 203 q 451 45 411 83 q 549 -3 492 7 l 549 -179 z "},")":{"ha":580,"x_min":31,"x_max":552,"o":"m 31 -3 q 119 38 80 5 q 185 129 158 71 q 228 267 213 186 q 243 453 243 348 q 229 628 243 549 q 188 763 215 706 q 122 854 161 820 q 31 897 83 888 l 31 1073 q 258 1008 160 1059 q 421 876 355 957 q 519 687 486 794 q 552 453 552 579 q 517 208 552 319 q 415 14 481 96 q 251 -118 348 -68 q 31 -179 154 -168 l 31 -3 z "},"*":{"ha":743,"x_min":44,"x_max":702,"o":"m 258 600 l 44 693 l 119 841 l 306 728 l 291 955 l 459 955 l 441 730 l 623 844 l 702 693 l 485 600 l 644 433 l 503 321 l 370 522 l 239 321 l 100 434 l 258 600 z "},"+":{"ha":741,"x_min":33,"x_max":708,"o":"m 331 311 l 33 311 l 33 388 l 331 388 l 331 696 l 412 696 l 412 388 l 708 388 l 708 311 l 412 311 l 412 0 l 331 0 l 331 311 z "},",":{"ha":410,"x_min":64,"x_max":349,"o":"m 64 -72 q 136 -71 111 -72 q 175 -64 162 -71 q 190 -42 187 -57 q 193 0 193 -28 l 64 0 l 64 259 l 349 259 l 346 118 q 340 -12 345 43 q 326 -106 336 -67 q 298 -171 316 -146 q 249 -210 279 -195 q 172 -229 218 -224 q 64 -235 127 -235 l 64 -72 z "},"-":{"ha":502,"x_min":64,"x_max":437,"o":"m 64 441 l 437 441 l 437 277 l 64 277 l 64 441 z "},".":{"ha":389,"x_min":39,"x_max":351,"o":"m 39 119 q 53 176 39 150 q 87 220 66 201 q 137 249 109 238 q 195 259 165 259 q 255 248 227 259 q 305 217 283 237 q 339 173 326 198 q 351 119 351 148 q 338 62 351 87 q 303 17 325 36 q 253 -12 281 -1 q 195 -22 225 -22 q 134 -11 163 -22 q 85 19 106 0 q 52 64 64 38 q 39 119 39 90 z "},"/":{"ha":446,"x_min":41,"x_max":407,"o":"m 269 955 l 407 955 l 176 0 l 41 0 l 269 955 z "},":":{"ha":430,"x_min":59,"x_max":371,"o":"m 59 140 q 72 196 59 170 q 107 241 85 222 q 158 270 130 260 q 216 281 186 281 q 277 269 249 281 q 326 238 305 257 q 359 193 347 218 q 371 140 371 167 q 358 83 371 109 q 324 39 345 58 q 274 11 302 21 q 216 0 246 0 q 155 11 184 0 q 105 41 126 22 q 71 85 83 60 q 59 140 59 111 m 59 556 q 72 613 59 587 q 107 657 85 639 q 158 687 130 676 q 216 697 186 697 q 277 685 249 697 q 326 654 305 673 q 359 609 347 635 q 371 556 371 583 q 358 500 371 526 q 324 456 345 474 q 274 427 302 437 q 216 416 246 416 q 155 427 184 416 q 105 457 126 438 q 71 502 83 476 q 59 556 59 527 z "},";":{"ha":415,"x_min":53,"x_max":365,"o":"m 71 -72 q 143 -71 117 -72 q 182 -64 169 -71 q 198 -42 195 -57 q 201 0 201 -28 l 71 0 l 71 259 l 355 259 l 353 173 q 349 19 352 84 q 337 -91 346 -45 q 310 -164 328 -136 q 261 -208 292 -193 q 184 -229 231 -224 q 71 -235 137 -235 l 71 -72 m 53 556 q 66 613 53 587 q 102 657 80 639 q 152 687 124 676 q 210 697 180 697 q 270 686 242 697 q 319 655 298 674 q 353 610 340 635 q 365 556 365 584 q 352 500 365 526 q 318 456 339 474 q 268 427 296 437 q 210 416 240 416 q 149 427 178 416 q 99 457 120 438 q 65 501 77 475 q 53 556 53 526 z "},"<":{"ha":636,"x_min":37,"x_max":566,"o":"m 37 545 l 566 836 l 566 627 l 154 420 l 566 225 l 566 0 l 37 309 l 37 545 z "},"=":{"ha":568,"x_min":73,"x_max":496,"o":"m 73 300 l 496 300 l 496 216 l 73 216 l 73 300 m 73 488 l 496 488 l 496 403 l 73 403 l 73 488 z "},">":{"ha":636,"x_min":70,"x_max":599,"o":"m 70 225 l 482 420 l 70 627 l 70 836 l 599 545 l 599 309 l 70 0 l 70 225 z "},"?":{"ha":702,"x_min":53,"x_max":669,"o":"m 362 696 q 252 741 362 741 q 72 704 145 741 l 53 916 q 332 977 201 977 q 465 959 404 977 q 572 907 526 941 q 643 825 617 873 q 669 718 669 777 q 656 643 669 675 q 624 585 644 610 q 574 541 603 560 q 513 505 546 522 q 476 488 496 497 q 435 468 455 478 q 397 449 414 458 q 372 429 380 439 q 358 402 360 417 q 357 370 357 388 l 357 353 l 163 353 l 146 405 q 141 431 144 416 q 138 461 138 447 q 144 507 138 487 q 159 543 149 527 q 182 572 169 559 q 212 596 196 585 q 258 622 233 610 q 307 647 284 635 q 346 671 330 659 q 362 696 362 684 m 100 119 q 114 175 100 150 q 149 219 127 201 q 199 249 171 238 q 258 259 228 259 q 317 248 289 259 q 367 217 346 237 q 401 173 389 198 q 414 119 414 148 q 400 62 414 87 q 366 17 387 36 q 316 -12 344 -1 q 258 -22 288 -22 q 196 -11 225 -22 q 146 19 168 0 q 113 64 125 38 q 100 119 100 90 z "},"@":{"ha":1200,"x_min":43,"x_max":1164,"o":"m 924 256 q 713 358 777 256 q 647 284 689 311 q 545 257 605 257 q 447 280 489 257 q 375 340 404 303 q 331 421 346 376 q 317 509 317 466 q 336 606 317 561 q 387 683 355 650 q 460 735 419 716 q 547 753 502 753 q 697 750 621 753 q 855 740 774 747 l 855 422 q 906 394 882 394 q 946 411 930 394 q 971 453 962 427 q 984 508 981 478 q 987 566 987 538 q 617 866 987 866 q 456 839 530 866 q 330 762 382 811 q 247 646 277 713 q 218 500 218 579 q 251 344 218 410 q 338 233 283 277 q 464 166 393 189 q 610 144 535 144 q 888 208 764 144 l 970 70 q 889 29 929 46 q 805 0 848 12 q 714 -16 762 -11 q 610 -22 666 -22 q 378 17 482 -22 q 199 125 273 56 q 83 290 124 195 q 43 499 43 386 q 81 702 43 606 q 194 870 120 798 q 374 985 267 943 q 616 1028 480 1028 q 841 998 740 1028 q 1014 909 942 967 q 1124 765 1085 850 q 1164 569 1164 680 q 1148 441 1164 498 q 1103 342 1133 383 q 1028 278 1073 300 q 924 256 983 256 m 686 612 l 594 612 q 556 603 573 612 q 526 580 538 595 q 507 546 513 565 q 500 505 500 526 q 507 468 500 486 q 527 438 514 451 q 557 419 540 426 q 594 412 574 412 q 630 419 613 412 q 660 439 647 427 q 679 467 672 451 q 686 501 686 484 l 686 612 z "},"A":{"ha":970,"x_min":7,"x_max":970,"o":"m 271 955 l 693 955 l 970 0 l 643 0 l 606 183 l 359 183 l 320 0 l 7 0 l 271 955 m 574 354 l 483 772 l 389 354 l 574 354 z "},"B":{"ha":1001,"x_min":91,"x_max":967,"o":"m 563 -22 q 91 -1 407 -22 l 91 955 l 568 955 q 710 939 645 955 q 823 892 775 922 q 897 820 870 863 q 924 723 924 777 q 886 583 924 635 q 772 519 848 531 q 917 452 867 511 q 967 290 967 393 q 937 169 967 226 q 852 70 906 113 q 724 3 798 28 q 563 -22 650 -22 m 662 309 q 651 359 662 338 q 622 395 641 381 q 576 417 603 410 q 518 425 550 425 l 399 425 l 399 201 q 429 201 414 201 q 458 201 444 201 l 536 201 q 585 208 562 201 q 625 230 608 216 q 652 264 642 244 q 662 309 662 284 m 635 673 q 513 770 635 770 l 400 770 l 400 578 l 510 578 q 559 585 536 578 q 599 604 583 591 q 625 633 616 616 q 635 673 635 651 z "},"C":{"ha":839,"x_min":43,"x_max":804,"o":"m 593 229 q 637 232 617 229 q 678 239 658 234 q 719 251 698 243 q 766 269 740 258 l 804 48 q 541 -22 683 -22 q 195 114 339 -22 q 43 478 45 255 q 80 678 43 587 q 183 836 117 770 q 338 939 249 902 q 532 976 428 976 q 802 907 681 976 l 766 691 q 585 729 666 729 q 413 664 472 729 q 355 479 355 598 q 371 374 355 420 q 417 295 387 328 q 492 246 448 263 q 593 229 536 229 z "},"D":{"ha":1061,"x_min":91,"x_max":1017,"o":"m 91 955 l 506 955 q 716 920 622 955 q 877 823 810 885 q 981 674 944 760 q 1017 484 1017 587 q 981 287 1017 376 q 878 134 945 197 q 716 35 810 70 q 506 0 622 0 l 91 0 l 91 955 m 506 250 q 596 272 558 250 q 658 329 633 294 q 694 406 682 363 q 705 487 705 448 q 691 574 705 534 q 650 644 676 614 q 587 689 623 673 q 506 705 550 705 l 397 705 l 397 250 l 506 250 z "},"E":{"ha":826,"x_min":91,"x_max":761,"o":"m 91 955 l 761 955 l 761 745 l 427 745 l 427 571 l 732 571 l 732 396 l 427 396 l 427 209 l 761 209 l 761 0 l 91 0 l 91 955 z "},"F":{"ha":792,"x_min":91,"x_max":749,"o":"m 91 955 l 749 955 l 749 745 l 389 745 l 389 552 l 722 552 l 722 376 l 389 376 l 389 0 l 91 0 l 91 955 z "},"G":{"ha":915,"x_min":41,"x_max":855,"o":"m 749 692 q 559 731 629 731 q 470 710 509 731 q 404 654 431 689 q 364 575 378 620 q 351 482 351 530 q 366 383 351 429 q 409 302 381 336 q 475 248 436 268 q 559 228 513 228 q 615 232 585 228 l 615 457 l 855 484 l 855 50 q 522 -22 693 -22 q 182 126 322 -22 q 41 486 41 275 q 184 834 41 691 q 520 977 326 977 q 842 907 698 977 l 749 692 z "},"H":{"ha":1103,"x_min":91,"x_max":1012,"o":"m 91 955 l 403 955 l 403 575 l 699 575 l 699 955 l 1012 955 l 1012 0 l 699 0 l 699 374 l 403 374 l 403 0 l 91 0 l 91 955 z "},"I":{"ha":502,"x_min":91,"x_max":411,"o":"m 91 955 l 411 955 l 411 0 l 91 0 l 91 955 z "},"J":{"ha":633,"x_min":-1,"x_max":549,"o":"m 159 164 q 251 279 251 164 l 251 955 l 549 955 l 549 279 q 528 136 549 199 q 466 28 506 73 q 367 -39 425 -16 q 237 -62 309 -62 q -1 11 109 -62 l 64 183 q 159 164 119 164 z "},"K":{"ha":1065,"x_min":91,"x_max":1050,"o":"m 91 955 l 412 955 l 412 566 l 513 566 l 697 955 l 1019 955 l 1019 892 l 799 481 l 1050 62 l 1050 0 l 712 0 l 507 380 l 412 380 l 412 0 l 91 0 l 91 955 z "},"L":{"ha":747,"x_min":91,"x_max":722,"o":"m 91 955 l 391 955 l 391 205 l 722 205 l 722 0 l 91 0 l 91 955 z "},"M":{"ha":1232,"x_min":91,"x_max":1141,"o":"m 91 955 l 380 955 l 618 491 l 852 955 l 1141 955 l 1141 0 l 852 0 l 852 510 l 675 176 l 557 176 l 380 510 l 380 0 l 91 0 l 91 955 z "},"N":{"ha":1089,"x_min":91,"x_max":998,"o":"m 91 955 l 369 955 l 750 441 l 750 955 l 998 955 l 998 0 l 720 0 l 338 498 l 338 0 l 91 0 l 91 955 z "},"O":{"ha":1108,"x_min":43,"x_max":1065,"o":"m 43 476 q 175 825 43 683 q 555 976 315 976 q 766 938 671 976 q 926 834 860 901 q 1029 676 993 768 q 1065 476 1065 584 q 1050 349 1065 411 q 1005 231 1035 286 q 932 129 976 176 q 832 49 889 83 q 706 -3 776 16 q 555 -22 637 -22 q 400 -3 471 -22 q 273 50 330 16 q 173 131 216 84 q 101 233 130 178 q 58 350 73 288 q 43 476 43 412 m 555 231 q 646 253 608 231 q 708 312 684 276 q 743 391 732 347 q 754 477 754 435 q 740 578 754 532 q 700 657 726 624 q 637 711 674 691 q 555 732 600 730 q 463 708 500 731 q 400 649 425 685 q 365 567 376 612 q 354 477 354 522 q 368 379 354 425 q 408 301 382 334 q 471 250 434 269 q 555 231 509 231 z "},"P":{"ha":902,"x_min":91,"x_max":883,"o":"m 91 955 l 435 955 q 626 934 543 955 q 766 872 709 913 q 853 773 823 831 q 883 639 883 714 q 849 508 883 566 q 756 410 815 450 q 618 348 697 370 q 449 327 539 327 l 391 327 l 391 0 l 91 0 l 91 955 m 450 519 q 563 549 522 519 q 604 639 604 579 q 592 690 604 668 q 559 726 580 711 q 511 748 538 741 q 450 755 483 755 l 391 755 l 391 522 q 415 520 400 521 q 450 519 430 519 z "},"Q":{"ha":1108,"x_min":42,"x_max":1065,"o":"m 1065 -84 l 890 -221 l 583 -19 q 569 -21 576 -20 q 553 -22 562 -22 q 275 48 387 -22 q 177 127 220 81 q 104 229 134 174 q 58 348 74 285 q 42 479 42 412 q 171 819 42 677 q 553 976 313 976 q 707 957 637 976 q 834 904 777 938 q 934 824 890 871 q 1006 723 977 778 q 1050 605 1035 667 q 1065 479 1065 543 q 1054 367 1065 422 q 1020 261 1042 312 q 964 165 998 210 q 887 84 931 121 l 1065 -32 l 1065 -84 m 553 229 q 645 252 607 229 q 706 312 682 275 q 742 392 730 348 q 753 479 753 436 q 739 578 753 532 q 699 657 725 624 q 636 710 673 691 q 553 729 600 729 q 461 706 499 729 q 399 646 423 682 q 365 565 376 610 q 354 479 354 521 q 368 381 354 427 q 409 302 382 336 q 472 249 435 268 q 553 229 509 229 z "},"R":{"ha":969,"x_min":91,"x_max":942,"o":"m 942 3 q 814 -22 853 -22 q 498 208 562 -22 l 460 362 l 395 362 l 395 0 l 91 0 l 91 955 l 515 955 q 671 936 598 955 q 797 882 743 918 q 882 794 851 846 q 913 674 913 742 q 900 584 913 624 q 864 513 888 545 q 806 457 840 481 q 728 414 772 433 l 734 380 q 739 361 736 369 q 742 347 741 353 l 749 318 q 768 274 758 292 q 795 245 779 256 q 835 229 811 234 q 894 224 859 224 q 911 225 899 224 q 942 229 923 227 l 942 3 m 635 661 q 624 704 635 687 q 593 731 612 722 q 547 745 573 741 q 490 749 520 749 l 395 749 l 395 557 l 448 557 l 492 559 q 544 567 519 562 q 590 583 570 572 q 623 613 610 594 q 635 661 635 631 z "},"S":{"ha":823,"x_min":47,"x_max":781,"o":"m 781 312 q 755 164 781 227 q 680 60 729 101 q 561 -1 631 19 q 400 -22 490 -22 q 52 50 201 -22 q 117 239 93 153 q 125 263 121 253 l 227 238 q 266 229 245 234 q 308 221 287 224 q 348 214 329 217 q 381 212 367 212 q 426 213 404 212 q 463 221 447 215 q 489 239 479 227 q 499 270 499 250 q 477 310 499 294 q 421 339 454 326 q 347 362 387 352 q 273 385 307 373 q 183 426 224 400 q 112 487 142 452 q 64 568 81 523 q 47 667 47 613 q 419 977 47 977 q 747 903 595 977 l 673 696 q 569 723 607 713 q 507 737 530 732 q 471 743 484 742 q 442 745 457 745 l 419 745 q 407 745 412 745 q 397 745 401 745 q 350 736 366 745 q 334 699 334 727 q 408 633 334 656 q 687 509 592 591 q 781 312 781 428 z "},"T":{"ha":802,"x_min":41,"x_max":761,"o":"m 239 753 l 41 753 l 41 955 l 761 955 l 761 753 l 563 753 l 563 0 l 239 0 l 239 753 z "},"U":{"ha":1108,"x_min":82,"x_max":1026,"o":"m 554 229 q 672 272 632 229 q 713 396 713 314 l 713 955 l 1026 955 l 1026 396 q 1007 263 1026 323 q 954 158 987 204 q 875 77 920 111 q 777 21 829 43 q 667 -11 724 -1 q 554 -22 610 -22 q 227 84 361 -22 q 82 396 82 197 l 82 955 l 395 955 l 395 396 q 554 229 395 229 z "},"V":{"ha":934,"x_min":3,"x_max":939,"o":"m 3 955 l 316 955 l 464 359 l 612 955 l 939 955 l 640 0 l 286 0 l 3 955 z "},"W":{"ha":1375,"x_min":29,"x_max":1346,"o":"m 29 955 l 341 955 l 432 346 l 526 793 l 848 793 l 943 346 l 1033 955 l 1346 955 l 1129 0 l 805 0 l 687 514 l 569 0 l 246 0 l 29 955 z "},"X":{"ha":879,"x_min":1,"x_max":878,"o":"m 265 475 l 9 955 l 323 955 l 436 713 l 549 955 l 870 955 l 611 475 l 878 0 l 557 0 l 436 237 l 315 0 l 1 0 l 265 475 z "},"Y":{"ha":850,"x_min":-4,"x_max":859,"o":"m 271 266 l -4 955 l 286 955 l 420 526 l 553 955 l 859 955 l 570 266 l 570 0 l 271 0 l 271 266 z "},"Z":{"ha":751,"x_min":50,"x_max":701,"o":"m 50 201 l 376 753 l 63 753 l 63 955 l 687 955 l 687 753 l 368 201 l 701 201 l 701 0 l 50 0 l 50 201 z "},"[":{"ha":621,"x_min":81,"x_max":573,"o":"m 81 955 l 573 955 l 573 749 l 379 749 l 379 205 l 573 205 l 573 0 l 81 0 l 81 955 z "},"\\":{"ha":445,"x_min":39,"x_max":405,"o":"m 405 0 l 269 0 l 39 955 l 177 955 l 405 0 z "},"]":{"ha":621,"x_min":47,"x_max":540,"o":"m 47 205 l 241 205 l 241 749 l 47 749 l 47 955 l 540 955 l 540 0 l 47 0 l 47 205 z "},"^":{"ha":817,"x_min":49,"x_max":769,"o":"m 283 933 l 532 933 l 769 237 l 563 237 l 410 803 l 259 237 l 49 237 l 283 933 z "},"_":{"ha":572,"x_min":56,"x_max":517,"o":"m 56 96 l 517 96 l 517 -22 l 56 -22 l 56 96 z "},"`":{"ha":586,"x_min":20,"x_max":568,"o":"m 161 1214 l 568 929 l 483 780 l 20 966 l 161 1214 z "},"a":{"ha":966,"x_min":35,"x_max":895,"o":"m 604 129 q 515 25 571 61 q 376 -11 460 -11 q 246 17 308 -11 q 138 93 184 44 q 63 208 91 141 q 35 352 35 274 q 63 494 35 429 q 139 607 92 559 q 247 680 186 654 q 376 706 309 706 q 444 697 410 706 q 508 668 477 688 q 563 617 538 648 q 604 544 587 587 l 604 706 l 895 706 l 895 0 l 604 0 l 604 129 m 604 353 q 591 404 602 380 q 561 447 579 429 q 517 475 542 465 q 467 486 493 486 q 411 474 437 486 q 367 445 386 463 q 338 401 349 426 q 327 347 327 376 q 338 292 327 317 q 369 248 350 267 q 414 219 389 230 q 467 209 439 209 q 519 220 495 209 q 562 249 544 231 q 591 291 581 267 q 604 342 602 315 l 604 353 z "},"b":{"ha":968,"x_min":73,"x_max":932,"o":"m 593 -11 q 367 129 433 -11 l 367 0 l 73 0 l 73 916 l 367 959 l 367 566 q 458 673 402 641 q 592 706 514 706 q 725 679 663 706 q 833 604 787 652 q 906 490 879 555 q 932 347 932 425 q 905 204 932 270 q 830 91 877 139 q 722 16 783 43 q 593 -11 661 -11 m 367 347 q 378 292 367 317 q 408 249 389 267 q 451 219 427 230 q 504 209 476 209 q 558 220 533 209 q 603 251 584 232 q 632 295 621 270 q 642 347 642 320 q 631 402 642 377 q 601 446 620 428 q 557 475 582 465 q 504 486 532 486 q 451 475 475 486 q 408 446 426 465 q 378 404 389 428 q 367 353 368 380 l 367 347 z "},"c":{"ha":655,"x_min":35,"x_max":625,"o":"m 598 465 q 463 488 525 488 q 405 478 431 488 q 362 450 380 468 q 334 405 344 431 q 324 347 324 379 q 334 289 324 315 q 362 244 344 263 q 407 215 380 225 q 465 205 433 205 q 595 228 527 205 l 623 34 q 520 -2 570 7 q 412 -11 471 -11 q 261 15 330 -11 q 142 87 192 41 q 63 200 92 134 q 35 347 35 267 q 66 494 35 428 q 148 607 96 560 q 269 680 200 654 q 412 706 337 706 q 472 704 446 706 q 524 695 499 701 q 572 677 548 688 q 625 650 597 667 l 598 465 z "},"d":{"ha":968,"x_min":36,"x_max":896,"o":"m 375 706 q 511 673 454 706 q 603 566 568 641 l 603 916 l 896 959 l 896 0 l 603 0 l 603 129 q 514 24 570 59 q 374 -11 458 -11 q 239 19 301 -11 q 133 98 178 48 q 62 212 87 147 q 36 347 36 277 q 63 489 36 423 q 138 603 91 555 q 246 679 184 651 q 375 706 307 706 m 603 353 q 590 404 602 380 q 560 447 578 429 q 517 475 541 465 q 466 486 492 486 q 411 474 436 486 q 367 444 385 463 q 338 400 349 425 q 328 347 328 375 q 339 292 328 317 q 369 249 350 267 q 413 219 388 230 q 466 209 438 209 q 520 220 495 209 q 564 251 545 232 q 592 295 582 270 q 603 347 603 320 l 603 353 z "},"e":{"ha":772,"x_min":35,"x_max":741,"o":"m 473 184 q 678 233 568 184 l 712 46 q 429 -11 586 -11 q 269 16 341 -11 q 145 91 197 43 q 64 204 93 138 q 35 347 35 270 q 65 495 35 429 q 148 608 96 561 q 270 681 200 655 q 419 706 340 706 q 559 679 499 706 q 660 606 620 652 q 721 497 701 559 q 741 365 741 435 q 740 347 741 355 q 738 330 739 338 l 321 275 q 376 205 338 227 q 473 184 414 184 m 525 450 q 419 537 501 537 q 373 527 393 537 q 339 499 353 517 q 317 456 325 481 q 309 403 310 431 l 525 450 z "},"f":{"ha":604,"x_min":35,"x_max":602,"o":"m 458 857 q 395 837 418 857 q 372 779 372 817 q 396 696 372 742 l 590 696 l 590 524 l 415 524 l 415 0 l 122 0 l 122 524 l 35 524 l 35 696 l 122 696 q 136 863 122 793 q 180 978 150 932 q 259 1045 211 1023 q 376 1066 307 1066 q 602 1013 483 1066 l 593 825 q 458 857 513 857 z "},"g":{"ha":965,"x_min":37,"x_max":895,"o":"m 622 115 q 372 0 541 0 q 244 26 305 0 q 137 100 183 53 q 64 212 91 147 q 37 352 37 276 q 65 496 37 431 q 139 608 93 562 q 246 681 186 655 q 371 706 307 706 q 451 694 414 706 q 519 662 489 683 q 570 610 549 640 q 602 544 591 581 l 602 706 l 895 706 l 895 176 q 869 -30 895 62 q 791 -185 844 -121 q 656 -284 738 -250 q 463 -319 575 -319 q 394 -315 431 -319 q 317 -305 357 -312 l 338 -98 q 433 -106 406 -106 q 519 -89 486 -106 q 572 -42 552 -72 q 604 27 593 -13 q 622 115 614 68 m 602 353 q 588 404 600 380 q 557 446 576 428 q 514 475 538 465 q 463 486 490 486 q 408 474 433 486 q 364 444 382 463 q 335 400 346 425 q 325 347 325 375 q 337 288 325 314 q 370 245 350 262 q 415 218 390 227 q 463 209 439 209 q 516 220 491 209 q 559 249 541 231 q 589 291 578 267 q 602 342 600 315 l 602 353 z "},"h":{"ha":958,"x_min":73,"x_max":893,"o":"m 73 916 l 366 959 l 366 541 q 459 667 401 627 q 595 706 517 706 q 712 681 658 706 q 807 609 766 655 q 870 497 847 562 q 893 353 893 432 l 893 0 l 602 0 l 602 347 q 594 399 602 374 q 574 443 587 424 q 543 474 561 463 q 504 486 525 486 q 449 474 474 486 q 405 441 423 462 q 376 394 387 421 q 366 338 366 368 l 366 0 l 73 0 l 73 916 z "},"i":{"ha":507,"x_min":62,"x_max":496,"o":"m 62 926 q 75 983 62 957 q 110 1027 88 1008 q 160 1056 132 1046 q 219 1066 189 1066 q 283 1054 254 1066 q 332 1021 312 1041 q 364 976 353 1001 q 375 926 375 951 q 362 869 375 895 q 328 825 349 844 q 278 796 306 806 q 219 785 250 785 q 157 796 186 785 q 107 826 128 807 q 74 871 86 846 q 62 926 62 897 m 496 37 q 314 -11 414 -11 q 209 9 255 -11 q 131 65 163 28 q 83 153 100 101 q 67 267 67 204 l 67 696 l 361 696 l 361 281 q 379 231 361 248 q 424 214 397 214 q 481 231 451 214 l 496 37 z "},"j":{"ha":438,"x_min":-180,"x_max":371,"o":"m -20 -75 q 73 41 73 -75 l 73 696 l 366 696 l 366 41 q 344 -102 366 -39 q 283 -209 323 -165 q 186 -276 243 -253 q 58 -300 130 -300 q -180 -227 -70 -300 l -116 -54 q -20 -75 -52 -75 m 58 926 q 71 982 58 956 q 106 1026 84 1008 q 156 1056 127 1045 q 214 1066 184 1066 q 278 1054 249 1066 q 328 1022 307 1042 q 360 977 349 1002 q 371 926 371 951 q 358 869 371 895 q 324 825 345 844 q 274 796 302 806 q 214 785 245 785 q 152 797 180 785 q 102 827 123 808 q 70 872 81 846 q 58 926 58 898 z "},"k":{"ha":891,"x_min":73,"x_max":884,"o":"m 660 401 q 690 283 675 313 q 800 213 721 213 q 859 221 819 213 l 832 -7 q 755 -11 789 -11 q 630 4 680 -11 q 546 52 581 20 q 490 135 512 85 q 448 256 467 186 l 367 191 l 367 0 l 73 0 l 73 916 l 367 959 l 367 483 l 724 774 l 884 557 l 660 401 z "},"l":{"ha":525,"x_min":67,"x_max":523,"o":"m 523 37 q 314 -11 429 -11 q 209 8 255 -11 q 131 64 163 28 q 83 152 100 100 q 67 267 67 203 l 67 916 l 360 959 l 360 288 q 384 232 360 250 q 448 214 408 214 q 512 231 479 214 l 523 37 z "},"m":{"ha":1424,"x_min":69,"x_max":1359,"o":"m 841 533 q 932 663 869 619 q 1096 706 996 706 q 1201 680 1153 706 q 1284 606 1249 653 q 1339 492 1320 558 q 1359 347 1359 427 l 1359 0 l 1066 0 l 1066 347 q 1060 401 1066 376 q 1041 444 1053 426 q 1011 473 1029 463 q 971 483 994 483 q 921 470 942 483 q 886 436 900 456 q 866 392 873 416 q 860 347 860 368 l 860 0 l 570 0 l 570 347 q 563 400 570 376 q 544 444 557 425 q 513 472 532 462 q 472 483 495 483 q 427 473 447 483 q 393 445 407 463 q 371 403 378 427 q 362 353 363 379 l 362 0 l 69 0 l 69 686 l 362 686 l 362 544 q 460 668 401 630 q 600 706 519 706 q 674 696 638 706 q 742 665 710 686 q 799 611 773 644 q 841 533 824 578 z "},"n":{"ha":954,"x_min":69,"x_max":888,"o":"m 69 686 l 349 686 l 349 544 q 453 666 389 626 q 604 706 517 706 q 726 680 673 706 q 815 607 779 654 q 870 494 851 560 q 888 347 888 428 l 888 0 l 597 0 l 597 376 q 592 426 597 403 q 575 466 587 449 q 547 491 564 482 q 506 500 530 500 q 451 486 476 500 q 407 450 426 471 q 377 407 389 429 q 362 368 366 384 l 362 0 l 69 0 l 69 686 z "},"o":{"ha":871,"x_min":35,"x_max":836,"o":"m 307 349 q 318 282 307 311 q 347 235 329 254 q 389 206 366 216 q 437 197 413 197 q 485 206 462 197 q 527 235 509 216 q 557 282 546 254 q 568 349 568 311 q 557 415 568 387 q 527 462 546 444 q 485 490 509 481 q 437 500 462 500 q 389 490 413 500 q 347 462 366 481 q 318 415 329 444 q 307 349 307 387 m 35 349 q 72 503 39 436 q 159 614 104 569 q 284 683 213 660 q 437 706 356 706 q 598 680 525 706 q 724 606 671 653 q 806 493 777 559 q 836 349 836 427 q 819 233 836 285 q 774 142 802 182 q 707 73 745 102 q 623 25 668 44 q 531 -2 578 7 q 435 -11 483 -11 q 272 15 346 -11 q 146 89 199 41 q 64 202 93 136 q 35 349 35 269 z "},"p":{"ha":965,"x_min":69,"x_max":929,"o":"m 590 -11 q 456 21 513 -11 q 362 129 399 54 l 362 -180 l 69 -236 l 69 686 l 362 686 l 362 566 q 455 673 398 641 q 589 706 511 706 q 711 686 653 706 q 821 616 769 666 q 929 347 929 509 q 821 79 929 187 q 713 9 771 29 q 590 -11 655 -11 m 362 347 q 373 292 362 317 q 404 249 385 267 q 447 219 422 230 q 499 209 472 209 q 555 220 529 209 q 599 250 581 231 q 628 294 618 269 q 639 347 639 319 q 627 406 639 380 q 594 449 614 431 q 549 476 574 467 q 499 486 524 486 q 442 473 467 486 q 400 441 417 460 q 374 398 383 422 q 362 353 364 374 l 362 347 z "},"q":{"ha":966,"x_min":36,"x_max":897,"o":"m 376 706 q 511 673 454 706 q 604 566 568 641 l 604 686 l 897 686 l 897 -180 l 604 -236 l 604 129 q 510 21 567 54 q 375 -11 452 -11 q 235 19 298 -11 q 128 98 172 48 q 60 212 83 147 q 36 347 36 277 q 63 490 36 425 q 137 604 90 556 q 245 679 183 652 q 376 706 307 706 m 604 353 q 591 404 603 380 q 560 447 579 429 q 517 475 541 465 q 467 486 493 486 q 412 474 437 486 q 368 444 387 463 q 338 400 349 425 q 328 347 328 375 q 339 292 328 317 q 370 249 351 267 q 414 219 389 230 q 467 209 439 209 q 519 220 495 209 q 562 249 544 231 q 592 291 581 267 q 604 342 603 315 l 604 353 z "},"r":{"ha":620,"x_min":69,"x_max":618,"o":"m 69 686 l 362 686 l 362 544 q 451 667 395 628 q 578 706 506 706 l 618 479 q 424 451 486 479 q 362 361 362 422 l 362 0 l 69 0 l 69 686 z "},"s":{"ha":642,"x_min":38,"x_max":608,"o":"m 370 533 q 288 505 288 533 q 294 485 288 494 q 310 470 300 477 q 332 460 320 464 q 357 454 345 456 q 456 430 410 446 q 535 385 502 413 q 588 317 569 357 q 608 221 608 277 q 588 123 608 166 q 534 50 569 80 q 453 5 500 20 q 351 -11 406 -11 q 189 -3 262 -11 q 54 33 115 5 l 85 193 q 124 182 108 186 q 152 175 141 177 q 178 170 162 173 q 211 164 193 167 q 248 159 229 161 q 281 157 266 157 q 350 190 350 157 q 339 213 348 203 q 318 230 331 222 q 289 241 305 237 q 254 250 272 246 q 160 277 201 260 q 93 320 120 294 q 52 386 66 347 q 38 479 38 425 q 64 583 41 540 q 126 653 87 626 q 219 693 165 681 q 335 706 272 706 q 459 699 401 706 q 568 667 517 692 l 538 502 q 370 533 437 533 z "},"t":{"ha":604,"x_min":26,"x_max":569,"o":"m 569 37 q 360 -11 475 -11 q 255 8 301 -11 q 177 64 209 28 q 130 152 146 100 q 113 267 113 203 l 115 524 l 26 524 l 26 696 l 136 696 l 265 959 l 406 959 l 406 696 l 566 696 l 566 524 l 406 524 l 406 288 q 430 233 406 251 q 494 214 454 214 q 558 231 526 214 l 569 37 z "},"u":{"ha":872,"x_min":64,"x_max":807,"o":"m 350 289 q 357 255 350 271 q 377 229 364 240 q 406 212 389 218 q 441 206 422 206 q 474 213 458 206 q 501 230 490 219 q 519 256 513 241 q 526 289 526 271 l 526 696 l 807 696 l 807 298 q 779 169 807 227 q 702 72 751 112 q 586 11 653 32 q 439 -11 519 -11 q 293 10 361 -11 q 174 70 224 31 q 93 168 123 110 q 64 298 64 225 l 64 696 l 350 696 l 350 289 z "},"v":{"ha":792,"x_min":1,"x_max":789,"o":"m 1 696 l 324 696 l 434 269 l 452 363 l 534 696 l 789 696 l 568 0 l 231 0 l 1 696 z "},"w":{"ha":1158,"x_min":28,"x_max":1129,"o":"m 28 696 l 311 696 l 390 244 q 406 312 398 278 q 421 384 413 347 q 437 463 429 421 q 456 554 446 505 l 486 696 l 725 696 l 794 369 l 820 233 l 847 369 l 901 696 l 1129 696 l 985 0 l 649 0 l 574 368 l 501 0 l 181 0 l 28 696 z "},"x":{"ha":770,"x_min":3,"x_max":766,"o":"m 214 361 l 16 696 l 309 696 l 388 532 l 468 696 l 753 696 l 559 361 l 766 0 l 481 0 l 388 178 l 296 0 l 3 0 l 214 361 z "},"y":{"ha":928,"x_min":66,"x_max":857,"o":"m 578 115 q 377 0 513 0 q 258 22 315 0 q 159 83 202 44 q 92 177 117 123 q 66 294 66 231 l 66 696 l 358 696 l 358 308 q 367 270 358 288 q 388 238 375 252 q 418 217 401 224 q 453 209 435 209 q 499 218 478 209 q 534 243 519 227 q 556 280 549 259 q 564 327 564 302 l 564 696 l 857 696 l 857 176 q 832 -39 857 54 q 757 -196 806 -133 q 635 -293 707 -260 q 468 -326 562 -326 q 416 -322 446 -326 q 347 -312 387 -319 l 377 -84 q 412 -91 395 -89 q 446 -92 429 -92 q 509 -74 485 -92 q 547 -25 533 -55 q 568 41 562 4 q 578 115 574 78 z "},"z":{"ha":680,"x_min":43,"x_max":637,"o":"m 43 149 l 287 518 l 52 518 l 52 696 l 630 696 l 630 545 l 414 178 l 637 178 l 637 0 l 43 0 l 43 149 z "},"{":{"ha":494,"x_min":8,"x_max":448,"o":"m 94 331 q 70 390 94 370 q 8 415 47 411 l 8 524 q 70 548 47 528 q 94 606 94 568 q 119 759 94 691 q 190 876 144 827 q 301 953 236 924 q 448 989 367 982 l 448 868 q 382 783 401 851 q 362 606 362 715 q 334 527 362 559 q 256 469 305 494 q 334 412 306 444 q 362 331 362 380 q 384 153 362 218 q 448 71 405 87 l 448 -50 q 299 -15 365 -44 q 188 64 234 15 q 118 181 142 114 q 94 331 94 249 z "},"|":{"ha":294,"x_min":81,"x_max":214,"o":"m 81 955 l 214 955 l 214 0 l 81 0 l 81 955 z "},"}":{"ha":494,"x_min":46,"x_max":486,"o":"m 486 415 q 424 390 447 411 q 400 331 400 370 q 375 179 400 246 q 304 63 351 111 q 193 -15 258 14 q 46 -50 127 -43 l 46 71 q 112 155 92 87 q 132 331 132 222 q 160 412 132 380 q 237 469 188 444 q 160 527 189 494 q 132 606 132 559 q 46 868 132 835 l 46 989 q 195 952 130 982 q 306 873 260 922 q 376 756 352 824 q 400 606 400 689 q 424 548 400 568 q 486 524 447 528 l 486 415 z "},"~":{"ha":806,"x_min":28,"x_max":784,"o":"m 264 481 q 239 475 250 481 q 220 459 228 469 q 205 437 212 450 q 193 410 199 424 l 28 476 q 74 578 48 533 q 131 653 100 623 q 196 700 162 684 q 266 716 230 716 q 330 709 298 716 q 382 694 362 701 q 444 669 420 679 q 485 652 468 659 q 517 643 503 646 q 552 640 532 640 q 596 657 581 640 q 623 703 612 674 l 784 636 q 689 463 745 520 q 557 406 633 406 q 512 408 533 406 q 472 415 491 411 q 435 426 453 420 q 397 440 416 433 l 330 469 q 264 481 300 481 z "}," ":{"ha":260,"x_min":0,"x_max":0,"o":""},"¡":{"ha":425,"x_min":59,"x_max":372,"o":"m 64 216 l 64 0 l 357 0 l 357 216 l 303 609 l 120 609 l 64 216 m 59 840 q 72 783 59 808 q 107 739 85 757 q 157 710 129 720 q 216 700 186 700 q 276 711 248 700 q 326 741 304 722 q 360 785 347 760 q 372 840 372 810 q 359 896 372 870 q 324 941 346 922 q 274 970 302 960 q 216 981 246 981 q 155 970 184 981 q 105 940 126 959 q 71 895 83 920 q 59 840 59 869 z "},"¢":{"ha":684,"x_min":35,"x_max":625,"o":"m 623 34 q 575 14 602 24 q 514 -8 549 3 l 514 -126 l 423 -126 l 423 -22 l 411 -22 q 261 6 330 -22 q 142 82 192 33 q 63 199 92 131 q 35 347 35 267 q 64 495 35 427 q 143 612 93 563 q 262 689 194 661 q 411 716 331 716 l 423 716 l 423 807 l 514 807 l 514 701 q 625 650 576 680 l 597 465 q 552 477 573 473 q 514 484 532 481 l 514 209 q 594 228 555 213 l 623 34 m 423 484 q 351 437 378 473 q 324 347 324 400 q 332 298 324 321 q 352 257 339 275 q 384 227 366 239 q 423 210 401 215 l 423 484 z "},"£":{"ha":728,"x_min":50,"x_max":680,"o":"m 523 768 q 459 748 482 768 q 437 689 437 728 l 437 536 l 610 536 l 610 418 l 437 418 l 437 203 l 670 203 l 670 0 l 50 0 l 50 87 q 116 121 93 90 q 138 203 138 152 l 138 418 l 50 418 l 50 536 l 138 536 l 138 606 q 153 763 138 694 q 202 880 167 832 q 295 952 237 927 q 440 977 353 977 q 680 924 554 977 l 657 735 q 523 768 578 768 z "},"¤":{"ha":777,"x_min":50,"x_max":726,"o":"m 149 256 q 82 437 82 333 q 98 533 82 488 q 146 614 115 578 l 50 710 l 113 772 l 214 671 q 385 716 290 716 q 560 668 479 716 l 664 772 l 726 710 l 628 612 q 692 437 692 540 q 625 259 692 334 l 726 158 l 665 96 l 555 204 q 384 161 479 161 q 218 202 290 161 l 112 96 l 50 158 l 149 256 m 302 351 q 386 319 334 319 q 433 328 412 319 q 469 353 454 337 q 492 390 484 368 q 500 437 500 411 q 492 484 500 462 q 469 521 484 505 q 433 545 454 536 q 387 554 412 554 q 340 546 361 554 q 303 522 319 537 q 280 485 288 507 q 271 437 271 463 q 302 351 271 382 z "},"¥":{"ha":795,"x_min":33,"x_max":760,"o":"m 107 202 l 316 202 l 316 263 l 107 263 l 107 350 l 281 350 l 33 933 l 214 933 l 397 429 l 578 933 l 760 933 l 513 350 l 697 350 l 697 263 l 476 263 l 476 202 l 697 202 l 697 119 l 476 119 l 476 0 l 316 0 l 316 119 l 107 119 l 107 202 z "},"¦":{"ha":297,"x_min":82,"x_max":215,"o":"m 82 374 l 215 374 l 215 0 l 82 0 l 82 374 m 82 955 l 215 955 l 215 581 l 82 581 l 82 955 z "},"§":{"ha":740,"x_min":58,"x_max":686,"o":"m 599 350 q 683 191 683 295 q 669 116 683 149 q 631 61 654 84 q 575 21 607 37 q 508 -4 543 5 q 435 -18 472 -14 q 364 -22 398 -22 q 75 30 214 -22 l 105 198 q 156 183 128 191 q 214 171 184 176 q 275 161 244 165 q 336 157 306 157 q 399 189 399 157 q 395 202 399 197 q 378 214 390 208 q 346 227 366 220 q 294 245 325 234 l 239 265 q 185 287 216 273 q 126 323 155 301 q 78 378 98 346 q 58 454 58 410 q 142 621 58 560 q 58 781 58 675 q 88 874 60 837 q 159 935 115 912 q 257 967 202 958 q 371 977 313 977 q 644 925 534 977 l 614 770 q 577 781 600 775 q 526 791 555 787 q 465 800 498 796 q 398 803 432 803 q 333 776 333 803 q 359 749 333 762 q 425 724 385 737 q 509 693 464 710 q 594 652 555 675 q 660 595 633 628 q 686 518 686 563 q 663 418 686 460 q 599 350 640 375 m 333 545 q 290 527 306 543 q 273 483 273 511 q 282 465 273 475 q 306 446 290 456 q 342 427 321 436 q 390 411 364 418 q 440 427 421 411 q 459 471 459 442 q 427 510 459 492 q 333 545 394 528 z "},"¨":{"ha":845,"x_min":57,"x_max":788,"o":"m 476 901 q 490 958 476 932 q 525 1002 503 983 q 575 1031 547 1021 q 633 1042 604 1042 q 697 1029 669 1042 q 746 996 726 1017 q 777 951 766 976 q 788 901 788 926 q 775 844 788 870 q 741 800 762 819 q 691 771 720 782 q 633 761 663 761 q 569 772 598 761 q 520 803 541 784 q 488 848 499 823 q 476 901 476 873 m 57 901 q 70 956 57 930 q 104 1001 83 982 q 154 1031 126 1020 q 213 1042 182 1042 q 274 1030 245 1042 q 323 999 302 1019 q 357 954 345 979 q 369 901 369 928 q 356 844 369 869 q 321 800 342 818 q 271 771 299 781 q 213 761 243 761 q 152 772 180 761 q 103 801 124 783 q 69 845 81 820 q 57 901 57 871 z "},"©":{"ha":967,"x_min":48,"x_max":919,"o":"m 482 61 q 614 89 552 61 q 723 165 676 117 q 796 278 769 214 q 823 415 823 342 q 794 559 823 494 q 717 671 765 624 q 608 743 669 718 q 482 769 547 769 q 349 741 411 769 q 241 666 287 713 q 168 553 195 618 q 142 415 142 488 q 168 276 142 340 q 241 164 195 212 q 349 89 287 116 q 482 61 411 61 m 482 -22 q 174 109 301 -22 q 48 420 48 237 q 83 591 48 515 q 178 724 118 667 q 237 773 204 750 q 309 812 270 795 q 392 839 348 829 q 487 849 437 849 q 792 720 663 849 q 919 415 919 593 q 791 106 919 235 q 482 -22 663 -22 m 342 414 q 385 289 342 334 q 508 244 428 244 q 637 273 564 244 l 650 191 q 498 156 581 156 q 390 175 439 157 q 307 227 341 193 q 253 308 272 260 q 233 414 233 355 q 254 521 233 473 q 312 602 276 569 q 395 653 348 635 q 494 671 443 671 q 652 629 583 671 l 640 552 q 509 585 575 585 q 386 539 429 585 q 342 414 342 494 z "},"ª":{"ha":966,"x_min":35,"x_max":895,"o":"m 604 129 q 515 25 571 61 q 376 -11 460 -11 q 246 17 308 -11 q 138 93 184 44 q 63 208 91 141 q 35 352 35 274 q 63 494 35 429 q 139 607 92 559 q 247 680 186 654 q 376 706 309 706 q 444 697 410 706 q 508 668 477 688 q 563 617 538 648 q 604 544 587 587 l 604 706 l 895 706 l 895 0 l 604 0 l 604 129 m 604 353 q 591 404 602 380 q 561 447 579 429 q 517 475 542 465 q 467 486 493 486 q 411 474 437 486 q 367 445 386 463 q 338 401 349 426 q 327 347 327 376 q 338 292 327 317 q 369 248 350 267 q 414 219 389 230 q 467 209 439 209 q 519 220 495 209 q 562 249 544 231 q 591 291 581 267 q 604 342 602 315 l 604 353 z "},"«":{"ha":752,"x_min":36,"x_max":688,"o":"m 397 549 l 688 757 l 688 505 l 554 425 l 688 340 l 688 87 l 397 300 l 397 549 m 36 549 l 328 757 l 328 505 l 195 425 l 328 340 l 328 87 l 36 300 l 36 549 z "},"¬":{"ha":742,"x_min":54,"x_max":666,"o":"m 666 578 l 666 118 l 517 118 l 517 359 l 54 359 l 54 578 l 666 578 z "},"®":{"ha":967,"x_min":48,"x_max":919,"o":"m 564 383 q 577 330 570 355 q 596 284 584 304 q 630 252 609 264 q 686 239 651 239 q 703 243 693 239 l 686 174 q 615 183 644 174 q 565 208 585 191 q 532 249 545 224 q 510 307 519 274 l 485 404 l 395 404 l 395 184 l 317 184 l 317 674 l 490 674 q 680 540 680 674 q 559 408 680 423 l 564 383 m 595 540 q 588 574 595 561 q 568 596 581 588 q 533 606 554 604 q 484 609 512 609 l 395 609 l 395 468 l 503 468 q 542 472 525 469 q 571 481 559 474 q 589 503 583 489 q 595 540 595 516 m 482 61 q 614 89 552 61 q 723 165 676 117 q 796 278 769 214 q 823 415 823 342 q 794 559 823 494 q 717 671 765 624 q 608 743 669 718 q 482 769 547 769 q 349 741 411 769 q 241 666 287 713 q 168 553 195 618 q 142 415 142 488 q 168 276 142 340 q 241 164 195 212 q 349 89 287 116 q 482 61 411 61 m 482 -22 q 174 109 301 -22 q 48 420 48 237 q 83 591 48 515 q 178 724 118 667 q 237 773 204 750 q 309 812 270 795 q 392 839 348 829 q 487 849 437 849 q 792 720 663 849 q 919 415 919 593 q 791 106 919 235 q 482 -22 663 -22 z "},"¯":{"ha":461,"x_min":47,"x_max":420,"o":"m 47 958 l 420 958 l 420 793 l 47 793 l 47 958 z "},"°":{"ha":867,"x_min":47,"x_max":819,"o":"m 616 595 q 602 677 616 641 q 563 739 588 713 q 505 778 538 764 q 435 791 472 791 q 359 776 393 791 q 302 735 326 761 q 265 673 278 709 q 252 595 252 637 q 266 515 252 551 q 303 454 279 479 q 361 414 328 428 q 435 399 395 399 q 509 414 475 399 q 567 454 543 429 q 604 516 591 480 q 616 595 616 553 m 449 964 q 602 936 533 964 q 718 860 670 909 q 793 745 766 812 q 819 600 819 678 q 791 449 819 518 q 713 331 764 380 q 591 253 663 281 q 433 224 520 224 q 281 251 352 224 q 159 325 211 277 q 77 441 106 373 q 47 594 47 509 q 75 744 47 675 q 154 861 103 812 q 277 937 205 909 q 435 964 348 964 l 449 964 z "},"±":{"ha":773,"x_min":49,"x_max":724,"o":"m 347 437 l 49 437 l 49 515 l 347 515 l 347 822 l 429 822 l 429 515 l 724 515 l 724 437 l 429 437 l 429 126 l 347 126 l 347 437 m 49 77 l 724 77 l 724 0 l 49 0 l 49 77 z "},"²":{"ha":452,"x_min":47,"x_max":400,"o":"m 47 933 q 236 977 146 977 q 304 964 273 977 q 356 930 334 952 q 389 877 377 908 q 400 808 400 846 q 355 688 400 745 q 222 581 309 630 l 385 581 l 385 465 l 57 465 l 57 575 q 193 719 149 661 q 237 807 237 777 q 182 845 237 845 q 88 815 150 845 l 47 933 z "},"³":{"ha":437,"x_min":46,"x_max":396,"o":"m 301 730 q 396 591 396 688 q 382 528 396 555 q 342 482 368 500 q 282 454 317 464 q 209 445 248 445 q 46 477 144 445 l 72 589 q 189 564 145 564 q 229 573 213 564 q 245 600 245 581 q 109 671 245 671 l 109 765 q 161 767 137 765 q 204 776 186 770 q 232 793 222 783 q 241 821 241 804 q 230 844 241 836 q 201 852 218 852 q 72 829 149 852 l 46 936 q 217 977 136 977 q 277 967 248 977 q 327 942 305 958 q 360 903 348 926 q 373 853 373 880 q 301 730 373 777 z "},"´":{"ha":555,"x_min":3,"x_max":551,"o":"m 3 929 l 410 1214 l 551 966 l 88 780 l 3 929 z "},"¶":{"ha":772,"x_min":32,"x_max":669,"o":"m 359 494 l 300 494 q 193 511 242 494 q 108 558 144 528 q 52 631 73 589 q 32 724 32 673 q 55 817 32 774 q 121 890 78 859 q 224 938 163 920 q 359 955 284 955 l 669 955 l 669 0 l 558 0 l 558 850 l 471 850 l 471 0 l 359 0 l 359 494 z "},"·":{"ha":427,"x_min":58,"x_max":370,"o":"m 58 556 q 71 612 58 586 q 106 656 84 637 q 156 686 127 675 q 214 697 184 697 q 275 686 247 697 q 325 654 303 674 q 358 609 346 635 q 370 556 370 584 q 357 499 370 525 q 322 455 344 473 q 272 427 300 437 q 214 416 244 416 q 154 427 182 416 q 104 457 125 438 q 71 501 83 475 q 58 556 58 526 z "},"¸":{"ha":380,"x_min":26,"x_max":349,"o":"m 197 -186 q 175 -138 197 -153 q 117 -122 153 -122 l 114 -122 l 155 0 l 232 0 l 205 -79 q 311 -113 273 -86 q 349 -187 349 -140 q 328 -259 349 -229 q 276 -308 307 -289 q 211 -336 245 -327 q 148 -345 176 -345 q 26 -315 87 -345 l 45 -263 q 107 -273 81 -273 q 197 -186 197 -273 z "},"¹":{"ha":380,"x_min":58,"x_max":338,"o":"m 58 907 q 199 955 136 907 l 277 955 l 277 571 l 338 571 l 338 463 l 58 463 l 58 571 l 119 571 l 119 817 l 58 811 l 58 907 z "},"º":{"ha":871,"x_min":35,"x_max":836,"o":"m 307 349 q 318 282 307 311 q 347 235 329 254 q 389 206 366 216 q 437 197 413 197 q 485 206 462 197 q 527 235 509 216 q 557 282 546 254 q 568 349 568 311 q 557 415 568 387 q 527 462 546 444 q 485 490 509 481 q 437 500 462 500 q 389 490 413 500 q 347 462 366 481 q 318 415 329 444 q 307 349 307 387 m 35 349 q 72 503 39 436 q 159 614 104 569 q 284 683 213 660 q 437 706 356 706 q 598 680 525 706 q 724 606 671 653 q 806 493 777 559 q 836 349 836 427 q 819 233 836 285 q 774 142 802 182 q 707 73 745 102 q 623 25 668 44 q 531 -2 578 7 q 435 -11 483 -11 q 272 15 346 -11 q 146 89 199 41 q 64 202 93 136 q 35 349 35 269 z "},"»":{"ha":751,"x_min":64,"x_max":715,"o":"m 423 340 l 556 425 l 423 505 l 423 757 l 715 549 l 715 300 l 423 87 l 423 340 m 64 340 l 197 425 l 64 505 l 64 757 l 355 549 l 355 300 l 64 87 l 64 340 z "},"¼":{"ha":1053,"x_min":49,"x_max":1019,"o":"m 49 907 q 190 955 126 907 l 267 955 l 267 571 l 328 571 l 328 463 l 49 463 l 49 571 l 110 571 l 110 817 l 49 811 l 49 907 m 543 955 l 682 955 l 451 0 l 315 0 l 543 955 m 577 224 l 782 494 l 956 494 l 956 224 l 1019 224 l 1019 119 l 956 119 l 956 2 l 789 2 l 789 119 l 577 119 l 577 224 m 789 224 l 789 361 l 691 224 l 789 224 z "},"½":{"ha":903,"x_min":45,"x_max":866,"o":"m 45 907 q 186 955 122 907 l 263 955 l 263 571 l 324 571 l 324 463 l 45 463 l 45 571 l 106 571 l 106 817 l 45 811 l 45 907 m 492 955 l 630 955 l 399 0 l 264 0 l 492 955 m 513 494 q 702 538 612 538 q 770 526 739 538 q 822 491 800 513 q 854 438 843 469 q 866 370 866 407 q 821 249 866 307 q 688 142 775 191 l 851 142 l 851 26 l 523 26 l 523 136 q 659 280 614 222 q 703 368 703 338 q 648 406 703 406 q 554 376 616 406 l 513 494 z "},"¾":{"ha":1077,"x_min":41,"x_max":1043,"o":"m 296 730 q 391 591 391 688 q 377 528 391 555 q 337 482 363 500 q 278 454 312 464 q 204 445 243 445 q 41 477 139 445 l 67 589 q 184 564 140 564 q 224 573 208 564 q 241 600 241 581 q 104 671 241 671 l 104 765 q 157 767 132 765 q 199 776 181 770 q 227 793 217 783 q 237 821 237 804 q 225 844 237 836 q 196 852 214 852 q 67 829 144 852 l 41 936 q 212 977 131 977 q 272 967 243 977 q 322 942 300 958 q 356 903 343 926 q 368 853 368 880 q 296 730 368 777 m 582 955 l 720 955 l 490 0 l 354 0 l 582 955 m 601 223 l 806 493 l 979 493 l 979 223 l 1043 223 l 1043 117 l 979 117 l 979 1 l 812 1 l 812 117 l 601 117 l 601 223 m 812 223 l 812 360 l 715 223 l 812 223 z "},"¿":{"ha":703,"x_min":33,"x_max":649,"o":"m 340 259 q 450 214 340 214 q 630 251 557 214 l 649 39 q 370 -22 500 -22 q 238 -4 299 -22 q 131 47 177 14 q 59 129 85 81 q 33 237 33 176 q 45 312 33 279 q 78 370 58 345 q 124 414 98 395 q 178 446 151 432 q 267 488 234 473 q 318 515 300 503 q 340 543 335 528 q 345 585 345 557 l 345 602 l 539 602 l 555 549 q 561 524 558 538 q 564 494 564 509 q 557 448 563 468 q 542 412 552 428 q 519 382 532 395 q 490 359 506 370 q 444 333 470 346 q 395 309 418 321 q 356 284 372 296 q 340 259 340 271 m 602 836 q 588 779 602 805 q 552 735 574 753 q 502 706 530 716 q 444 696 473 696 q 384 707 412 696 q 335 738 356 718 q 301 782 313 757 q 288 836 288 807 q 301 892 288 866 q 336 937 314 918 q 386 966 357 956 q 444 977 414 977 q 505 965 477 977 q 555 935 534 954 q 589 890 576 916 q 602 836 602 865 z "},"À":{"ha":970,"x_min":7,"x_max":970,"o":"m 161 1493 l 568 1208 l 483 1059 l 20 1244 l 161 1493 m 271 955 l 693 955 l 970 0 l 643 0 l 606 183 l 359 183 l 320 0 l 7 0 l 271 955 m 574 354 l 483 772 l 389 354 l 574 354 z "},"Á":{"ha":970,"x_min":7,"x_max":970,"o":"m 397 1208 l 804 1493 l 945 1244 l 482 1059 l 397 1208 m 271 955 l 693 955 l 970 0 l 643 0 l 606 183 l 359 183 l 320 0 l 7 0 l 271 955 m 574 354 l 483 772 l 389 354 l 574 354 z "},"Â":{"ha":970,"x_min":7,"x_max":970,"o":"m 354 1404 l 610 1404 l 781 1059 l 551 1059 l 498 1206 l 481 1259 l 467 1206 l 414 1059 l 183 1059 l 354 1404 m 271 955 l 693 955 l 970 0 l 643 0 l 606 183 l 359 183 l 320 0 l 7 0 l 271 955 m 574 354 l 483 772 l 389 354 l 574 354 z "},"Ã":{"ha":970,"x_min":7,"x_max":970,"o":"m 383 1136 q 356 1129 368 1136 q 336 1113 345 1123 q 321 1089 327 1102 q 310 1063 315 1076 l 146 1129 q 193 1232 167 1187 q 251 1307 220 1276 q 315 1354 281 1338 q 385 1371 349 1371 q 427 1363 406 1371 q 460 1351 448 1356 l 492 1332 q 496 1329 493 1331 q 505 1323 500 1326 l 534 1306 q 558 1297 546 1300 q 587 1293 571 1293 q 656 1356 634 1293 l 819 1289 q 720 1114 777 1169 q 592 1059 663 1059 q 545 1064 566 1059 q 507 1079 524 1070 q 474 1097 489 1087 q 445 1116 459 1107 q 415 1130 430 1124 q 383 1136 400 1136 m 271 955 l 693 955 l 970 0 l 643 0 l 606 183 l 359 183 l 320 0 l 7 0 l 271 955 m 574 354 l 483 772 l 389 354 l 574 354 z "},"Ä":{"ha":970,"x_min":7,"x_max":970,"o":"m 536 1198 q 549 1255 536 1230 q 585 1300 563 1281 q 635 1329 607 1318 q 693 1339 663 1339 q 757 1327 728 1339 q 806 1294 785 1314 q 837 1249 826 1274 q 848 1198 848 1223 q 835 1142 848 1168 q 801 1098 822 1116 q 751 1069 779 1080 q 693 1059 723 1059 q 629 1070 658 1059 q 579 1101 600 1082 q 547 1145 559 1120 q 536 1198 536 1171 m 117 1198 q 130 1254 117 1228 q 164 1299 142 1280 q 214 1329 186 1318 q 273 1339 242 1339 q 333 1328 305 1339 q 383 1297 361 1316 q 416 1252 404 1277 q 429 1198 429 1226 q 415 1141 429 1167 q 380 1097 402 1116 q 331 1069 359 1079 q 273 1059 302 1059 q 212 1069 240 1059 q 162 1099 184 1080 q 129 1143 141 1118 q 117 1198 117 1168 m 271 955 l 693 955 l 970 0 l 643 0 l 606 183 l 359 183 l 320 0 l 7 0 l 271 955 m 574 354 l 483 772 l 389 354 l 574 354 z "},"Å":{"ha":970,"x_min":7,"x_max":970,"o":"m 480 1320 q 447 1313 462 1320 q 420 1295 431 1307 q 404 1268 410 1284 q 397 1233 397 1252 q 421 1172 397 1194 q 483 1149 446 1149 q 542 1172 522 1149 q 563 1233 563 1194 q 540 1296 563 1272 q 480 1320 517 1320 m 244 1233 q 262 1332 244 1288 q 312 1408 280 1376 q 388 1456 344 1439 q 483 1473 431 1473 q 583 1454 539 1473 q 658 1402 627 1435 q 704 1326 688 1370 q 720 1233 720 1282 q 703 1135 720 1179 q 653 1060 685 1091 q 578 1013 622 1029 q 483 996 534 996 q 386 1013 430 996 q 310 1062 342 1030 q 261 1137 279 1093 q 244 1233 244 1181 m 271 955 l 693 955 l 970 0 l 643 0 l 606 183 l 359 183 l 320 0 l 7 0 l 271 955 m 574 354 l 483 772 l 389 354 l 574 354 z "},"Æ":{"ha":1298,"x_min":-4,"x_max":1287,"o":"m 323 955 l 1120 955 l 1158 745 l 775 745 l 808 571 l 1154 571 l 1188 396 l 850 396 l 891 209 l 1249 209 l 1287 0 l 623 0 l 591 183 l 357 183 l 300 0 l -4 0 l 323 955 m 559 354 l 502 703 l 408 354 l 559 354 z "},"Ç":{"ha":839,"x_min":43,"x_max":804,"o":"m 544 -195 q 522 -146 544 -162 q 464 -131 500 -131 l 461 -131 l 502 -9 l 579 -9 l 552 -87 q 658 -122 620 -95 q 696 -196 696 -149 q 675 -268 696 -238 q 623 -317 654 -298 q 558 -345 593 -336 q 495 -353 523 -353 q 373 -323 435 -353 l 392 -272 q 454 -281 428 -281 q 544 -195 544 -281 m 593 229 q 637 232 617 229 q 678 239 658 234 q 719 251 698 243 q 766 269 740 258 l 804 48 q 541 -22 683 -22 q 195 114 339 -22 q 43 478 45 255 q 80 678 43 587 q 183 836 117 770 q 338 939 249 902 q 532 976 428 976 q 802 907 681 976 l 766 691 q 585 729 666 729 q 413 664 472 729 q 355 479 355 598 q 371 374 355 420 q 417 295 387 328 q 492 246 448 263 q 593 229 536 229 z "},"È":{"ha":826,"x_min":-35,"x_max":761,"o":"m 106 1493 l 513 1208 l 427 1059 l -35 1244 l 106 1493 m 91 955 l 761 955 l 761 745 l 427 745 l 427 571 l 732 571 l 732 396 l 427 396 l 427 209 l 761 209 l 761 0 l 91 0 l 91 955 z "},"É":{"ha":826,"x_min":91,"x_max":888,"o":"m 340 1208 l 747 1493 l 888 1244 l 426 1059 l 340 1208 m 91 955 l 761 955 l 761 745 l 427 745 l 427 571 l 732 571 l 732 396 l 427 396 l 427 209 l 761 209 l 761 0 l 91 0 l 91 955 z "},"Ê":{"ha":826,"x_min":91,"x_max":761,"o":"m 298 1404 l 554 1404 l 725 1059 l 494 1059 l 441 1206 l 425 1259 l 410 1206 l 357 1059 l 127 1059 l 298 1404 m 91 955 l 761 955 l 761 745 l 427 745 l 427 571 l 732 571 l 732 396 l 427 396 l 427 209 l 761 209 l 761 0 l 91 0 l 91 955 z "},"Ë":{"ha":826,"x_min":60,"x_max":791,"o":"m 479 1198 q 493 1255 479 1230 q 529 1300 507 1281 q 579 1329 551 1318 q 637 1339 607 1339 q 701 1327 672 1339 q 749 1294 729 1314 q 781 1249 770 1274 q 791 1198 791 1223 q 779 1142 791 1168 q 744 1098 766 1116 q 695 1069 723 1080 q 637 1059 667 1059 q 573 1070 602 1059 q 523 1101 544 1082 q 491 1145 503 1120 q 479 1198 479 1171 m 60 1198 q 73 1254 60 1228 q 108 1299 86 1280 q 158 1329 130 1318 q 216 1339 186 1339 q 277 1328 249 1339 q 327 1297 305 1316 q 360 1252 348 1277 q 372 1198 372 1226 q 359 1141 372 1167 q 324 1097 346 1116 q 274 1069 302 1079 q 216 1059 246 1059 q 156 1069 184 1059 q 106 1099 127 1080 q 73 1143 85 1118 q 60 1198 60 1168 m 91 955 l 761 955 l 761 745 l 427 745 l 427 571 l 732 571 l 732 396 l 427 396 l 427 209 l 761 209 l 761 0 l 91 0 l 91 955 z "},"Ì":{"ha":502,"x_min":-210,"x_max":411,"o":"m -69 1493 l 338 1208 l 252 1059 l -210 1244 l -69 1493 m 91 955 l 411 955 l 411 0 l 91 0 l 91 955 z "},"Í":{"ha":502,"x_min":91,"x_max":713,"o":"m 165 1208 l 572 1493 l 713 1244 l 251 1059 l 165 1208 m 91 955 l 411 955 l 411 0 l 91 0 l 91 955 z "},"Î":{"ha":502,"x_min":-47,"x_max":551,"o":"m 124 1404 l 380 1404 l 551 1059 l 321 1059 l 268 1206 l 252 1259 l 237 1206 l 184 1059 l -47 1059 l 124 1404 m 91 955 l 411 955 l 411 0 l 91 0 l 91 955 z "},"Ï":{"ha":502,"x_min":-113,"x_max":618,"o":"m 306 1198 q 319 1255 306 1230 q 355 1300 333 1281 q 405 1329 377 1318 q 463 1339 433 1339 q 527 1327 498 1339 q 576 1294 555 1314 q 607 1249 596 1274 q 618 1198 618 1223 q 605 1142 618 1168 q 571 1098 592 1116 q 521 1069 549 1080 q 463 1059 493 1059 q 399 1070 428 1059 q 350 1101 370 1082 q 317 1145 329 1120 q 306 1198 306 1171 m -113 1198 q -100 1254 -113 1228 q -66 1299 -87 1280 q -16 1329 -44 1318 q 43 1339 12 1339 q 103 1328 75 1339 q 153 1297 132 1316 q 186 1252 174 1277 q 199 1198 199 1226 q 185 1141 199 1167 q 151 1097 172 1116 q 101 1069 129 1079 q 43 1059 73 1059 q -18 1069 10 1059 q -67 1099 -46 1080 q -101 1143 -89 1118 q -113 1198 -113 1168 m 91 955 l 411 955 l 411 0 l 91 0 l 91 955 z "},"Ð":{"ha":1097,"x_min":2,"x_max":1053,"o":"m 2 419 l 2 537 l 127 537 l 127 933 l 542 933 q 749 899 655 933 q 911 803 844 864 q 1016 657 979 742 q 1053 473 1053 573 q 1037 343 1053 405 q 988 230 1020 282 q 911 135 957 177 q 809 62 866 92 q 685 16 753 33 q 542 0 618 0 l 127 0 l 127 419 l 2 419 m 542 250 q 625 267 588 250 q 688 316 662 285 q 727 388 713 347 q 741 476 741 429 q 726 560 741 522 q 684 626 711 598 q 621 668 658 653 q 542 684 585 684 l 433 684 l 433 537 l 543 537 l 543 419 l 433 419 l 433 250 l 542 250 z "},"Ñ":{"ha":1089,"x_min":91,"x_max":998,"o":"m 446 1136 q 418 1129 430 1136 q 398 1113 407 1123 q 383 1089 389 1102 q 372 1063 377 1076 l 208 1129 q 256 1232 229 1187 q 313 1307 282 1276 q 378 1354 344 1338 q 447 1371 412 1371 q 489 1363 468 1371 q 522 1351 511 1356 l 554 1332 q 559 1329 555 1331 q 567 1323 562 1326 l 596 1306 q 621 1297 608 1300 q 649 1293 633 1293 q 718 1356 696 1293 l 881 1289 q 782 1114 839 1169 q 654 1059 726 1059 q 607 1064 628 1059 q 569 1079 587 1070 q 536 1097 551 1087 q 507 1116 522 1107 q 477 1130 492 1124 q 446 1136 463 1136 m 91 955 l 369 955 l 750 441 l 750 955 l 998 955 l 998 0 l 720 0 l 338 498 l 338 0 l 91 0 l 91 955 z "},"Ò":{"ha":1108,"x_min":43,"x_max":1065,"o":"m 233 1493 l 640 1208 l 555 1059 l 92 1244 l 233 1493 m 43 476 q 175 825 43 683 q 555 976 315 976 q 766 938 671 976 q 926 834 860 901 q 1029 676 993 768 q 1065 476 1065 584 q 1050 349 1065 411 q 1005 231 1035 286 q 932 129 976 176 q 832 49 889 83 q 706 -3 776 16 q 555 -22 637 -22 q 400 -3 471 -22 q 273 50 330 16 q 173 131 216 84 q 101 233 130 178 q 58 350 73 288 q 43 476 43 412 m 555 231 q 646 253 608 231 q 708 312 684 276 q 743 391 732 347 q 754 477 754 435 q 740 578 754 532 q 700 657 726 624 q 637 711 674 691 q 555 732 600 730 q 463 708 500 731 q 400 649 425 685 q 365 567 376 612 q 354 477 354 522 q 368 379 354 425 q 408 301 382 334 q 471 250 434 269 q 555 231 509 231 z "},"Ó":{"ha":1108,"x_min":43,"x_max":1065,"o":"m 469 1208 l 876 1493 l 1017 1244 l 555 1059 l 469 1208 m 43 476 q 175 825 43 683 q 555 976 315 976 q 766 938 671 976 q 926 834 860 901 q 1029 676 993 768 q 1065 476 1065 584 q 1050 349 1065 411 q 1005 231 1035 286 q 932 129 976 176 q 832 49 889 83 q 706 -3 776 16 q 555 -22 637 -22 q 400 -3 471 -22 q 273 50 330 16 q 173 131 216 84 q 101 233 130 178 q 58 350 73 288 q 43 476 43 412 m 555 231 q 646 253 608 231 q 708 312 684 276 q 743 391 732 347 q 754 477 754 435 q 740 578 754 532 q 700 657 726 624 q 637 711 674 691 q 555 732 600 730 q 463 708 500 731 q 400 649 425 685 q 365 567 376 612 q 354 477 354 522 q 368 379 354 425 q 408 301 382 334 q 471 250 434 269 q 555 231 509 231 z "},"Ô":{"ha":1108,"x_min":43,"x_max":1065,"o":"m 427 1404 l 683 1404 l 854 1059 l 623 1059 l 570 1206 l 554 1259 l 539 1206 l 486 1059 l 256 1059 l 427 1404 m 43 476 q 175 825 43 683 q 555 976 315 976 q 766 938 671 976 q 926 834 860 901 q 1029 676 993 768 q 1065 476 1065 584 q 1050 349 1065 411 q 1005 231 1035 286 q 932 129 976 176 q 832 49 889 83 q 706 -3 776 16 q 555 -22 637 -22 q 400 -3 471 -22 q 273 50 330 16 q 173 131 216 84 q 101 233 130 178 q 58 350 73 288 q 43 476 43 412 m 555 231 q 646 253 608 231 q 708 312 684 276 q 743 391 732 347 q 754 477 754 435 q 740 578 754 532 q 700 657 726 624 q 637 711 674 691 q 555 732 600 730 q 463 708 500 731 q 400 649 425 685 q 365 567 376 612 q 354 477 354 522 q 368 379 354 425 q 408 301 382 334 q 471 250 434 269 q 555 231 509 231 z "},"Õ":{"ha":1108,"x_min":43,"x_max":1065,"o":"m 456 1136 q 429 1129 440 1136 q 408 1113 417 1123 q 393 1089 399 1102 q 382 1063 387 1076 l 218 1129 q 266 1232 239 1187 q 323 1307 292 1276 q 388 1354 354 1338 q 457 1371 422 1371 q 499 1363 478 1371 q 532 1351 521 1356 l 564 1332 q 569 1329 566 1331 q 577 1323 572 1326 l 606 1306 q 631 1297 618 1300 q 659 1293 644 1293 q 728 1356 707 1293 l 891 1289 q 792 1114 849 1169 q 665 1059 736 1059 q 617 1064 638 1059 q 579 1079 597 1070 q 547 1097 562 1087 q 517 1116 532 1107 q 488 1130 503 1124 q 456 1136 473 1136 m 43 476 q 175 825 43 683 q 555 976 315 976 q 766 938 671 976 q 926 834 860 901 q 1029 676 993 768 q 1065 476 1065 584 q 1050 349 1065 411 q 1005 231 1035 286 q 932 129 976 176 q 832 49 889 83 q 706 -3 776 16 q 555 -22 637 -22 q 400 -3 471 -22 q 273 50 330 16 q 173 131 216 84 q 101 233 130 178 q 58 350 73 288 q 43 476 43 412 m 555 231 q 646 253 608 231 q 708 312 684 276 q 743 391 732 347 q 754 477 754 435 q 740 578 754 532 q 700 657 726 624 q 637 711 674 691 q 555 732 600 730 q 463 708 500 731 q 400 649 425 685 q 365 567 376 612 q 354 477 354 522 q 368 379 354 425 q 408 301 382 334 q 471 250 434 269 q 555 231 509 231 z "},"Ö":{"ha":1108,"x_min":43,"x_max":1065,"o":"m 608 1198 q 622 1255 608 1230 q 657 1300 635 1281 q 708 1329 680 1318 q 766 1339 736 1339 q 829 1327 801 1339 q 878 1294 858 1314 q 909 1249 899 1274 q 920 1198 920 1223 q 907 1142 920 1168 q 873 1098 895 1116 q 824 1069 852 1080 q 766 1059 795 1059 q 702 1070 730 1059 q 652 1101 673 1082 q 620 1145 631 1120 q 608 1198 608 1171 m 189 1198 q 202 1254 189 1228 q 237 1299 215 1280 q 287 1329 258 1318 q 345 1339 315 1339 q 406 1328 378 1339 q 455 1297 434 1316 q 489 1252 477 1277 q 501 1198 501 1226 q 488 1141 501 1167 q 453 1097 475 1116 q 403 1069 431 1079 q 345 1059 375 1059 q 284 1069 313 1059 q 235 1099 256 1080 q 201 1143 214 1118 q 189 1198 189 1168 m 43 476 q 175 825 43 683 q 555 976 315 976 q 766 938 671 976 q 926 834 860 901 q 1029 676 993 768 q 1065 476 1065 584 q 1050 349 1065 411 q 1005 231 1035 286 q 932 129 976 176 q 832 49 889 83 q 706 -3 776 16 q 555 -22 637 -22 q 400 -3 471 -22 q 273 50 330 16 q 173 131 216 84 q 101 233 130 178 q 58 350 73 288 q 43 476 43 412 m 555 231 q 646 253 608 231 q 708 312 684 276 q 743 391 732 347 q 754 477 754 435 q 740 578 754 532 q 700 657 726 624 q 637 711 674 691 q 555 732 600 730 q 463 708 500 731 q 400 649 425 685 q 365 567 376 612 q 354 477 354 522 q 368 379 354 425 q 408 301 382 334 q 471 250 434 269 q 555 231 509 231 z "},"×":{"ha":638,"x_min":45,"x_max":594,"o":"m 262 349 l 45 567 l 102 624 l 320 407 l 537 624 l 594 567 l 378 349 l 589 137 l 533 83 l 320 294 l 106 83 l 50 137 l 262 349 z "},"Ø":{"ha":1109,"x_min":44,"x_max":1065,"o":"m 555 976 q 598 975 577 976 q 640 970 620 973 l 683 1137 l 778 1137 l 730 951 q 867 883 805 927 q 973 779 928 840 q 1041 641 1017 718 q 1065 476 1065 565 q 1050 348 1065 410 q 1006 230 1036 286 q 933 129 977 175 q 833 49 890 83 q 707 -3 777 16 q 555 -22 637 -22 q 481 -18 516 -22 l 426 -231 l 334 -231 l 393 0 q 250 66 314 22 q 140 172 186 110 q 69 310 94 233 q 44 476 44 387 q 176 825 44 683 q 555 976 317 976 m 578 730 q 572 730 578 730 q 555 732 566 731 q 468 710 505 732 q 405 654 430 689 q 367 573 380 618 q 355 477 355 527 q 382 345 355 401 q 458 257 409 288 l 578 730 m 555 231 q 647 253 609 231 q 708 312 684 276 q 744 391 732 347 q 755 477 755 435 q 731 607 755 551 q 664 694 707 662 l 545 231 l 555 231 z "},"Ù":{"ha":1108,"x_min":82,"x_max":1026,"o":"m 233 1493 l 640 1208 l 554 1059 l 92 1244 l 233 1493 m 554 229 q 672 272 632 229 q 713 396 713 314 l 713 955 l 1026 955 l 1026 396 q 1007 263 1026 323 q 954 158 987 204 q 875 77 920 111 q 777 21 829 43 q 667 -11 724 -1 q 554 -22 610 -22 q 227 84 361 -22 q 82 396 82 197 l 82 955 l 395 955 l 395 396 q 554 229 395 229 z "},"Ú":{"ha":1108,"x_min":82,"x_max":1026,"o":"m 469 1208 l 876 1493 l 1017 1244 l 554 1059 l 469 1208 m 554 229 q 672 272 632 229 q 713 396 713 314 l 713 955 l 1026 955 l 1026 396 q 1007 263 1026 323 q 954 158 987 204 q 875 77 920 111 q 777 21 829 43 q 667 -11 724 -1 q 554 -22 610 -22 q 227 84 361 -22 q 82 396 82 197 l 82 955 l 395 955 l 395 396 q 554 229 395 229 z "},"Û":{"ha":1108,"x_min":82,"x_max":1026,"o":"m 426 1404 l 682 1404 l 853 1059 l 623 1059 l 570 1206 l 553 1259 l 538 1206 l 486 1059 l 255 1059 l 426 1404 m 554 229 q 672 272 632 229 q 713 396 713 314 l 713 955 l 1026 955 l 1026 396 q 1007 263 1026 323 q 954 158 987 204 q 875 77 920 111 q 777 21 829 43 q 667 -11 724 -1 q 554 -22 610 -22 q 227 84 361 -22 q 82 396 82 197 l 82 955 l 395 955 l 395 396 q 554 229 395 229 z "},"Ü":{"ha":1108,"x_min":82,"x_max":1026,"o":"m 608 1198 q 621 1255 608 1230 q 657 1300 635 1281 q 707 1329 679 1318 q 765 1339 735 1339 q 829 1327 800 1339 q 878 1294 857 1314 q 909 1249 898 1274 q 920 1198 920 1223 q 907 1142 920 1168 q 872 1098 894 1116 q 823 1069 851 1080 q 765 1059 795 1059 q 701 1070 730 1059 q 651 1101 672 1082 q 619 1145 631 1120 q 608 1198 608 1171 m 189 1198 q 201 1254 189 1228 q 236 1299 214 1280 q 286 1329 258 1318 q 345 1339 314 1339 q 405 1328 377 1339 q 455 1297 433 1316 q 488 1252 476 1277 q 500 1198 500 1226 q 487 1141 500 1167 q 452 1097 474 1116 q 402 1069 431 1079 q 345 1059 374 1059 q 284 1069 312 1059 q 234 1099 256 1080 q 201 1143 213 1118 q 189 1198 189 1168 m 554 229 q 672 272 632 229 q 713 396 713 314 l 713 955 l 1026 955 l 1026 396 q 1007 263 1026 323 q 954 158 987 204 q 875 77 920 111 q 777 21 829 43 q 667 -11 724 -1 q 554 -22 610 -22 q 227 84 361 -22 q 82 396 82 197 l 82 955 l 395 955 l 395 396 q 554 229 395 229 z "},"Ý":{"ha":850,"x_min":-4,"x_max":890,"o":"m 342 1208 l 749 1493 l 890 1244 l 427 1059 l 342 1208 m 271 266 l -4 955 l 286 955 l 420 526 l 553 955 l 859 955 l 570 266 l 570 0 l 271 0 l 271 266 z "},"Þ":{"ha":905,"x_min":91,"x_max":883,"o":"m 91 955 l 389 955 l 389 859 l 435 859 q 626 838 543 859 q 766 776 709 817 q 853 676 823 735 q 883 543 883 618 q 850 413 883 471 q 758 315 817 355 q 620 252 700 274 q 448 231 541 231 l 389 231 l 389 0 l 91 0 l 91 955 m 449 423 q 562 453 519 423 q 604 543 604 483 q 591 592 604 570 q 558 629 579 614 q 510 651 538 644 q 449 659 481 659 l 389 659 l 389 426 q 415 424 400 425 q 449 423 429 423 z "},"ß":{"ha":982,"x_min":72,"x_max":956,"o":"m 471 792 q 398 767 425 792 q 370 699 370 741 l 370 0 l 72 -22 l 72 749 q 102 839 72 798 q 186 911 133 881 q 314 959 240 942 q 473 977 387 977 q 607 961 543 977 q 718 915 670 945 q 795 841 766 885 q 823 742 823 798 q 795 628 823 676 q 719 552 766 581 q 811 511 768 538 q 887 447 854 484 q 938 366 919 410 q 956 271 956 321 q 922 120 956 183 q 829 16 887 57 q 697 -43 772 -24 q 543 -62 623 -62 q 523 -62 535 -62 q 496 -62 510 -62 q 470 -61 482 -62 q 450 -61 457 -61 l 450 163 q 485 161 468 161 q 518 160 501 160 q 577 172 551 160 q 621 205 604 184 q 648 255 639 226 q 658 317 658 283 q 646 372 658 346 q 612 421 635 399 q 556 460 590 443 q 477 487 522 477 l 477 616 q 523 629 502 620 q 559 650 544 637 q 584 678 575 662 q 593 712 593 694 q 583 748 593 732 q 556 773 573 763 q 517 787 539 783 q 471 792 495 792 z "},"à":{"ha":966,"x_min":35,"x_max":895,"o":"m 339 1233 l 746 948 l 661 799 l 198 985 l 339 1233 m 604 129 q 515 25 571 61 q 376 -11 460 -11 q 246 17 308 -11 q 138 93 184 44 q 63 208 91 141 q 35 352 35 274 q 63 494 35 429 q 139 607 92 559 q 247 680 186 654 q 376 706 309 706 q 444 697 410 706 q 508 668 477 688 q 563 617 538 648 q 604 544 587 587 l 604 706 l 895 706 l 895 0 l 604 0 l 604 129 m 604 353 q 591 404 602 380 q 561 447 579 429 q 517 475 542 465 q 467 486 493 486 q 411 474 437 486 q 367 445 386 463 q 338 401 349 426 q 327 347 327 376 q 338 292 327 317 q 369 248 350 267 q 414 219 389 230 q 467 209 439 209 q 519 220 495 209 q 562 249 544 231 q 591 291 581 267 q 604 342 602 315 l 604 353 z "},"á":{"ha":966,"x_min":35,"x_max":952,"o":"m 404 948 l 811 1233 l 952 985 l 490 799 l 404 948 m 604 129 q 515 25 571 61 q 376 -11 460 -11 q 246 17 308 -11 q 138 93 184 44 q 63 208 91 141 q 35 352 35 274 q 63 494 35 429 q 139 607 92 559 q 247 680 186 654 q 376 706 309 706 q 444 697 410 706 q 508 668 477 688 q 563 617 538 648 q 604 544 587 587 l 604 706 l 895 706 l 895 0 l 604 0 l 604 129 m 604 353 q 591 404 602 380 q 561 447 579 429 q 517 475 542 465 q 467 486 493 486 q 411 474 437 486 q 367 445 386 463 q 338 401 349 426 q 327 347 327 376 q 338 292 327 317 q 369 248 350 267 q 414 219 389 230 q 467 209 439 209 q 519 220 495 209 q 562 249 544 231 q 591 291 581 267 q 604 342 602 315 l 604 353 z "},"â":{"ha":966,"x_min":35,"x_max":895,"o":"m 361 1145 l 618 1145 l 789 799 l 558 799 l 505 947 l 489 1000 l 474 947 l 421 799 l 191 799 l 361 1145 m 604 129 q 515 25 571 61 q 376 -11 460 -11 q 246 17 308 -11 q 138 93 184 44 q 63 208 91 141 q 35 352 35 274 q 63 494 35 429 q 139 607 92 559 q 247 680 186 654 q 376 706 309 706 q 444 697 410 706 q 508 668 477 688 q 563 617 538 648 q 604 544 587 587 l 604 706 l 895 706 l 895 0 l 604 0 l 604 129 m 604 353 q 591 404 602 380 q 561 447 579 429 q 517 475 542 465 q 467 486 493 486 q 411 474 437 486 q 367 445 386 463 q 338 401 349 426 q 327 347 327 376 q 338 292 327 317 q 369 248 350 267 q 414 219 389 230 q 467 209 439 209 q 519 220 495 209 q 562 249 544 231 q 591 291 581 267 q 604 342 602 315 l 604 353 z "},"ã":{"ha":966,"x_min":35,"x_max":895,"o":"m 391 876 q 363 870 375 876 q 343 853 352 863 q 328 829 334 842 q 317 803 322 816 l 153 869 q 201 972 174 927 q 258 1047 227 1017 q 323 1095 289 1078 q 392 1111 357 1111 q 434 1104 413 1111 q 467 1091 456 1097 l 499 1072 q 504 1069 500 1071 q 512 1063 507 1067 l 541 1046 q 566 1037 553 1040 q 594 1034 578 1034 q 663 1096 642 1034 l 826 1029 q 727 854 784 909 q 600 799 671 799 q 552 805 573 799 q 514 819 532 810 q 481 838 496 827 q 452 856 467 848 q 422 870 437 865 q 391 876 408 876 m 604 129 q 515 25 571 61 q 376 -11 460 -11 q 246 17 308 -11 q 138 93 184 44 q 63 208 91 141 q 35 352 35 274 q 63 494 35 429 q 139 607 92 559 q 247 680 186 654 q 376 706 309 706 q 444 697 410 706 q 508 668 477 688 q 563 617 538 648 q 604 544 587 587 l 604 706 l 895 706 l 895 0 l 604 0 l 604 129 m 604 353 q 591 404 602 380 q 561 447 579 429 q 517 475 542 465 q 467 486 493 486 q 411 474 437 486 q 367 445 386 463 q 338 401 349 426 q 327 347 327 376 q 338 292 327 317 q 369 248 350 267 q 414 219 389 230 q 467 209 439 209 q 519 220 495 209 q 562 249 544 231 q 591 291 581 267 q 604 342 602 315 l 604 353 z "},"ä":{"ha":966,"x_min":35,"x_max":895,"o":"m 543 939 q 557 996 543 970 q 592 1040 570 1021 q 643 1069 614 1059 q 701 1080 671 1080 q 764 1067 736 1080 q 813 1034 793 1055 q 844 989 833 1014 q 855 939 855 964 q 842 882 855 908 q 808 838 829 857 q 759 809 787 820 q 701 799 730 799 q 636 810 665 799 q 587 841 608 822 q 555 886 566 861 q 543 939 543 911 m 124 939 q 137 994 124 968 q 172 1039 150 1020 q 221 1069 193 1058 q 280 1080 250 1080 q 341 1068 313 1080 q 390 1037 369 1057 q 424 992 412 1017 q 436 939 436 966 q 423 882 436 907 q 388 838 410 856 q 338 809 366 819 q 280 799 310 799 q 219 810 248 799 q 170 839 191 821 q 136 883 149 858 q 124 939 124 909 m 604 129 q 515 25 571 61 q 376 -11 460 -11 q 246 17 308 -11 q 138 93 184 44 q 63 208 91 141 q 35 352 35 274 q 63 494 35 429 q 139 607 92 559 q 247 680 186 654 q 376 706 309 706 q 444 697 410 706 q 508 668 477 688 q 563 617 538 648 q 604 544 587 587 l 604 706 l 895 706 l 895 0 l 604 0 l 604 129 m 604 353 q 591 404 602 380 q 561 447 579 429 q 517 475 542 465 q 467 486 493 486 q 411 474 437 486 q 367 445 386 463 q 338 401 349 426 q 327 347 327 376 q 338 292 327 317 q 369 248 350 267 q 414 219 389 230 q 467 209 439 209 q 519 220 495 209 q 562 249 544 231 q 591 291 581 267 q 604 342 602 315 l 604 353 z "},"å":{"ha":966,"x_min":35,"x_max":895,"o":"m 488 1123 q 454 1117 469 1123 q 428 1099 439 1110 q 411 1071 417 1087 q 405 1036 405 1055 q 429 975 405 998 q 490 952 453 952 q 550 975 529 952 q 570 1036 570 998 q 548 1099 570 1075 q 488 1123 525 1123 m 252 1036 q 270 1135 252 1091 q 319 1211 288 1179 q 395 1259 351 1242 q 490 1276 439 1276 q 591 1257 547 1276 q 665 1206 635 1238 q 712 1129 696 1173 q 728 1036 728 1086 q 710 938 728 982 q 661 864 692 895 q 586 816 629 833 q 490 799 542 799 q 393 816 437 799 q 318 865 349 833 q 269 940 286 897 q 252 1036 252 984 m 604 129 q 515 25 571 61 q 376 -11 460 -11 q 246 17 308 -11 q 138 93 184 44 q 63 208 91 141 q 35 352 35 274 q 63 494 35 429 q 139 607 92 559 q 247 680 186 654 q 376 706 309 706 q 444 697 410 706 q 508 668 477 688 q 563 617 538 648 q 604 544 587 587 l 604 706 l 895 706 l 895 0 l 604 0 l 604 129 m 604 353 q 591 404 602 380 q 561 447 579 429 q 517 475 542 465 q 467 486 493 486 q 411 474 437 486 q 367 445 386 463 q 338 401 349 426 q 327 347 327 376 q 338 292 327 317 q 369 248 350 267 q 414 219 389 230 q 467 209 439 209 q 519 220 495 209 q 562 249 544 231 q 591 291 581 267 q 604 342 602 315 l 604 353 z "},"æ":{"ha":1466,"x_min":35,"x_max":1436,"o":"m 1407 35 q 1083 -22 1261 -22 q 1030 -16 1057 -22 q 977 -1 1004 -11 q 924 25 949 9 q 875 61 898 41 l 875 0 l 604 -22 l 604 129 q 565 67 587 95 q 515 20 543 39 q 451 -11 486 0 q 374 -22 416 -22 q 245 7 307 -22 q 137 87 184 37 q 63 206 90 138 q 35 352 35 274 q 63 496 35 429 q 139 612 92 563 q 247 688 186 661 q 376 716 309 716 q 444 705 410 716 q 508 673 477 694 q 563 619 538 651 q 604 544 587 587 l 604 716 l 875 696 l 875 635 q 1094 716 963 716 q 1235 690 1172 716 q 1343 618 1298 665 q 1412 507 1388 572 q 1436 365 1436 443 q 1435 347 1436 355 q 1433 330 1434 338 l 976 275 q 1148 178 1013 178 q 1373 227 1255 178 l 1407 35 m 604 353 q 591 404 602 380 q 561 447 579 429 q 517 475 542 465 q 467 486 493 486 q 411 474 437 486 q 367 445 386 463 q 338 401 349 426 q 327 347 327 376 q 338 292 327 317 q 369 248 350 267 q 414 219 389 230 q 467 209 439 209 q 519 220 495 209 q 562 249 544 231 q 591 291 581 267 q 604 342 602 315 l 604 353 m 1220 450 q 1174 514 1206 492 q 1094 537 1141 537 q 1000 500 1034 537 q 964 403 966 464 l 1220 450 z "},"ç":{"ha":655,"x_min":35,"x_max":625,"o":"m 416 -195 q 394 -146 416 -162 q 336 -131 372 -131 l 333 -131 l 374 -9 l 451 -9 l 424 -87 q 530 -122 492 -95 q 568 -196 568 -149 q 547 -268 568 -238 q 495 -317 526 -298 q 430 -345 465 -336 q 367 -353 395 -353 q 245 -323 307 -353 l 264 -272 q 326 -281 300 -281 q 416 -195 416 -281 m 598 465 q 463 488 525 488 q 405 478 431 488 q 362 450 380 468 q 334 405 344 431 q 324 347 324 379 q 334 289 324 315 q 362 244 344 263 q 407 215 380 225 q 465 205 433 205 q 595 228 527 205 l 623 34 q 520 -2 570 7 q 412 -11 471 -11 q 261 15 330 -11 q 142 87 192 41 q 63 200 92 134 q 35 347 35 267 q 66 494 35 428 q 148 607 96 560 q 269 680 200 654 q 412 706 337 706 q 472 704 446 706 q 524 695 499 701 q 572 677 548 688 q 625 650 597 667 l 598 465 z "},"è":{"ha":772,"x_min":35,"x_max":741,"o":"m 246 1233 l 653 948 l 568 799 l 105 985 l 246 1233 m 473 184 q 678 233 568 184 l 712 46 q 429 -11 586 -11 q 269 16 341 -11 q 145 91 197 43 q 64 204 93 138 q 35 347 35 270 q 65 495 35 429 q 148 608 96 561 q 270 681 200 655 q 419 706 340 706 q 559 679 499 706 q 660 606 620 652 q 721 497 701 559 q 741 365 741 435 q 740 347 741 355 q 738 330 739 338 l 321 275 q 376 205 338 227 q 473 184 414 184 m 525 450 q 419 537 501 537 q 373 527 393 537 q 339 499 353 517 q 317 456 325 481 q 309 403 310 431 l 525 450 z "},"é":{"ha":772,"x_min":35,"x_max":741,"o":"m 167 948 l 574 1233 l 715 985 l 252 799 l 167 948 m 473 184 q 678 233 568 184 l 712 46 q 429 -11 586 -11 q 269 16 341 -11 q 145 91 197 43 q 64 204 93 138 q 35 347 35 270 q 65 495 35 429 q 148 608 96 561 q 270 681 200 655 q 419 706 340 706 q 559 679 499 706 q 660 606 620 652 q 721 497 701 559 q 741 365 741 435 q 740 347 741 355 q 738 330 739 338 l 321 275 q 376 205 338 227 q 473 184 414 184 m 525 450 q 419 537 501 537 q 373 527 393 537 q 339 499 353 517 q 317 456 325 481 q 309 403 310 431 l 525 450 z "},"ê":{"ha":772,"x_min":35,"x_max":741,"o":"m 291 1145 l 547 1145 l 718 799 l 488 799 l 435 947 l 418 1000 l 404 947 l 351 799 l 120 799 l 291 1145 m 473 184 q 678 233 568 184 l 712 46 q 429 -11 586 -11 q 269 16 341 -11 q 145 91 197 43 q 64 204 93 138 q 35 347 35 270 q 65 495 35 429 q 148 608 96 561 q 270 681 200 655 q 419 706 340 706 q 559 679 499 706 q 660 606 620 652 q 721 497 701 559 q 741 365 741 435 q 740 347 741 355 q 738 330 739 338 l 321 275 q 376 205 338 227 q 473 184 414 184 m 525 450 q 419 537 501 537 q 373 527 393 537 q 339 499 353 517 q 317 456 325 481 q 309 403 310 431 l 525 450 z "},"ë":{"ha":772,"x_min":35,"x_max":786,"o":"m 474 939 q 488 996 474 970 q 523 1040 501 1021 q 573 1069 545 1059 q 631 1080 602 1080 q 695 1067 667 1080 q 744 1034 724 1055 q 775 989 764 1014 q 786 939 786 964 q 773 882 786 908 q 739 838 760 857 q 689 809 718 820 q 631 799 661 799 q 567 810 596 799 q 518 841 538 822 q 486 886 497 861 q 474 939 474 911 m 55 939 q 68 994 55 968 q 102 1039 81 1020 q 152 1069 124 1058 q 211 1080 180 1080 q 272 1068 243 1080 q 321 1037 300 1057 q 355 992 342 1017 q 367 939 367 966 q 354 882 367 907 q 319 838 340 856 q 269 809 297 819 q 211 799 241 799 q 150 810 178 799 q 101 839 122 821 q 67 883 79 858 q 55 939 55 909 m 473 184 q 678 233 568 184 l 712 46 q 429 -11 586 -11 q 269 16 341 -11 q 145 91 197 43 q 64 204 93 138 q 35 347 35 270 q 65 495 35 429 q 148 608 96 561 q 270 681 200 655 q 419 706 340 706 q 559 679 499 706 q 660 606 620 652 q 721 497 701 559 q 741 365 741 435 q 740 347 741 355 q 738 330 739 338 l 321 275 q 376 205 338 227 q 473 184 414 184 m 525 450 q 419 537 501 537 q 373 527 393 537 q 339 499 353 517 q 317 456 325 481 q 309 403 310 431 l 525 450 z "},"ì":{"ha":507,"x_min":-56,"x_max":496,"o":"m 85 1233 l 492 948 l 407 799 l -56 985 l 85 1233 m 496 26 q 314 -22 414 -22 q 209 -2 255 -22 q 131 54 163 18 q 83 142 100 90 q 67 256 67 193 l 67 696 l 361 696 l 361 270 q 379 220 361 237 q 424 203 397 203 q 481 220 451 203 l 496 26 z "},"í":{"ha":507,"x_min":67,"x_max":616,"o":"m 68 948 l 475 1233 l 616 985 l 153 799 l 68 948 m 496 26 q 314 -22 414 -22 q 209 -2 255 -22 q 131 54 163 18 q 83 142 100 90 q 67 256 67 193 l 67 696 l 361 696 l 361 270 q 379 220 361 237 q 424 203 397 203 q 481 220 451 203 l 496 26 z "},"î":{"ha":507,"x_min":-83,"x_max":515,"o":"m 87 1145 l 344 1145 l 515 799 l 284 799 l 231 947 l 215 1000 l 200 947 l 147 799 l -83 799 l 87 1145 m 496 26 q 314 -22 414 -22 q 209 -2 255 -22 q 131 54 163 18 q 83 142 100 90 q 67 256 67 193 l 67 696 l 361 696 l 361 270 q 379 220 361 237 q 424 203 397 203 q 481 220 451 203 l 496 26 z "},"ï":{"ha":507,"x_min":-150,"x_max":581,"o":"m 269 939 q 283 996 269 970 q 318 1040 296 1021 q 369 1069 340 1059 q 427 1080 397 1080 q 490 1067 462 1080 q 539 1034 519 1055 q 570 989 559 1014 q 581 939 581 964 q 568 882 581 908 q 534 838 555 857 q 485 809 513 820 q 427 799 456 799 q 362 810 391 799 q 313 841 334 822 q 281 886 292 861 q 269 939 269 911 m -150 939 q -137 994 -150 968 q -102 1039 -124 1020 q -53 1069 -81 1058 q 6 1080 -24 1080 q 67 1068 39 1080 q 116 1037 95 1057 q 150 992 138 1017 q 162 939 162 966 q 149 882 162 907 q 114 838 136 856 q 64 809 92 819 q 6 799 36 799 q -55 810 -26 799 q -104 839 -83 821 q -138 883 -125 858 q -150 939 -150 909 m 496 26 q 314 -22 414 -22 q 209 -2 255 -22 q 131 54 163 18 q 83 142 100 90 q 67 256 67 193 l 67 696 l 361 696 l 361 270 q 379 220 361 237 q 424 203 397 203 q 481 220 451 203 l 496 26 z "},"ð":{"ha":898,"x_min":22,"x_max":877,"o":"m 793 748 q 856 468 856 627 q 825 267 856 357 q 738 112 794 176 q 604 13 682 48 q 429 -22 525 -22 q 262 2 337 -22 q 134 68 187 26 q 52 171 81 111 q 22 301 22 230 q 47 427 22 372 q 116 520 71 482 q 224 577 161 557 q 366 597 288 597 q 548 534 471 597 q 517 650 538 608 l 417 614 l 386 692 l 457 718 q 393 732 428 732 q 163 696 306 732 l 90 902 q 429 977 264 977 q 747 821 627 977 l 846 856 l 877 778 l 793 748 m 429 205 q 479 219 458 205 q 513 258 500 233 q 535 314 527 282 q 547 382 543 347 q 422 403 492 403 q 379 396 399 403 q 344 375 359 389 q 320 343 329 362 q 312 301 312 324 q 321 261 312 279 q 345 230 330 243 q 381 211 360 218 q 429 205 403 205 z "},"ñ":{"ha":954,"x_min":69,"x_max":888,"o":"m 380 876 q 353 870 364 876 q 332 853 341 863 q 317 829 323 842 q 307 803 311 816 l 142 869 q 190 972 163 927 q 247 1047 216 1017 q 312 1095 278 1078 q 381 1111 346 1111 q 424 1104 402 1111 q 456 1091 445 1097 l 488 1072 q 493 1069 490 1071 q 501 1063 496 1067 l 530 1046 q 555 1037 543 1040 q 583 1034 568 1034 q 652 1096 631 1034 l 815 1029 q 716 854 773 909 q 589 799 660 799 q 542 805 562 799 q 503 819 521 810 q 471 838 486 827 q 441 856 456 848 q 412 870 427 865 q 380 876 397 876 m 69 686 l 349 686 l 349 544 q 453 666 389 626 q 604 706 517 706 q 726 680 673 706 q 815 607 779 654 q 870 494 851 560 q 888 347 888 428 l 888 0 l 597 0 l 597 376 q 592 426 597 403 q 575 466 587 449 q 547 491 564 482 q 506 500 530 500 q 451 486 476 500 q 407 450 426 471 q 377 407 389 429 q 362 368 366 384 l 362 0 l 69 0 l 69 686 z "},"ò":{"ha":871,"x_min":35,"x_max":836,"o":"m 307 1233 l 713 948 l 628 799 l 165 985 l 307 1233 m 307 349 q 318 282 307 311 q 347 235 329 254 q 389 206 366 216 q 437 197 413 197 q 485 206 462 197 q 527 235 509 216 q 557 282 546 254 q 568 349 568 311 q 557 415 568 387 q 527 462 546 444 q 485 490 509 481 q 437 500 462 500 q 389 490 413 500 q 347 462 366 481 q 318 415 329 444 q 307 349 307 387 m 35 349 q 72 503 39 436 q 159 614 104 569 q 284 683 213 660 q 437 706 356 706 q 598 680 525 706 q 724 606 671 653 q 806 493 777 559 q 836 349 836 427 q 819 233 836 285 q 774 142 802 182 q 707 73 745 102 q 623 25 668 44 q 531 -2 578 7 q 435 -11 483 -11 q 272 15 346 -11 q 146 89 199 41 q 64 202 93 136 q 35 349 35 269 z "},"ó":{"ha":871,"x_min":35,"x_max":836,"o":"m 191 948 l 597 1233 l 739 985 l 276 799 l 191 948 m 307 349 q 318 282 307 311 q 347 235 329 254 q 389 206 366 216 q 437 197 413 197 q 485 206 462 197 q 527 235 509 216 q 557 282 546 254 q 568 349 568 311 q 557 415 568 387 q 527 462 546 444 q 485 490 509 481 q 437 500 462 500 q 389 490 413 500 q 347 462 366 481 q 318 415 329 444 q 307 349 307 387 m 35 349 q 72 503 39 436 q 159 614 104 569 q 284 683 213 660 q 437 706 356 706 q 598 680 525 706 q 724 606 671 653 q 806 493 777 559 q 836 349 836 427 q 819 233 836 285 q 774 142 802 182 q 707 73 745 102 q 623 25 668 44 q 531 -2 578 7 q 435 -11 483 -11 q 272 15 346 -11 q 146 89 199 41 q 64 202 93 136 q 35 349 35 269 z "},"ô":{"ha":871,"x_min":35,"x_max":836,"o":"m 309 1145 l 565 1145 l 736 799 l 505 799 l 452 947 l 436 1000 l 421 947 l 368 799 l 138 799 l 309 1145 m 307 349 q 318 282 307 311 q 347 235 329 254 q 389 206 366 216 q 437 197 413 197 q 485 206 462 197 q 527 235 509 216 q 557 282 546 254 q 568 349 568 311 q 557 415 568 387 q 527 462 546 444 q 485 490 509 481 q 437 500 462 500 q 389 490 413 500 q 347 462 366 481 q 318 415 329 444 q 307 349 307 387 m 35 349 q 72 503 39 436 q 159 614 104 569 q 284 683 213 660 q 437 706 356 706 q 598 680 525 706 q 724 606 671 653 q 806 493 777 559 q 836 349 836 427 q 819 233 836 285 q 774 142 802 182 q 707 73 745 102 q 623 25 668 44 q 531 -2 578 7 q 435 -11 483 -11 q 272 15 346 -11 q 146 89 199 41 q 64 202 93 136 q 35 349 35 269 z "},"õ":{"ha":871,"x_min":35,"x_max":836,"o":"m 338 876 q 311 870 322 876 q 290 853 299 863 q 275 829 281 842 q 264 803 269 816 l 100 869 q 148 972 121 927 q 205 1047 174 1017 q 270 1095 236 1078 q 339 1111 304 1111 q 381 1104 360 1111 q 414 1091 403 1097 l 446 1072 q 451 1069 448 1071 q 459 1063 454 1067 l 488 1046 q 513 1037 500 1040 q 541 1034 526 1034 q 610 1096 589 1034 l 773 1029 q 674 854 731 909 q 547 799 618 799 q 499 805 520 799 q 461 819 479 810 q 429 838 444 827 q 399 856 414 848 q 370 870 385 865 q 338 876 355 876 m 307 349 q 318 282 307 311 q 347 235 329 254 q 389 206 366 216 q 437 197 413 197 q 485 206 462 197 q 527 235 509 216 q 557 282 546 254 q 568 349 568 311 q 557 415 568 387 q 527 462 546 444 q 485 490 509 481 q 437 500 462 500 q 389 490 413 500 q 347 462 366 481 q 318 415 329 444 q 307 349 307 387 m 35 349 q 72 503 39 436 q 159 614 104 569 q 284 683 213 660 q 437 706 356 706 q 598 680 525 706 q 724 606 671 653 q 806 493 777 559 q 836 349 836 427 q 819 233 836 285 q 774 142 802 182 q 707 73 745 102 q 623 25 668 44 q 531 -2 578 7 q 435 -11 483 -11 q 272 15 346 -11 q 146 89 199 41 q 64 202 93 136 q 35 349 35 269 z "},"ö":{"ha":871,"x_min":35,"x_max":836,"o":"m 490 939 q 504 996 490 970 q 539 1040 517 1021 q 590 1069 562 1059 q 648 1080 618 1080 q 711 1067 683 1080 q 760 1034 740 1055 q 791 989 781 1014 q 802 939 802 964 q 789 882 802 908 q 755 838 777 857 q 706 809 734 820 q 648 799 677 799 q 584 810 612 799 q 534 841 555 822 q 502 886 513 861 q 490 939 490 911 m 71 939 q 84 994 71 968 q 119 1039 97 1020 q 169 1069 140 1058 q 227 1080 197 1080 q 288 1068 260 1080 q 337 1037 316 1057 q 371 992 359 1017 q 383 939 383 966 q 370 882 383 907 q 335 838 357 856 q 285 809 313 819 q 227 799 257 799 q 166 810 195 799 q 117 839 138 821 q 83 883 96 858 q 71 939 71 909 m 307 349 q 318 282 307 311 q 347 235 329 254 q 389 206 366 216 q 437 197 413 197 q 485 206 462 197 q 527 235 509 216 q 557 282 546 254 q 568 349 568 311 q 557 415 568 387 q 527 462 546 444 q 485 490 509 481 q 437 500 462 500 q 389 490 413 500 q 347 462 366 481 q 318 415 329 444 q 307 349 307 387 m 35 349 q 72 503 39 436 q 159 614 104 569 q 284 683 213 660 q 437 706 356 706 q 598 680 525 706 q 724 606 671 653 q 806 493 777 559 q 836 349 836 427 q 819 233 836 285 q 774 142 802 182 q 707 73 745 102 q 623 25 668 44 q 531 -2 578 7 q 435 -11 483 -11 q 272 15 346 -11 q 146 89 199 41 q 64 202 93 136 q 35 349 35 269 z "},"÷":{"ha":628,"x_min":34,"x_max":594,"o":"m 34 393 l 594 393 l 594 316 l 34 316 l 34 393 m 176 136 q 187 185 176 163 q 218 224 199 208 q 262 250 237 241 q 313 259 287 259 q 366 249 341 259 q 409 222 391 239 q 438 183 427 205 q 449 136 449 161 q 438 87 449 109 q 409 48 427 64 q 365 23 390 32 q 313 14 340 14 q 260 23 285 14 q 216 49 235 33 q 186 88 197 66 q 176 136 176 110 m 176 574 q 187 623 176 600 q 218 662 199 646 q 262 688 237 678 q 313 697 287 697 q 366 687 341 697 q 409 660 391 677 q 438 621 427 643 q 449 574 449 598 q 438 525 449 547 q 409 486 427 503 q 365 461 390 470 q 313 452 340 452 q 258 461 283 452 q 215 487 233 471 q 186 526 197 504 q 176 574 176 548 z "},"ø":{"ha":844,"x_min":37,"x_max":807,"o":"m 293 -1 q 189 49 236 17 q 107 126 141 81 q 55 226 74 170 q 37 349 37 282 q 53 464 37 412 q 97 557 68 516 q 163 628 125 598 q 247 677 201 658 q 343 707 292 697 q 445 716 393 716 l 451 716 q 458 716 454 716 q 467 715 462 715 l 468 715 l 492 815 l 572 815 l 544 700 q 650 650 602 682 q 733 573 699 618 q 788 472 768 528 q 807 349 807 415 q 790 232 807 284 q 744 138 774 179 q 675 67 715 97 q 588 17 635 37 q 491 -12 542 -3 q 390 -22 441 -22 l 379 -22 q 373 -21 376 -22 q 366 -20 370 -21 l 343 -118 l 264 -118 l 293 -1 m 420 195 q 471 213 448 199 q 512 248 495 227 q 539 294 530 269 q 549 349 549 320 q 532 422 549 389 q 488 475 515 455 l 420 195 m 416 500 q 366 487 389 499 q 326 453 342 474 q 301 406 310 433 q 292 349 292 379 q 308 275 292 308 q 349 222 323 242 l 416 500 z "},"ù":{"ha":872,"x_min":64,"x_max":807,"o":"m 299 1233 l 706 948 l 621 799 l 158 985 l 299 1233 m 350 289 q 357 255 350 271 q 377 229 364 240 q 406 212 389 218 q 441 206 422 206 q 474 213 458 206 q 501 230 490 219 q 519 256 513 241 q 526 289 526 271 l 526 696 l 807 696 l 807 298 q 779 169 807 227 q 702 72 751 112 q 586 11 653 32 q 439 -11 519 -11 q 293 10 361 -11 q 174 70 224 31 q 93 168 123 110 q 64 298 64 225 l 64 696 l 350 696 l 350 289 z "},"ú":{"ha":872,"x_min":64,"x_max":807,"o":"m 195 948 l 602 1233 l 743 985 l 281 799 l 195 948 m 350 289 q 357 255 350 271 q 377 229 364 240 q 406 212 389 218 q 441 206 422 206 q 474 213 458 206 q 501 230 490 219 q 519 256 513 241 q 526 289 526 271 l 526 696 l 807 696 l 807 298 q 779 169 807 227 q 702 72 751 112 q 586 11 653 32 q 439 -11 519 -11 q 293 10 361 -11 q 174 70 224 31 q 93 168 123 110 q 64 298 64 225 l 64 696 l 350 696 l 350 289 z "},"û":{"ha":872,"x_min":64,"x_max":807,"o":"m 307 1145 l 564 1145 l 734 799 l 504 799 l 451 947 l 435 1000 l 420 947 l 367 799 l 136 799 l 307 1145 m 350 289 q 357 255 350 271 q 377 229 364 240 q 406 212 389 218 q 441 206 422 206 q 474 213 458 206 q 501 230 490 219 q 519 256 513 241 q 526 289 526 271 l 526 696 l 807 696 l 807 298 q 779 169 807 227 q 702 72 751 112 q 586 11 653 32 q 439 -11 519 -11 q 293 10 361 -11 q 174 70 224 31 q 93 168 123 110 q 64 298 64 225 l 64 696 l 350 696 l 350 289 z "},"ü":{"ha":872,"x_min":64,"x_max":807,"o":"m 489 939 q 503 996 489 970 q 538 1040 516 1021 q 588 1069 560 1059 q 646 1080 616 1080 q 710 1067 682 1080 q 759 1034 739 1055 q 790 989 779 1014 q 801 939 801 964 q 788 882 801 908 q 754 838 775 857 q 704 809 732 820 q 646 799 676 799 q 582 810 611 799 q 533 841 553 822 q 500 886 512 861 q 489 939 489 911 m 70 939 q 83 994 70 968 q 117 1039 96 1020 q 167 1069 139 1058 q 226 1080 195 1080 q 287 1068 258 1080 q 336 1037 315 1057 q 370 992 357 1017 q 382 939 382 966 q 369 882 382 907 q 334 838 355 856 q 284 809 312 819 q 226 799 256 799 q 165 810 193 799 q 116 839 137 821 q 82 883 94 858 q 70 939 70 909 m 350 289 q 357 255 350 271 q 377 229 364 240 q 406 212 389 218 q 441 206 422 206 q 474 213 458 206 q 501 230 490 219 q 519 256 513 241 q 526 289 526 271 l 526 696 l 807 696 l 807 298 q 779 169 807 227 q 702 72 751 112 q 586 11 653 32 q 439 -11 519 -11 q 293 10 361 -11 q 174 70 224 31 q 93 168 123 110 q 64 298 64 225 l 64 696 l 350 696 l 350 289 z "},"ý":{"ha":928,"x_min":66,"x_max":857,"o":"m 224 948 l 631 1233 l 772 985 l 309 799 l 224 948 m 578 115 q 377 0 513 0 q 258 22 315 0 q 159 83 202 44 q 92 177 117 123 q 66 294 66 231 l 66 696 l 358 696 l 358 308 q 367 270 358 288 q 388 238 375 252 q 418 217 401 224 q 453 209 435 209 q 499 218 478 209 q 534 243 519 227 q 556 280 549 259 q 564 327 564 302 l 564 696 l 857 696 l 857 176 q 832 -39 857 54 q 757 -196 806 -133 q 635 -293 707 -260 q 468 -326 562 -326 q 416 -322 446 -326 q 347 -312 387 -319 l 377 -84 q 412 -91 395 -89 q 446 -92 429 -92 q 509 -74 485 -92 q 547 -25 533 -55 q 568 41 562 4 q 578 115 574 78 z "},"þ":{"ha":968,"x_min":73,"x_max":932,"o":"m 593 -22 q 455 19 512 -22 q 366 129 398 60 l 366 -346 l 73 -346 l 73 916 l 366 959 l 366 566 q 592 716 435 716 q 725 687 663 716 q 833 609 787 659 q 906 491 879 559 q 932 347 932 424 q 920 249 932 296 q 885 161 907 202 q 830 86 862 120 q 761 29 799 53 q 681 -8 724 5 q 593 -22 638 -22 m 366 347 q 377 293 366 318 q 407 249 388 268 q 450 220 425 231 q 503 209 475 209 q 557 220 532 209 q 602 251 583 231 q 631 295 621 270 q 642 347 642 319 q 630 406 642 380 q 597 450 617 432 q 552 476 576 467 q 503 486 527 486 q 449 475 474 486 q 406 446 425 465 q 377 404 388 428 q 366 353 366 380 l 366 347 z "},"ÿ":{"ha":928,"x_min":66,"x_max":857,"o":"m 515 939 q 529 996 515 970 q 565 1040 543 1021 q 615 1069 587 1059 q 673 1080 643 1080 q 736 1067 708 1080 q 785 1034 765 1055 q 817 989 806 1014 q 827 939 827 964 q 814 882 827 908 q 780 838 802 857 q 731 809 759 820 q 673 799 703 799 q 609 810 637 799 q 559 841 580 822 q 527 886 538 861 q 515 939 515 911 m 96 939 q 109 994 96 968 q 144 1039 122 1020 q 194 1069 165 1058 q 252 1080 222 1080 q 313 1068 285 1080 q 362 1037 341 1057 q 396 992 384 1017 q 408 939 408 966 q 395 882 408 907 q 360 838 382 856 q 310 809 338 819 q 252 799 282 799 q 192 810 220 799 q 142 839 163 821 q 109 883 121 858 q 96 939 96 909 m 578 115 q 377 0 513 0 q 258 22 315 0 q 159 83 202 44 q 92 177 117 123 q 66 294 66 231 l 66 696 l 358 696 l 358 308 q 367 270 358 288 q 388 238 375 252 q 418 217 401 224 q 453 209 435 209 q 499 218 478 209 q 534 243 519 227 q 556 280 549 259 q 564 327 564 302 l 564 696 l 857 696 l 857 176 q 832 -39 857 54 q 757 -196 806 -133 q 635 -293 707 -260 q 468 -326 562 -326 q 416 -322 446 -326 q 347 -312 387 -319 l 377 -84 q 412 -91 395 -89 q 446 -92 429 -92 q 509 -74 485 -92 q 547 -25 533 -55 q 568 41 562 4 q 578 115 574 78 z "},"Ā":{"ha":970,"x_min":7,"x_max":970,"o":"m 296 1223 l 669 1223 l 669 1059 l 296 1059 l 296 1223 m 271 955 l 693 955 l 970 0 l 643 0 l 606 183 l 359 183 l 320 0 l 7 0 l 271 955 m 574 354 l 483 772 l 389 354 l 574 354 z "},"ā":{"ha":966,"x_min":35,"x_max":895,"o":"m 303 963 l 676 963 l 676 799 l 303 799 l 303 963 m 604 129 q 515 25 571 61 q 376 -11 460 -11 q 246 17 308 -11 q 138 93 184 44 q 63 208 91 141 q 35 352 35 274 q 63 494 35 429 q 139 607 92 559 q 247 680 186 654 q 376 706 309 706 q 444 697 410 706 q 508 668 477 688 q 563 617 538 648 q 604 544 587 587 l 604 706 l 895 706 l 895 0 l 604 0 l 604 129 m 604 353 q 591 404 602 380 q 561 447 579 429 q 517 475 542 465 q 467 486 493 486 q 411 474 437 486 q 367 445 386 463 q 338 401 349 426 q 327 347 327 376 q 338 292 327 317 q 369 248 350 267 q 414 219 389 230 q 467 209 439 209 q 519 220 495 209 q 562 249 544 231 q 591 291 581 267 q 604 342 602 315 l 604 353 z "},"Ă":{"ha":970,"x_min":7,"x_max":970,"o":"m 720 1296 q 703 1198 720 1242 q 653 1123 685 1154 q 578 1076 622 1093 q 483 1059 534 1059 q 386 1076 430 1059 q 310 1125 342 1093 q 261 1200 279 1156 q 244 1296 244 1244 l 397 1296 q 421 1235 397 1259 q 483 1212 446 1212 q 542 1235 520 1212 q 563 1296 563 1257 l 720 1296 m 271 955 l 693 955 l 970 0 l 643 0 l 606 183 l 359 183 l 320 0 l 7 0 l 271 955 m 574 354 l 483 772 l 389 354 l 574 354 z "},"ă":{"ha":966,"x_min":35,"x_max":895,"o":"m 728 1036 q 710 938 728 982 q 661 864 692 895 q 586 816 629 833 q 490 799 542 799 q 393 816 437 799 q 318 865 349 833 q 269 940 286 897 q 252 1036 252 984 l 405 1036 q 429 976 405 999 q 490 952 453 952 q 549 975 528 952 q 570 1036 570 998 l 728 1036 m 604 129 q 515 25 571 61 q 376 -11 460 -11 q 246 17 308 -11 q 138 93 184 44 q 63 208 91 141 q 35 352 35 274 q 63 494 35 429 q 139 607 92 559 q 247 680 186 654 q 376 706 309 706 q 444 697 410 706 q 508 668 477 688 q 563 617 538 648 q 604 544 587 587 l 604 706 l 895 706 l 895 0 l 604 0 l 604 129 m 604 353 q 591 404 602 380 q 561 447 579 429 q 517 475 542 465 q 467 486 493 486 q 411 474 437 486 q 367 445 386 463 q 338 401 349 426 q 327 347 327 376 q 338 292 327 317 q 369 248 350 267 q 414 219 389 230 q 467 209 439 209 q 519 220 495 209 q 562 249 544 231 q 591 291 581 267 q 604 342 602 315 l 604 353 z "},"Ą":{"ha":970,"x_min":7,"x_max":970,"o":"m 682 -261 q 747 -252 701 -261 l 748 -303 q 614 -333 676 -333 q 554 -326 582 -333 q 506 -303 526 -318 q 474 -266 486 -288 q 462 -214 462 -243 q 472 -167 462 -189 q 499 -124 483 -144 q 535 -85 515 -104 q 573 -52 555 -67 l 612 -19 q 635 -1 625 -7 q 649 12 644 6 l 725 12 q 682 -72 703 -34 q 638 -141 660 -110 l 625 -162 q 616 -182 621 -168 q 612 -211 612 -197 q 682 -261 612 -261 m 271 955 l 693 955 l 970 0 l 643 0 l 606 183 l 359 183 l 320 0 l 7 0 l 271 955 m 574 354 l 483 772 l 389 354 l 574 354 z "},"ą":{"ha":966,"x_min":35,"x_max":895,"o":"m 711 -281 q 777 -272 731 -281 l 778 -323 q 644 -353 706 -353 q 584 -346 612 -353 q 536 -323 556 -338 q 504 -286 515 -309 q 492 -234 492 -264 q 502 -187 492 -210 q 529 -144 513 -165 q 565 -106 545 -124 q 603 -72 585 -87 l 642 -39 q 665 -21 655 -28 q 679 -9 674 -14 l 755 -9 q 711 -92 733 -54 q 668 -161 690 -130 l 654 -182 q 646 -203 650 -188 q 642 -231 642 -218 q 711 -281 642 -281 m 604 129 q 515 25 571 61 q 376 -11 460 -11 q 246 17 308 -11 q 138 93 184 44 q 63 208 91 141 q 35 352 35 274 q 63 494 35 429 q 139 607 92 559 q 247 680 186 654 q 376 706 309 706 q 444 697 410 706 q 508 668 477 688 q 563 617 538 648 q 604 544 587 587 l 604 706 l 895 706 l 895 0 l 604 0 l 604 129 m 604 353 q 591 404 602 380 q 561 447 579 429 q 517 475 542 465 q 467 486 493 486 q 411 474 437 486 q 367 445 386 463 q 338 401 349 426 q 327 347 327 376 q 338 292 327 317 q 369 248 350 267 q 414 219 389 230 q 467 209 439 209 q 519 220 495 209 q 562 249 544 231 q 591 291 581 267 q 604 342 602 315 l 604 353 z "},"Ć":{"ha":839,"x_min":43,"x_max":804,"o":"m 252 1208 l 659 1493 l 800 1244 l 337 1059 l 252 1208 m 593 229 q 637 232 617 229 q 678 239 658 234 q 719 251 698 243 q 766 269 740 258 l 804 48 q 541 -22 683 -22 q 195 114 339 -22 q 43 478 45 255 q 80 678 43 587 q 183 836 117 770 q 338 939 249 902 q 532 976 428 976 q 802 907 681 976 l 766 691 q 585 729 666 729 q 413 664 472 729 q 355 479 355 598 q 371 374 355 420 q 417 295 387 328 q 492 246 448 263 q 593 229 536 229 z "},"ć":{"ha":655,"x_min":35,"x_max":625,"o":"m 73 948 l 479 1233 l 621 985 l 158 799 l 73 948 m 598 465 q 463 488 525 488 q 405 478 431 488 q 362 450 380 468 q 334 405 344 431 q 324 347 324 379 q 334 289 324 315 q 362 244 344 263 q 407 215 380 225 q 465 205 433 205 q 595 228 527 205 l 623 34 q 520 -2 570 7 q 412 -11 471 -11 q 261 15 330 -11 q 142 87 192 41 q 63 200 92 134 q 35 347 35 267 q 66 494 35 428 q 148 607 96 560 q 269 680 200 654 q 412 706 337 706 q 472 704 446 706 q 524 695 499 701 q 572 677 548 688 q 625 650 597 667 l 598 465 z "},"Ĉ":{"ha":839,"x_min":43,"x_max":831,"o":"m 404 1404 l 661 1404 l 831 1059 l 601 1059 l 548 1206 l 532 1259 l 517 1206 l 464 1059 l 233 1059 l 404 1404 m 593 229 q 637 232 617 229 q 678 239 658 234 q 719 251 698 243 q 766 269 740 258 l 804 48 q 541 -22 683 -22 q 195 114 339 -22 q 43 478 45 255 q 80 678 43 587 q 183 836 117 770 q 338 939 249 902 q 532 976 428 976 q 802 907 681 976 l 766 691 q 585 729 666 729 q 413 664 472 729 q 355 479 355 598 q 371 374 355 420 q 417 295 387 328 q 492 246 448 263 q 593 229 536 229 z "},"ĉ":{"ha":655,"x_min":35,"x_max":711,"o":"m 284 1145 l 541 1145 l 711 799 l 481 799 l 428 947 l 412 1000 l 397 947 l 344 799 l 113 799 l 284 1145 m 598 465 q 463 488 525 488 q 405 478 431 488 q 362 450 380 468 q 334 405 344 431 q 324 347 324 379 q 334 289 324 315 q 362 244 344 263 q 407 215 380 225 q 465 205 433 205 q 595 228 527 205 l 623 34 q 520 -2 570 7 q 412 -11 471 -11 q 261 15 330 -11 q 142 87 192 41 q 63 200 92 134 q 35 347 35 267 q 66 494 35 428 q 148 607 96 560 q 269 680 200 654 q 412 706 337 706 q 472 704 446 706 q 524 695 499 701 q 572 677 548 688 q 625 650 597 667 l 598 465 z "},"Ċ":{"ha":839,"x_min":43,"x_max":804,"o":"m 376 1200 q 390 1256 376 1230 q 425 1300 403 1282 q 474 1329 446 1318 q 532 1339 503 1339 q 592 1328 564 1339 q 642 1298 621 1317 q 676 1253 663 1278 q 688 1200 688 1228 q 675 1142 688 1168 q 640 1098 662 1116 q 590 1069 618 1079 q 532 1059 562 1059 q 471 1069 500 1059 q 422 1099 443 1080 q 389 1144 401 1118 q 376 1200 376 1170 m 593 229 q 637 232 617 229 q 678 239 658 234 q 719 251 698 243 q 766 269 740 258 l 804 48 q 541 -22 683 -22 q 195 114 339 -22 q 43 478 45 255 q 80 678 43 587 q 183 836 117 770 q 338 939 249 902 q 532 976 428 976 q 802 907 681 976 l 766 691 q 585 729 666 729 q 413 664 472 729 q 355 479 355 598 q 371 374 355 420 q 417 295 387 328 q 492 246 448 263 q 593 229 536 229 z "},"ċ":{"ha":655,"x_min":35,"x_max":625,"o":"m 256 940 q 270 996 256 970 q 304 1040 283 1022 q 354 1069 326 1059 q 412 1080 382 1080 q 472 1068 444 1080 q 522 1038 500 1057 q 556 994 543 1019 q 568 940 568 968 q 555 882 568 908 q 520 838 542 857 q 470 809 498 819 q 412 799 442 799 q 351 810 380 799 q 302 840 323 821 q 269 884 281 859 q 256 940 256 910 m 598 465 q 463 488 525 488 q 405 478 431 488 q 362 450 380 468 q 334 405 344 431 q 324 347 324 379 q 334 289 324 315 q 362 244 344 263 q 407 215 380 225 q 465 205 433 205 q 595 228 527 205 l 623 34 q 520 -2 570 7 q 412 -11 471 -11 q 261 15 330 -11 q 142 87 192 41 q 63 200 92 134 q 35 347 35 267 q 66 494 35 428 q 148 607 96 560 q 269 680 200 654 q 412 706 337 706 q 472 704 446 706 q 524 695 499 701 q 572 677 548 688 q 625 650 597 667 l 598 465 z "},"Č":{"ha":839,"x_min":43,"x_max":831,"o":"m 233 1404 l 464 1404 l 517 1257 l 532 1202 q 546 1247 537 1221 q 566 1303 555 1274 q 585 1358 576 1331 q 601 1404 595 1385 l 831 1404 l 661 1059 l 404 1059 l 233 1404 m 593 229 q 637 232 617 229 q 678 239 658 234 q 719 251 698 243 q 766 269 740 258 l 804 48 q 541 -22 683 -22 q 195 114 339 -22 q 43 478 45 255 q 80 678 43 587 q 183 836 117 770 q 338 939 249 902 q 532 976 428 976 q 802 907 681 976 l 766 691 q 585 729 666 729 q 413 664 472 729 q 355 479 355 598 q 371 374 355 420 q 417 295 387 328 q 492 246 448 263 q 593 229 536 229 z "},"č":{"ha":655,"x_min":35,"x_max":711,"o":"m 113 1145 l 344 1145 l 397 997 l 412 943 q 426 988 417 961 q 446 1043 435 1015 q 465 1099 456 1072 q 481 1145 475 1126 l 711 1145 l 541 799 l 284 799 l 113 1145 m 598 465 q 463 488 525 488 q 405 478 431 488 q 362 450 380 468 q 334 405 344 431 q 324 347 324 379 q 334 289 324 315 q 362 244 344 263 q 407 215 380 225 q 465 205 433 205 q 595 228 527 205 l 623 34 q 520 -2 570 7 q 412 -11 471 -11 q 261 15 330 -11 q 142 87 192 41 q 63 200 92 134 q 35 347 35 267 q 66 494 35 428 q 148 607 96 560 q 269 680 200 654 q 412 706 337 706 q 472 704 446 706 q 524 695 499 701 q 572 677 548 688 q 625 650 597 667 l 598 465 z "},"Ď":{"ha":1061,"x_min":91,"x_max":1017,"o":"m 255 1404 l 486 1404 l 538 1257 l 553 1202 q 568 1247 559 1221 q 587 1303 577 1274 q 607 1358 597 1331 q 623 1404 616 1385 l 853 1404 l 682 1059 l 426 1059 l 255 1404 m 91 955 l 506 955 q 716 920 622 955 q 877 823 810 885 q 981 674 944 760 q 1017 484 1017 587 q 981 287 1017 376 q 878 134 945 197 q 716 35 810 70 q 506 0 622 0 l 91 0 l 91 955 m 506 250 q 596 272 558 250 q 658 329 633 294 q 694 406 682 363 q 705 487 705 448 q 691 574 705 534 q 650 644 676 614 q 587 689 623 673 q 506 705 550 705 l 397 705 l 397 250 l 506 250 z "},"ď":{"ha":968,"x_min":36,"x_max":1305,"o":"m 1020 628 q 1093 629 1067 628 q 1131 636 1118 629 q 1146 657 1143 643 q 1149 700 1149 672 l 1020 700 l 1020 959 l 1305 959 l 1302 818 q 1297 688 1301 743 q 1282 593 1293 633 q 1254 529 1272 554 q 1205 490 1236 505 q 1128 471 1174 476 q 1020 465 1083 465 l 1020 628 m 375 706 q 511 673 454 706 q 603 566 568 641 l 603 916 l 896 959 l 896 0 l 603 0 l 603 129 q 514 24 570 59 q 374 -11 458 -11 q 239 19 301 -11 q 133 98 178 48 q 62 212 87 147 q 36 347 36 277 q 63 489 36 423 q 138 603 91 555 q 246 679 184 651 q 375 706 307 706 m 603 353 q 590 404 602 380 q 560 447 578 429 q 517 475 541 465 q 466 486 492 486 q 411 474 436 486 q 367 444 385 463 q 338 400 349 425 q 328 347 328 375 q 339 292 328 317 q 369 249 350 267 q 413 219 388 230 q 466 209 438 209 q 520 220 495 209 q 564 251 545 232 q 592 295 582 270 q 603 347 603 320 l 603 353 z "},"Đ":{"ha":1061,"x_min":53,"x_max":1017,"o":"m 53 519 l 91 519 l 91 933 l 506 933 q 713 899 619 933 q 875 804 807 865 q 980 658 943 743 q 1017 473 1017 574 q 888 146 1017 279 q 506 0 747 0 l 91 0 l 91 401 l 53 401 l 53 519 m 506 250 q 589 267 552 250 q 652 316 626 285 q 691 388 677 347 q 705 476 705 429 q 690 559 705 522 q 648 625 675 597 q 585 668 622 652 q 506 684 549 684 l 397 684 l 397 519 l 487 519 l 487 401 l 397 401 l 397 250 l 506 250 z "},"đ":{"ha":968,"x_min":36,"x_max":941,"o":"m 375 716 q 603 566 532 716 l 603 750 l 507 750 l 507 868 l 603 868 l 603 916 l 896 959 l 896 868 l 941 868 l 941 750 l 896 750 l 896 0 l 603 0 l 603 129 q 513 19 570 60 q 374 -22 456 -22 q 144 79 245 -22 q 36 347 36 187 q 63 491 36 424 q 138 608 91 558 q 246 687 184 659 q 375 716 307 716 m 603 353 q 590 404 602 380 q 560 447 578 429 q 517 475 541 465 q 466 486 492 486 q 411 474 436 486 q 367 444 385 463 q 338 400 349 425 q 328 347 328 375 q 339 292 328 317 q 369 249 350 267 q 413 219 388 230 q 466 209 438 209 q 520 220 495 209 q 564 251 545 232 q 592 295 582 270 q 603 347 603 320 l 603 353 z "},"Ē":{"ha":826,"x_min":91,"x_max":761,"o":"m 239 1223 l 612 1223 l 612 1059 l 239 1059 l 239 1223 m 91 955 l 761 955 l 761 745 l 427 745 l 427 571 l 732 571 l 732 396 l 427 396 l 427 209 l 761 209 l 761 0 l 91 0 l 91 955 z "},"ē":{"ha":772,"x_min":35,"x_max":741,"o":"m 233 963 l 606 963 l 606 799 l 233 799 l 233 963 m 473 184 q 678 233 568 184 l 712 46 q 429 -11 586 -11 q 269 16 341 -11 q 145 91 197 43 q 64 204 93 138 q 35 347 35 270 q 65 495 35 429 q 148 608 96 561 q 270 681 200 655 q 419 706 340 706 q 559 679 499 706 q 660 606 620 652 q 721 497 701 559 q 741 365 741 435 q 740 347 741 355 q 738 330 739 338 l 321 275 q 376 205 338 227 q 473 184 414 184 m 525 450 q 419 537 501 537 q 373 527 393 537 q 339 499 353 517 q 317 456 325 481 q 309 403 310 431 l 525 450 z "},"Ĕ":{"ha":826,"x_min":91,"x_max":761,"o":"m 664 1296 q 646 1198 664 1242 q 597 1123 629 1154 q 522 1076 566 1093 q 427 1059 478 1059 q 330 1076 374 1059 q 254 1125 286 1093 q 205 1200 222 1156 q 188 1296 188 1244 l 341 1296 q 365 1235 341 1259 q 427 1212 389 1212 q 485 1235 464 1212 q 507 1296 507 1257 l 664 1296 m 91 955 l 761 955 l 761 745 l 427 745 l 427 571 l 732 571 l 732 396 l 427 396 l 427 209 l 761 209 l 761 0 l 91 0 l 91 955 z "},"ĕ":{"ha":772,"x_min":35,"x_max":741,"o":"m 657 1036 q 640 938 657 982 q 590 864 622 895 q 515 816 559 833 q 420 799 471 799 q 323 816 367 799 q 247 865 279 833 q 198 940 216 897 q 181 1036 181 984 l 334 1036 q 358 976 334 999 q 420 952 382 952 q 478 975 457 952 q 500 1036 500 998 l 657 1036 m 473 184 q 678 233 568 184 l 712 46 q 429 -11 586 -11 q 269 16 341 -11 q 145 91 197 43 q 64 204 93 138 q 35 347 35 270 q 65 495 35 429 q 148 608 96 561 q 270 681 200 655 q 419 706 340 706 q 559 679 499 706 q 660 606 620 652 q 721 497 701 559 q 741 365 741 435 q 740 347 741 355 q 738 330 739 338 l 321 275 q 376 205 338 227 q 473 184 414 184 m 525 450 q 419 537 501 537 q 373 527 393 537 q 339 499 353 517 q 317 456 325 481 q 309 403 310 431 l 525 450 z "},"Ė":{"ha":826,"x_min":91,"x_max":761,"o":"m 270 1200 q 283 1256 270 1230 q 318 1300 296 1282 q 368 1329 340 1318 q 426 1339 396 1339 q 486 1328 457 1339 q 535 1298 514 1317 q 569 1253 557 1278 q 582 1200 582 1228 q 569 1142 582 1168 q 534 1098 555 1116 q 484 1069 512 1079 q 426 1059 456 1059 q 365 1069 393 1059 q 315 1099 336 1080 q 282 1144 294 1118 q 270 1200 270 1170 m 91 955 l 761 955 l 761 745 l 427 745 l 427 571 l 732 571 l 732 396 l 427 396 l 427 209 l 761 209 l 761 0 l 91 0 l 91 955 z "},"ė":{"ha":772,"x_min":35,"x_max":741,"o":"m 263 940 q 276 996 263 970 q 311 1040 290 1022 q 361 1069 333 1059 q 419 1080 389 1080 q 479 1068 450 1080 q 529 1038 507 1057 q 563 994 550 1019 q 575 940 575 968 q 562 882 575 908 q 527 838 549 857 q 477 809 505 819 q 419 799 449 799 q 358 810 387 799 q 309 840 330 821 q 275 884 288 859 q 263 940 263 910 m 473 184 q 678 233 568 184 l 712 46 q 429 -11 586 -11 q 269 16 341 -11 q 145 91 197 43 q 64 204 93 138 q 35 347 35 270 q 65 495 35 429 q 148 608 96 561 q 270 681 200 655 q 419 706 340 706 q 559 679 499 706 q 660 606 620 652 q 721 497 701 559 q 741 365 741 435 q 740 347 741 355 q 738 330 739 338 l 321 275 q 376 205 338 227 q 473 184 414 184 m 525 450 q 419 537 501 537 q 373 527 393 537 q 339 499 353 517 q 317 456 325 481 q 309 403 310 431 l 525 450 z "},"Ę":{"ha":826,"x_min":91,"x_max":761,"o":"m 458 -261 q 524 -252 478 -261 l 525 -303 q 391 -333 453 -333 q 331 -326 359 -333 q 283 -303 303 -318 q 251 -266 262 -288 q 239 -214 239 -243 q 249 -167 239 -189 q 276 -124 260 -144 q 312 -85 292 -104 q 350 -52 332 -67 l 389 -19 q 412 -1 402 -7 q 426 12 421 6 l 502 12 q 458 -72 480 -34 q 415 -141 437 -110 l 401 -162 q 393 -182 397 -168 q 389 -211 389 -197 q 458 -261 389 -261 m 91 955 l 761 955 l 761 745 l 427 745 l 427 571 l 732 571 l 732 396 l 427 396 l 427 209 l 761 209 l 761 0 l 91 0 l 91 955 z "},"ę":{"ha":772,"x_min":35,"x_max":741,"o":"m 423 -281 q 488 -272 443 -281 l 490 -323 q 355 -353 418 -353 q 296 -346 323 -353 q 248 -323 268 -338 q 215 -286 227 -309 q 203 -234 203 -264 q 214 -187 203 -210 q 241 -144 224 -165 q 277 -106 257 -124 q 315 -72 296 -87 l 353 -39 q 376 -21 367 -28 q 391 -9 386 -14 l 467 -9 q 423 -92 445 -54 q 380 -161 401 -130 l 366 -182 q 358 -203 362 -188 q 354 -231 354 -218 q 423 -281 354 -281 m 473 184 q 678 233 568 184 l 712 46 q 429 -11 586 -11 q 269 16 341 -11 q 145 91 197 43 q 64 204 93 138 q 35 347 35 270 q 65 495 35 429 q 148 608 96 561 q 270 681 200 655 q 419 706 340 706 q 559 679 499 706 q 660 606 620 652 q 721 497 701 559 q 741 365 741 435 q 740 347 741 355 q 738 330 739 338 l 321 275 q 376 205 338 227 q 473 184 414 184 m 525 450 q 419 537 501 537 q 373 527 393 537 q 339 499 353 517 q 317 456 325 481 q 309 403 310 431 l 525 450 z "},"Ě":{"ha":826,"x_min":91,"x_max":761,"o":"m 127 1404 l 357 1404 l 410 1257 l 425 1202 q 440 1247 431 1221 q 459 1303 449 1274 q 479 1358 469 1331 q 494 1404 488 1385 l 725 1404 l 554 1059 l 298 1059 l 127 1404 m 91 955 l 761 955 l 761 745 l 427 745 l 427 571 l 732 571 l 732 396 l 427 396 l 427 209 l 761 209 l 761 0 l 91 0 l 91 955 z "},"ě":{"ha":772,"x_min":35,"x_max":741,"o":"m 120 1145 l 351 1145 l 404 997 l 418 943 q 433 988 424 961 q 452 1043 442 1015 q 472 1099 463 1072 q 488 1145 481 1126 l 718 1145 l 547 799 l 291 799 l 120 1145 m 473 184 q 678 233 568 184 l 712 46 q 429 -11 586 -11 q 269 16 341 -11 q 145 91 197 43 q 64 204 93 138 q 35 347 35 270 q 65 495 35 429 q 148 608 96 561 q 270 681 200 655 q 419 706 340 706 q 559 679 499 706 q 660 606 620 652 q 721 497 701 559 q 741 365 741 435 q 740 347 741 355 q 738 330 739 338 l 321 275 q 376 205 338 227 q 473 184 414 184 m 525 450 q 419 537 501 537 q 373 527 393 537 q 339 499 353 517 q 317 456 325 481 q 309 403 310 431 l 525 450 z "},"Ĝ":{"ha":915,"x_min":41,"x_max":855,"o":"m 392 1405 l 648 1405 l 819 1059 l 589 1059 l 536 1207 l 519 1260 l 505 1207 l 452 1059 l 221 1059 l 392 1405 m 749 692 q 559 731 629 731 q 470 710 509 731 q 404 654 431 689 q 364 575 378 620 q 351 482 351 530 q 366 383 351 429 q 409 302 381 336 q 475 248 436 268 q 559 228 513 228 q 615 232 585 228 l 615 457 l 855 484 l 855 50 q 522 -22 693 -22 q 182 126 322 -22 q 41 486 41 275 q 184 834 41 691 q 520 977 326 977 q 842 907 698 977 l 749 692 z "},"ĝ":{"ha":965,"x_min":37,"x_max":895,"o":"m 357 1145 l 614 1145 l 785 799 l 554 799 l 501 947 l 485 1000 l 470 947 l 417 799 l 186 799 l 357 1145 m 622 115 q 372 0 541 0 q 244 26 305 0 q 137 100 183 53 q 64 212 91 147 q 37 352 37 276 q 65 496 37 431 q 139 608 93 562 q 246 681 186 655 q 371 706 307 706 q 451 694 414 706 q 519 662 489 683 q 570 610 549 640 q 602 544 591 581 l 602 706 l 895 706 l 895 176 q 869 -30 895 62 q 791 -185 844 -121 q 656 -284 738 -250 q 463 -319 575 -319 q 394 -315 431 -319 q 317 -305 357 -312 l 338 -98 q 433 -106 406 -106 q 519 -89 486 -106 q 572 -42 552 -72 q 604 27 593 -13 q 622 115 614 68 m 602 353 q 588 404 600 380 q 557 446 576 428 q 514 475 538 465 q 463 486 490 486 q 408 474 433 486 q 364 444 382 463 q 335 400 346 425 q 325 347 325 375 q 337 288 325 314 q 370 245 350 262 q 415 218 390 227 q 463 209 439 209 q 516 220 491 209 q 559 249 541 231 q 589 291 578 267 q 602 342 600 315 l 602 353 z "},"Ğ":{"ha":915,"x_min":41,"x_max":855,"o":"m 758 1297 q 741 1199 758 1242 q 691 1124 723 1155 q 616 1076 660 1093 q 521 1059 572 1059 q 424 1077 468 1059 q 348 1125 380 1094 q 299 1201 317 1157 q 282 1297 282 1244 l 435 1297 q 459 1236 435 1259 q 521 1213 484 1213 q 579 1235 558 1213 q 601 1297 601 1258 l 758 1297 m 749 692 q 559 731 629 731 q 470 710 509 731 q 404 654 431 689 q 364 575 378 620 q 351 482 351 530 q 366 383 351 429 q 409 302 381 336 q 475 248 436 268 q 559 228 513 228 q 615 232 585 228 l 615 457 l 855 484 l 855 50 q 522 -22 693 -22 q 182 126 322 -22 q 41 486 41 275 q 184 834 41 691 q 520 977 326 977 q 842 907 698 977 l 749 692 z "},"ğ":{"ha":965,"x_min":37,"x_max":895,"o":"m 724 1036 q 706 938 724 982 q 657 864 688 895 q 582 816 625 833 q 486 799 538 799 q 389 816 433 799 q 314 865 345 833 q 265 940 282 897 q 248 1036 248 984 l 401 1036 q 425 976 401 999 q 486 952 449 952 q 545 975 524 952 q 566 1036 566 998 l 724 1036 m 622 115 q 372 0 541 0 q 244 26 305 0 q 137 100 183 53 q 64 212 91 147 q 37 352 37 276 q 65 496 37 431 q 139 608 93 562 q 246 681 186 655 q 371 706 307 706 q 451 694 414 706 q 519 662 489 683 q 570 610 549 640 q 602 544 591 581 l 602 706 l 895 706 l 895 176 q 869 -30 895 62 q 791 -185 844 -121 q 656 -284 738 -250 q 463 -319 575 -319 q 394 -315 431 -319 q 317 -305 357 -312 l 338 -98 q 433 -106 406 -106 q 519 -89 486 -106 q 572 -42 552 -72 q 604 27 593 -13 q 622 115 614 68 m 602 353 q 588 404 600 380 q 557 446 576 428 q 514 475 538 465 q 463 486 490 486 q 408 474 433 486 q 364 444 382 463 q 335 400 346 425 q 325 347 325 375 q 337 288 325 314 q 370 245 350 262 q 415 218 390 227 q 463 209 439 209 q 516 220 491 209 q 559 249 541 231 q 589 291 578 267 q 602 342 600 315 l 602 353 z "},"Ġ":{"ha":915,"x_min":41,"x_max":855,"o":"m 364 1200 q 377 1257 364 1231 q 412 1301 391 1282 q 462 1330 434 1319 q 520 1340 490 1340 q 580 1329 551 1340 q 630 1298 608 1318 q 664 1254 651 1279 q 676 1200 676 1229 q 663 1143 676 1168 q 628 1098 650 1117 q 578 1069 606 1080 q 520 1059 550 1059 q 459 1070 488 1059 q 410 1100 431 1081 q 376 1145 389 1119 q 364 1200 364 1171 m 749 692 q 559 731 629 731 q 470 710 509 731 q 404 654 431 689 q 364 575 378 620 q 351 482 351 530 q 366 383 351 429 q 409 302 381 336 q 475 248 436 268 q 559 228 513 228 q 615 232 585 228 l 615 457 l 855 484 l 855 50 q 522 -22 693 -22 q 182 126 322 -22 q 41 486 41 275 q 184 834 41 691 q 520 977 326 977 q 842 907 698 977 l 749 692 z "},"ġ":{"ha":965,"x_min":37,"x_max":895,"o":"m 330 940 q 343 996 330 970 q 378 1040 356 1022 q 428 1069 399 1059 q 486 1080 456 1080 q 545 1068 517 1080 q 595 1038 574 1057 q 629 994 616 1019 q 642 940 642 968 q 628 882 642 908 q 593 838 615 857 q 544 809 572 819 q 486 799 515 799 q 425 810 453 799 q 375 840 396 821 q 342 884 354 859 q 330 940 330 910 m 622 115 q 372 0 541 0 q 244 26 305 0 q 137 100 183 53 q 64 212 91 147 q 37 352 37 276 q 65 496 37 431 q 139 608 93 562 q 246 681 186 655 q 371 706 307 706 q 451 694 414 706 q 519 662 489 683 q 570 610 549 640 q 602 544 591 581 l 602 706 l 895 706 l 895 176 q 869 -30 895 62 q 791 -185 844 -121 q 656 -284 738 -250 q 463 -319 575 -319 q 394 -315 431 -319 q 317 -305 357 -312 l 338 -98 q 433 -106 406 -106 q 519 -89 486 -106 q 572 -42 552 -72 q 604 27 593 -13 q 622 115 614 68 m 602 353 q 588 404 600 380 q 557 446 576 428 q 514 475 538 465 q 463 486 490 486 q 408 474 433 486 q 364 444 382 463 q 335 400 346 425 q 325 347 325 375 q 337 288 325 314 q 370 245 350 262 q 415 218 390 227 q 463 209 439 209 q 516 220 491 209 q 559 249 541 231 q 589 291 578 267 q 602 342 600 315 l 602 353 z "},"Ģ":{"ha":915,"x_min":41,"x_max":855,"o":"m 379 -434 q 452 -433 426 -434 q 490 -426 477 -433 q 505 -405 503 -419 q 508 -362 508 -390 l 379 -362 l 379 -103 l 664 -103 l 661 -244 q 656 -374 660 -319 q 642 -469 652 -429 q 613 -533 631 -508 q 564 -572 595 -557 q 488 -591 533 -586 q 379 -597 442 -597 l 379 -434 m 749 692 q 559 731 629 731 q 470 710 509 731 q 404 654 431 689 q 364 575 378 620 q 351 482 351 530 q 366 383 351 429 q 409 302 381 336 q 475 248 436 268 q 559 228 513 228 q 615 232 585 228 l 615 457 l 855 484 l 855 50 q 522 -22 693 -22 q 182 126 322 -22 q 41 486 41 275 q 184 834 41 691 q 520 977 326 977 q 842 907 698 977 l 749 692 z "},"ģ":{"ha":965,"x_min":37,"x_max":895,"o":"m 622 115 q 372 0 541 0 q 244 26 305 0 q 137 100 183 53 q 64 212 91 147 q 37 352 37 276 q 65 496 37 431 q 139 608 93 562 q 246 681 186 655 q 371 706 307 706 q 451 694 414 706 q 519 662 489 683 q 570 610 549 640 q 602 544 591 581 l 602 706 l 895 706 l 895 176 q 869 -30 895 62 q 791 -185 844 -121 q 656 -284 738 -250 q 463 -319 575 -319 q 394 -315 431 -319 q 317 -305 357 -312 l 338 -98 q 433 -106 406 -106 q 519 -89 486 -106 q 572 -42 552 -72 q 604 27 593 -13 q 622 115 614 68 m 602 353 q 588 404 600 380 q 557 446 576 428 q 514 475 538 465 q 463 486 490 486 q 408 474 433 486 q 364 444 382 463 q 335 400 346 425 q 325 347 325 375 q 337 288 325 314 q 370 245 350 262 q 415 218 390 227 q 463 209 439 209 q 516 220 491 209 q 559 249 541 231 q 589 291 578 267 q 602 342 600 315 l 602 353 m 441 909 q 513 909 488 909 q 552 917 539 910 q 567 938 564 924 q 570 981 570 953 l 441 981 l 441 1240 l 726 1240 l 723 1099 q 718 969 722 1024 q 703 874 713 913 q 675 810 693 835 q 626 771 656 785 q 549 751 595 757 q 441 746 504 746 l 441 909 z "},"Ĥ":{"ha":1103,"x_min":91,"x_max":1012,"o":"m 423 1404 l 680 1404 l 850 1059 l 620 1059 l 567 1206 l 551 1259 l 536 1206 l 483 1059 l 252 1059 l 423 1404 m 91 955 l 403 955 l 403 575 l 699 575 l 699 955 l 1012 955 l 1012 0 l 699 0 l 699 374 l 403 374 l 403 0 l 91 0 l 91 955 z "},"ĥ":{"ha":958,"x_min":73,"x_max":893,"o":"m 355 1388 l 611 1388 l 782 1042 l 551 1042 l 498 1190 l 482 1242 l 467 1190 l 414 1042 l 184 1042 l 355 1388 m 73 916 l 366 959 l 366 541 q 459 667 401 627 q 595 706 517 706 q 712 681 658 706 q 807 609 766 655 q 870 497 847 562 q 893 353 893 432 l 893 0 l 602 0 l 602 347 q 594 399 602 374 q 574 443 587 424 q 543 474 561 463 q 504 486 525 486 q 449 474 474 486 q 405 441 423 462 q 376 394 387 421 q 366 338 366 368 l 366 0 l 73 0 l 73 916 z "},"Ħ":{"ha":1117,"x_min":58,"x_max":1059,"o":"m 58 781 l 98 781 l 98 933 l 410 933 l 410 781 l 705 781 l 705 933 l 1019 933 l 1019 781 l 1059 781 l 1059 663 l 1019 663 l 1019 0 l 705 0 l 705 374 l 410 374 l 410 0 l 98 0 l 98 663 l 58 663 l 58 781 m 705 575 l 705 663 l 410 663 l 410 575 l 705 575 z "},"ħ":{"ha":958,"x_min":-10,"x_max":893,"o":"m -10 868 l 73 868 l 73 916 l 366 959 l 366 868 l 511 868 l 511 750 l 366 750 l 366 541 q 459 671 401 627 q 595 716 517 716 q 712 689 658 716 q 807 613 766 662 q 870 498 847 565 q 893 353 893 432 l 893 0 l 602 0 l 602 347 q 594 399 602 374 q 574 443 587 424 q 543 474 561 463 q 504 486 525 486 q 449 474 474 486 q 405 441 423 462 q 376 394 387 421 q 366 338 366 368 l 366 0 l 73 0 l 73 750 l -10 750 l -10 868 z "},"Ĩ":{"ha":502,"x_min":-84,"x_max":589,"o":"m 153 1136 q 126 1129 138 1136 q 106 1113 115 1123 q 91 1089 97 1102 q 80 1063 85 1076 l -84 1129 q -37 1232 -63 1187 q 21 1307 -10 1276 q 85 1354 52 1338 q 155 1371 119 1371 q 197 1363 176 1371 q 230 1351 218 1356 l 262 1332 q 267 1329 263 1331 q 275 1323 270 1326 l 304 1306 q 329 1297 316 1300 q 357 1293 341 1293 q 426 1356 404 1293 l 589 1289 q 490 1114 547 1169 q 362 1059 433 1059 q 315 1064 336 1059 q 277 1079 294 1070 q 244 1097 259 1087 q 215 1116 229 1107 q 185 1130 200 1124 q 153 1136 170 1136 m 91 955 l 411 955 l 411 0 l 91 0 l 91 955 z "},"ĩ":{"ha":507,"x_min":-121,"x_max":552,"o":"m 117 876 q 90 870 101 876 q 69 853 78 863 q 54 829 60 842 q 43 803 48 816 l -121 869 q -73 972 -100 927 q -16 1047 -47 1017 q 49 1095 15 1078 q 118 1111 83 1111 q 160 1104 139 1111 q 193 1091 182 1097 l 225 1072 q 230 1069 227 1071 q 238 1063 233 1067 l 267 1046 q 292 1037 279 1040 q 320 1034 304 1034 q 389 1096 368 1034 l 552 1029 q 453 854 510 909 q 326 799 397 799 q 278 805 299 799 q 240 819 258 810 q 208 838 222 827 q 178 856 193 848 q 149 870 163 865 q 117 876 134 876 m 496 26 q 314 -22 414 -22 q 209 -2 255 -22 q 131 54 163 18 q 83 142 100 90 q 67 256 67 193 l 67 696 l 361 696 l 361 270 q 379 220 361 237 q 424 203 397 203 q 481 220 451 203 l 496 26 z "},"Ī":{"ha":502,"x_min":64,"x_max":437,"o":"m 64 1223 l 437 1223 l 437 1059 l 64 1059 l 64 1223 m 91 955 l 411 955 l 411 0 l 91 0 l 91 955 z "},"ī":{"ha":507,"x_min":29,"x_max":496,"o":"m 29 963 l 402 963 l 402 799 l 29 799 l 29 963 m 496 26 q 314 -22 414 -22 q 209 -2 255 -22 q 131 54 163 18 q 83 142 100 90 q 67 256 67 193 l 67 696 l 361 696 l 361 270 q 379 220 361 237 q 424 203 397 203 q 481 220 451 203 l 496 26 z "},"Ĭ":{"ha":502,"x_min":14,"x_max":490,"o":"m 490 1296 q 473 1198 490 1242 q 424 1123 455 1154 q 348 1076 392 1093 q 253 1059 304 1059 q 156 1076 200 1059 q 80 1125 112 1093 q 32 1200 49 1156 q 14 1296 14 1244 l 168 1296 q 192 1235 168 1259 q 253 1212 216 1212 q 312 1235 290 1212 q 333 1296 333 1257 l 490 1296 m 91 955 l 411 955 l 411 0 l 91 0 l 91 955 z "},"ĭ":{"ha":507,"x_min":-22,"x_max":496,"o":"m 454 1036 q 436 938 454 982 q 387 864 418 895 q 312 816 355 833 q 216 799 268 799 q 119 816 163 799 q 44 865 75 833 q -5 940 12 897 q -22 1036 -22 984 l 131 1036 q 155 976 131 999 q 216 952 179 952 q 275 975 254 952 q 296 1036 296 998 l 454 1036 m 496 26 q 314 -22 414 -22 q 209 -2 255 -22 q 131 54 163 18 q 83 142 100 90 q 67 256 67 193 l 67 696 l 361 696 l 361 270 q 379 220 361 237 q 424 203 397 203 q 481 220 451 203 l 496 26 z "},"Į":{"ha":502,"x_min":27,"x_max":411,"o":"m 247 -261 q 312 -252 267 -261 l 313 -303 q 179 -333 241 -333 q 119 -326 147 -333 q 71 -303 92 -318 q 39 -266 51 -288 q 27 -214 27 -243 q 38 -167 27 -189 q 64 -124 48 -144 q 100 -85 81 -104 q 138 -52 120 -67 l 177 -19 q 200 -1 191 -7 q 214 12 210 6 l 290 12 q 247 -72 269 -34 q 203 -141 225 -110 l 190 -162 q 182 -182 186 -168 q 178 -211 178 -197 q 247 -261 178 -261 m 91 955 l 411 955 l 411 0 l 91 0 l 91 955 z "},"į":{"ha":507,"x_min":62,"x_max":496,"o":"m 309 -281 q 374 -272 328 -281 l 375 -323 q 241 -353 303 -353 q 181 -346 209 -353 q 133 -323 153 -338 q 101 -286 113 -309 q 89 -234 89 -264 q 99 -187 89 -210 q 126 -144 110 -165 q 162 -106 142 -124 q 200 -72 182 -87 l 239 -39 q 262 -21 252 -28 q 276 -9 271 -14 l 352 -9 q 309 -92 330 -54 q 265 -161 287 -130 l 252 -182 q 243 -203 248 -188 q 239 -231 239 -218 q 309 -281 239 -281 m 62 926 q 75 983 62 957 q 110 1027 88 1008 q 160 1056 132 1046 q 219 1066 189 1066 q 283 1054 254 1066 q 332 1021 312 1041 q 364 976 353 1001 q 375 926 375 951 q 362 869 375 895 q 328 825 349 844 q 278 796 306 806 q 219 785 250 785 q 157 796 186 785 q 107 826 128 807 q 74 871 86 846 q 62 926 62 897 m 496 37 q 314 -11 414 -11 q 209 9 255 -11 q 131 65 163 28 q 83 153 100 101 q 67 267 67 204 l 67 696 l 361 696 l 361 281 q 379 231 361 248 q 424 214 397 214 q 481 231 451 214 l 496 37 z "},"İ":{"ha":502,"x_min":91,"x_max":411,"o":"m 95 1200 q 108 1256 95 1230 q 143 1300 121 1282 q 193 1329 165 1318 q 251 1339 221 1339 q 311 1328 282 1339 q 360 1298 339 1317 q 394 1253 382 1278 q 407 1200 407 1228 q 394 1142 407 1168 q 359 1098 380 1116 q 309 1069 337 1079 q 251 1059 281 1059 q 190 1069 218 1059 q 140 1099 161 1080 q 107 1144 119 1118 q 95 1200 95 1170 m 91 955 l 411 955 l 411 0 l 91 0 l 91 955 z "},"ı":{"ha":507,"x_min":67,"x_max":496,"o":"m 496 26 q 314 -22 414 -22 q 209 -2 255 -22 q 131 54 163 18 q 83 142 100 90 q 67 256 67 193 l 67 696 l 361 696 l 361 270 q 379 220 361 237 q 424 203 397 203 q 481 220 451 203 l 496 26 z "},"Ĳ":{"ha":1195,"x_min":91,"x_max":1111,"o":"m 91 955 l 411 955 l 411 0 l 91 0 l 91 955 m 720 164 q 812 279 812 164 l 812 955 l 1111 955 l 1111 279 q 1089 136 1111 199 q 1027 28 1067 73 q 929 -39 987 -16 q 799 -62 871 -62 q 560 11 670 -62 l 625 183 q 720 164 680 164 z "},"ĳ":{"ha":438,"x_min":-180,"x_max":371,"o":"m -20 -75 q 73 41 73 -75 l 73 696 l 366 696 l 366 41 q 344 -102 366 -39 q 283 -209 323 -165 q 186 -276 243 -253 q 58 -300 130 -300 q -180 -227 -70 -300 l -116 -54 q -20 -75 -52 -75 m 58 926 q 71 982 58 956 q 106 1026 84 1008 q 156 1056 127 1045 q 214 1066 184 1066 q 278 1054 249 1066 q 328 1022 307 1042 q 360 977 349 1002 q 371 926 371 951 q 358 869 371 895 q 324 825 345 844 q 274 796 302 806 q 214 785 245 785 q 152 797 180 785 q 102 827 123 808 q 70 872 81 846 q 58 926 58 898 z "},"Ĵ":{"ha":633,"x_min":-1,"x_max":699,"o":"m 272 1404 l 528 1404 l 699 1059 l 469 1059 l 416 1206 l 399 1259 l 385 1206 l 332 1059 l 101 1059 l 272 1404 m 159 164 q 251 279 251 164 l 251 955 l 549 955 l 549 279 q 528 136 549 199 q 466 28 506 73 q 367 -39 425 -16 q 237 -62 309 -62 q -1 11 109 -62 l 64 183 q 159 164 119 164 z "},"ĵ":{"ha":438,"x_min":-180,"x_max":519,"o":"m 92 1145 l 349 1145 l 519 799 l 289 799 l 236 947 l 220 1000 l 205 947 l 152 799 l -79 799 l 92 1145 m -20 -75 q 73 41 73 -75 l 73 696 l 366 696 l 366 41 q 344 -102 366 -39 q 283 -209 323 -165 q 186 -276 243 -253 q 58 -300 130 -300 q -180 -227 -70 -300 l -116 -54 q -20 -75 -52 -75 z "},"Ķ":{"ha":1065,"x_min":91,"x_max":1050,"o":"m 428 -412 q 500 -412 475 -412 q 539 -404 526 -411 q 554 -383 551 -397 q 557 -340 557 -368 l 428 -340 l 428 -81 l 713 -81 l 710 -222 q 705 -352 709 -297 q 690 -447 701 -408 q 662 -511 680 -486 q 613 -550 644 -536 q 536 -570 582 -564 q 428 -575 491 -575 l 428 -412 m 91 955 l 412 955 l 412 566 l 513 566 l 697 955 l 1019 955 l 1019 892 l 799 481 l 1050 62 l 1050 0 l 712 0 l 507 380 l 412 380 l 412 0 l 91 0 l 91 955 z "},"ķ":{"ha":891,"x_min":73,"x_max":884,"o":"m 313 -433 q 386 -432 360 -433 q 424 -425 412 -431 q 439 -403 437 -418 q 442 -361 442 -389 l 313 -361 l 313 -102 l 598 -102 l 595 -243 q 590 -373 594 -317 q 576 -467 586 -428 q 547 -531 566 -507 q 498 -570 529 -556 q 422 -590 467 -585 q 313 -595 376 -595 l 313 -433 m 660 401 q 690 283 675 313 q 800 213 721 213 q 859 221 819 213 l 832 -7 q 755 -11 789 -11 q 630 4 680 -11 q 546 52 581 20 q 490 135 512 85 q 448 256 467 186 l 367 191 l 367 0 l 73 0 l 73 916 l 367 959 l 367 483 l 724 774 l 884 557 l 660 401 z "},"ĸ":{"ha":888,"x_min":73,"x_max":877,"o":"m 793 213 q 852 221 810 213 l 831 -16 q 755 -20 790 -20 q 631 -4 682 -20 q 547 44 581 12 q 489 126 512 77 q 447 243 466 176 l 366 178 l 366 0 l 73 0 l 73 694 l 366 694 l 366 469 l 627 694 l 777 694 l 877 575 l 645 388 l 653 348 l 663 313 q 679 274 669 292 q 704 242 688 256 q 741 221 719 229 q 793 213 762 213 z "},"Ĺ":{"ha":747,"x_min":91,"x_max":722,"o":"m 98 1208 l 505 1493 l 646 1244 l 184 1059 l 98 1208 m 91 955 l 391 955 l 391 205 l 722 205 l 722 0 l 91 0 l 91 955 z "},"ĺ":{"ha":525,"x_min":67,"x_max":617,"o":"m 69 1191 l 476 1476 l 617 1227 l 155 1042 l 69 1191 m 523 37 q 314 -11 429 -11 q 209 8 255 -11 q 131 64 163 28 q 83 152 100 100 q 67 267 67 203 l 67 916 l 360 959 l 360 288 q 384 232 360 250 q 448 214 408 214 q 512 231 479 214 l 523 37 z "},"Ļ":{"ha":747,"x_min":91,"x_max":722,"o":"m 264 -412 q 336 -412 311 -412 q 375 -404 362 -411 q 390 -383 387 -397 q 393 -340 393 -368 l 264 -340 l 264 -81 l 549 -81 l 546 -222 q 541 -352 545 -297 q 526 -447 536 -408 q 498 -511 516 -486 q 449 -550 479 -536 q 372 -570 418 -564 q 264 -575 327 -575 l 264 -412 m 91 955 l 391 955 l 391 205 l 722 205 l 722 0 l 91 0 l 91 955 z "},"ļ":{"ha":525,"x_min":67,"x_max":523,"o":"m 172 -434 q 244 -433 218 -434 q 282 -426 270 -433 q 298 -405 295 -419 q 300 -362 300 -390 l 172 -362 l 172 -103 l 456 -103 l 454 -244 q 448 -374 452 -319 q 434 -469 444 -429 q 406 -533 424 -508 q 356 -572 387 -557 q 280 -591 326 -586 q 172 -597 235 -597 l 172 -434 m 523 37 q 314 -11 429 -11 q 209 8 255 -11 q 131 64 163 28 q 83 152 100 100 q 67 267 67 203 l 67 916 l 360 959 l 360 288 q 384 232 360 250 q 448 214 408 214 q 512 231 479 214 l 523 37 z "},"Ľ":{"ha":747,"x_min":91,"x_max":1131,"o":"m 846 645 q 918 646 892 645 q 957 653 944 646 q 972 674 969 660 q 975 717 975 689 l 846 717 l 846 976 l 1131 976 l 1128 835 q 1122 705 1126 760 q 1108 610 1118 650 q 1080 546 1098 571 q 1030 507 1061 522 q 954 488 1000 493 q 846 482 909 482 l 846 645 m 91 955 l 391 955 l 391 205 l 722 205 l 722 0 l 91 0 l 91 955 z "},"ľ":{"ha":525,"x_min":67,"x_max":769,"o":"m 484 628 q 557 629 531 628 q 595 636 583 629 q 610 657 608 643 q 613 700 613 672 l 484 700 l 484 959 l 769 959 l 766 818 q 761 688 765 743 q 747 593 757 633 q 718 529 736 554 q 669 490 700 505 q 593 471 638 476 q 484 465 547 465 l 484 628 m 523 37 q 314 -11 429 -11 q 209 8 255 -11 q 131 64 163 28 q 83 152 100 100 q 67 267 67 203 l 67 916 l 360 959 l 360 288 q 384 232 360 250 q 448 214 408 214 q 512 231 479 214 l 523 37 z "},"Ŀ":{"ha":747,"x_min":91,"x_max":722,"o":"m 409 488 q 422 544 409 518 q 456 589 435 570 q 506 618 478 608 q 565 629 534 629 q 626 618 597 629 q 675 587 654 606 q 709 542 696 567 q 721 488 721 516 q 708 431 721 457 q 673 387 694 406 q 623 359 651 369 q 565 349 595 349 q 504 359 532 349 q 455 389 476 370 q 421 433 433 408 q 409 488 409 458 m 91 955 l 391 955 l 391 205 l 722 205 l 722 0 l 91 0 l 91 955 z "},"ŀ":{"ha":952,"x_min":67,"x_max":895,"o":"m 583 556 q 596 612 583 586 q 631 656 609 637 q 681 686 652 675 q 739 697 709 697 q 800 686 772 697 q 849 654 828 674 q 883 609 871 635 q 895 556 895 584 q 882 499 895 525 q 847 455 869 473 q 797 427 825 437 q 739 416 769 416 q 679 427 707 416 q 629 457 650 438 q 595 501 608 475 q 583 556 583 526 m 523 37 q 314 -11 429 -11 q 209 8 255 -11 q 131 64 163 28 q 83 152 100 100 q 67 267 67 203 l 67 916 l 360 959 l 360 288 q 384 232 360 250 q 448 214 408 214 q 512 231 479 214 l 523 37 z "},"Ł":{"ha":784,"x_min":4,"x_max":760,"o":"m 4 534 l 129 566 l 129 955 l 427 955 l 427 642 l 635 696 l 635 578 l 427 524 l 427 205 l 760 205 l 760 0 l 129 0 l 129 448 l 4 416 l 4 534 z "},"ł":{"ha":585,"x_min":11,"x_max":562,"o":"m 562 26 q 373 -22 471 -22 q 269 -2 314 -22 q 192 54 223 18 q 144 142 160 90 q 127 256 127 193 l 127 452 l 11 416 l 11 534 l 127 570 l 127 916 l 420 959 l 420 659 l 540 696 l 540 578 l 420 541 l 420 277 q 487 203 420 203 q 547 220 516 203 l 562 26 z "},"Ń":{"ha":1089,"x_min":91,"x_max":998,"o":"m 299 1208 l 706 1493 l 847 1244 l 385 1059 l 299 1208 m 91 955 l 369 955 l 750 441 l 750 955 l 998 955 l 998 0 l 720 0 l 338 498 l 338 0 l 91 0 l 91 955 z "},"ń":{"ha":954,"x_min":69,"x_max":941,"o":"m 393 948 l 800 1233 l 941 985 l 479 799 l 393 948 m 69 686 l 349 686 l 349 544 q 453 666 389 626 q 604 706 517 706 q 726 680 673 706 q 815 607 779 654 q 870 494 851 560 q 888 347 888 428 l 888 0 l 597 0 l 597 376 q 592 426 597 403 q 575 466 587 449 q 547 491 564 482 q 506 500 530 500 q 451 486 476 500 q 407 450 426 471 q 377 407 389 429 q 362 368 366 384 l 362 0 l 69 0 l 69 686 z "},"Ņ":{"ha":1089,"x_min":91,"x_max":998,"o":"m 402 -412 q 475 -412 449 -412 q 513 -404 500 -411 q 528 -383 526 -397 q 531 -340 531 -368 l 402 -340 l 402 -81 l 687 -81 l 684 -222 q 679 -352 683 -297 q 665 -447 675 -408 q 636 -511 654 -486 q 587 -550 618 -536 q 511 -570 556 -564 q 402 -575 465 -575 l 402 -412 m 91 955 l 369 955 l 750 441 l 750 955 l 998 955 l 998 0 l 720 0 l 338 498 l 338 0 l 91 0 l 91 955 z "},"ņ":{"ha":954,"x_min":69,"x_max":888,"o":"m 336 -412 q 409 -412 383 -412 q 447 -404 435 -411 q 463 -383 460 -397 q 465 -340 465 -368 l 336 -340 l 336 -81 l 621 -81 l 618 -222 q 613 -352 617 -297 q 599 -447 609 -408 q 570 -511 589 -486 q 521 -550 552 -536 q 445 -570 490 -564 q 336 -575 399 -575 l 336 -412 m 69 686 l 349 686 l 349 544 q 453 666 389 626 q 604 706 517 706 q 726 680 673 706 q 815 607 779 654 q 870 494 851 560 q 888 347 888 428 l 888 0 l 597 0 l 597 376 q 592 426 597 403 q 575 466 587 449 q 547 491 564 482 q 506 500 530 500 q 451 486 476 500 q 407 450 426 471 q 377 407 389 429 q 362 368 366 384 l 362 0 l 69 0 l 69 686 z "},"Ň":{"ha":1089,"x_min":91,"x_max":998,"o":"m 245 1404 l 476 1404 l 529 1257 l 544 1202 q 558 1247 549 1221 q 578 1303 568 1274 q 597 1358 588 1331 q 613 1404 607 1385 l 844 1404 l 673 1059 l 416 1059 l 245 1404 m 91 955 l 369 955 l 750 441 l 750 955 l 998 955 l 998 0 l 720 0 l 338 498 l 338 0 l 91 0 l 91 955 z "},"ň":{"ha":954,"x_min":69,"x_max":888,"o":"m 180 1145 l 410 1145 l 463 997 l 478 943 q 493 988 484 961 q 512 1043 502 1015 q 532 1099 522 1072 q 547 1145 541 1126 l 778 1145 l 607 799 l 351 799 l 180 1145 m 69 686 l 349 686 l 349 544 q 453 666 389 626 q 604 706 517 706 q 726 680 673 706 q 815 607 779 654 q 870 494 851 560 q 888 347 888 428 l 888 0 l 597 0 l 597 376 q 592 426 597 403 q 575 466 587 449 q 547 491 564 482 q 506 500 530 500 q 451 486 476 500 q 407 450 426 471 q 377 407 389 429 q 362 368 366 384 l 362 0 l 69 0 l 69 686 z "},"ŉ":{"ha":954,"x_min":69,"x_max":888,"o":"m 69 686 l 349 686 l 349 544 q 453 666 389 626 q 604 706 517 706 q 726 680 673 706 q 815 607 779 654 q 870 494 851 560 q 888 347 888 428 l 888 0 l 597 0 l 597 376 q 592 426 597 403 q 575 466 587 449 q 547 491 564 482 q 506 500 530 500 q 451 486 476 500 q 407 450 426 471 q 377 407 389 429 q 362 368 366 384 l 362 0 l 69 0 l 69 686 m 69 920 q 142 920 116 920 q 180 928 168 921 q 195 949 193 935 q 198 991 198 964 l 69 991 l 69 1251 l 354 1251 l 351 1109 q 346 980 350 1035 q 332 885 342 924 q 303 821 321 846 q 254 782 285 796 q 178 762 223 768 q 69 757 132 757 l 69 920 z "},"Ŋ":{"ha":1089,"x_min":91,"x_max":998,"o":"m 564 -117 q 661 -137 628 -137 q 751 -22 751 -137 l 338 498 l 338 0 l 91 0 l 91 933 l 369 933 l 750 441 l 750 933 l 998 933 l 998 -22 q 981 -152 998 -93 q 929 -254 963 -212 q 847 -321 896 -297 q 738 -345 799 -345 q 500 -289 635 -345 l 564 -117 z "},"ŋ":{"ha":954,"x_min":69,"x_max":888,"o":"m 503 -115 q 597 0 597 -115 l 597 347 q 589 399 597 374 q 569 443 582 424 q 538 474 556 463 q 499 486 520 486 q 446 475 471 486 q 403 446 421 464 q 374 403 385 427 q 362 353 363 379 l 362 0 l 69 0 l 69 671 l 362 716 l 362 544 q 460 671 399 625 q 604 716 522 716 q 717 688 665 716 q 807 609 769 659 q 867 492 846 559 q 888 347 888 425 l 888 0 q 868 -143 888 -79 q 807 -250 847 -206 q 711 -318 768 -294 q 582 -342 654 -342 q 345 -269 454 -342 l 408 -96 q 503 -115 463 -115 z "},"Ō":{"ha":1108,"x_min":43,"x_max":1065,"o":"m 368 1223 l 741 1223 l 741 1059 l 368 1059 l 368 1223 m 43 476 q 175 825 43 683 q 555 976 315 976 q 766 938 671 976 q 926 834 860 901 q 1029 676 993 768 q 1065 476 1065 584 q 1050 349 1065 411 q 1005 231 1035 286 q 932 129 976 176 q 832 49 889 83 q 706 -3 776 16 q 555 -22 637 -22 q 400 -3 471 -22 q 273 50 330 16 q 173 131 216 84 q 101 233 130 178 q 58 350 73 288 q 43 476 43 412 m 555 231 q 646 253 608 231 q 708 312 684 276 q 743 391 732 347 q 754 477 754 435 q 740 578 754 532 q 700 657 726 624 q 637 711 674 691 q 555 732 600 730 q 463 708 500 731 q 400 649 425 685 q 365 567 376 612 q 354 477 354 522 q 368 379 354 425 q 408 301 382 334 q 471 250 434 269 q 555 231 509 231 z "},"ō":{"ha":871,"x_min":35,"x_max":836,"o":"m 250 963 l 623 963 l 623 799 l 250 799 l 250 963 m 307 349 q 318 282 307 311 q 347 235 329 254 q 389 206 366 216 q 437 197 413 197 q 485 206 462 197 q 527 235 509 216 q 557 282 546 254 q 568 349 568 311 q 557 415 568 387 q 527 462 546 444 q 485 490 509 481 q 437 500 462 500 q 389 490 413 500 q 347 462 366 481 q 318 415 329 444 q 307 349 307 387 m 35 349 q 72 503 39 436 q 159 614 104 569 q 284 683 213 660 q 437 706 356 706 q 598 680 525 706 q 724 606 671 653 q 806 493 777 559 q 836 349 836 427 q 819 233 836 285 q 774 142 802 182 q 707 73 745 102 q 623 25 668 44 q 531 -2 578 7 q 435 -11 483 -11 q 272 15 346 -11 q 146 89 199 41 q 64 202 93 136 q 35 349 35 269 z "},"Ŏ":{"ha":1108,"x_min":43,"x_max":1065,"o":"m 793 1296 q 775 1198 793 1242 q 726 1123 758 1154 q 651 1076 694 1093 q 555 1059 607 1059 q 458 1076 503 1059 q 383 1125 414 1093 q 334 1200 351 1156 q 317 1296 317 1244 l 470 1296 q 494 1235 470 1259 q 555 1212 518 1212 q 614 1235 593 1212 q 635 1296 635 1257 l 793 1296 m 43 476 q 175 825 43 683 q 555 976 315 976 q 766 938 671 976 q 926 834 860 901 q 1029 676 993 768 q 1065 476 1065 584 q 1050 349 1065 411 q 1005 231 1035 286 q 932 129 976 176 q 832 49 889 83 q 706 -3 776 16 q 555 -22 637 -22 q 400 -3 471 -22 q 273 50 330 16 q 173 131 216 84 q 101 233 130 178 q 58 350 73 288 q 43 476 43 412 m 555 231 q 646 253 608 231 q 708 312 684 276 q 743 391 732 347 q 754 477 754 435 q 740 578 754 532 q 700 657 726 624 q 637 711 674 691 q 555 732 600 730 q 463 708 500 731 q 400 649 425 685 q 365 567 376 612 q 354 477 354 522 q 368 379 354 425 q 408 301 382 334 q 471 250 434 269 q 555 231 509 231 z "},"ŏ":{"ha":871,"x_min":35,"x_max":836,"o":"m 675 1036 q 657 938 675 982 q 608 864 640 895 q 533 816 576 833 q 437 799 489 799 q 340 816 385 799 q 265 865 296 833 q 216 940 233 897 q 199 1036 199 984 l 352 1036 q 376 976 352 999 q 437 952 400 952 q 496 975 475 952 q 517 1036 517 998 l 675 1036 m 307 349 q 318 282 307 311 q 347 235 329 254 q 389 206 366 216 q 437 197 413 197 q 485 206 462 197 q 527 235 509 216 q 557 282 546 254 q 568 349 568 311 q 557 415 568 387 q 527 462 546 444 q 485 490 509 481 q 437 500 462 500 q 389 490 413 500 q 347 462 366 481 q 318 415 329 444 q 307 349 307 387 m 35 349 q 72 503 39 436 q 159 614 104 569 q 284 683 213 660 q 437 706 356 706 q 598 680 525 706 q 724 606 671 653 q 806 493 777 559 q 836 349 836 427 q 819 233 836 285 q 774 142 802 182 q 707 73 745 102 q 623 25 668 44 q 531 -2 578 7 q 435 -11 483 -11 q 272 15 346 -11 q 146 89 199 41 q 64 202 93 136 q 35 349 35 269 z "},"Ő":{"ha":1108,"x_min":43,"x_max":1065,"o":"m 331 1594 l 602 1514 l 399 1060 l 233 1107 l 331 1594 m 739 1597 l 993 1470 l 711 1059 l 557 1135 l 739 1597 m 43 476 q 175 825 43 683 q 555 976 315 976 q 766 938 671 976 q 926 834 860 901 q 1029 676 993 768 q 1065 476 1065 584 q 1050 349 1065 411 q 1005 231 1035 286 q 932 129 976 176 q 832 49 889 83 q 706 -3 776 16 q 555 -22 637 -22 q 400 -3 471 -22 q 273 50 330 16 q 173 131 216 84 q 101 233 130 178 q 58 350 73 288 q 43 476 43 412 m 555 231 q 646 253 608 231 q 708 312 684 276 q 743 391 732 347 q 754 477 754 435 q 740 578 754 532 q 700 657 726 624 q 637 711 674 691 q 555 732 600 730 q 463 708 500 731 q 400 649 425 685 q 365 567 376 612 q 354 477 354 522 q 368 379 354 425 q 408 301 382 334 q 471 250 434 269 q 555 231 509 231 z "},"ő":{"ha":871,"x_min":35,"x_max":875,"o":"m 213 1336 l 484 1256 l 281 802 l 115 849 l 213 1336 m 621 1339 l 875 1211 l 593 800 l 439 876 l 621 1339 m 307 349 q 318 282 307 311 q 347 235 329 254 q 389 206 366 216 q 437 197 413 197 q 485 206 462 197 q 527 235 509 216 q 557 282 546 254 q 568 349 568 311 q 557 415 568 387 q 527 462 546 444 q 485 490 509 481 q 437 500 462 500 q 389 490 413 500 q 347 462 366 481 q 318 415 329 444 q 307 349 307 387 m 35 349 q 72 503 39 436 q 159 614 104 569 q 284 683 213 660 q 437 706 356 706 q 598 680 525 706 q 724 606 671 653 q 806 493 777 559 q 836 349 836 427 q 819 233 836 285 q 774 142 802 182 q 707 73 745 102 q 623 25 668 44 q 531 -2 578 7 q 435 -11 483 -11 q 272 15 346 -11 q 146 89 199 41 q 64 202 93 136 q 35 349 35 269 z "},"Œ":{"ha":1423,"x_min":43,"x_max":1356,"o":"m 483 959 q 539 955 513 959 q 591 942 566 950 q 641 920 616 933 q 692 891 665 907 l 692 933 l 1356 933 l 1356 723 l 1023 723 l 1023 571 l 1328 571 l 1328 396 l 1023 396 l 1023 209 l 1356 209 l 1356 0 l 688 0 l 688 41 q 472 -22 568 -22 q 153 136 275 -22 q 43 469 43 279 q 57 585 43 526 q 98 698 71 644 q 162 800 124 753 q 250 883 201 848 q 357 939 298 918 q 483 959 416 959 m 507 229 q 688 250 609 229 l 688 690 q 507 712 589 712 q 445 694 473 712 q 397 645 417 677 q 365 569 376 614 q 354 471 354 524 q 363 378 354 422 q 391 301 372 334 q 439 249 410 269 q 507 229 468 229 z "},"œ":{"ha":1284,"x_min":35,"x_max":1253,"o":"m 986 178 q 1025 180 1006 178 q 1065 186 1044 182 q 1101 195 1088 191 q 1127 202 1115 198 q 1153 211 1139 205 q 1191 227 1167 217 l 1225 35 q 940 -22 1099 -22 q 684 91 790 -22 q 435 -22 581 -22 q 272 6 346 -22 q 146 83 199 34 q 64 201 93 133 q 35 349 35 269 q 69 507 35 439 q 161 623 103 575 q 281 690 210 663 q 437 716 351 716 q 684 617 576 716 q 932 716 791 716 q 1063 691 1004 716 q 1165 620 1122 666 q 1230 509 1207 574 q 1253 365 1253 444 q 1253 347 1253 355 q 1251 330 1252 338 l 833 275 q 887 202 850 226 q 986 178 923 178 m 437 210 q 491 224 468 210 q 530 259 515 238 q 554 304 546 280 q 562 349 562 328 q 551 402 562 377 q 524 446 541 427 q 485 476 507 465 q 437 487 462 487 q 386 476 409 487 q 347 445 363 465 q 321 401 330 426 q 312 349 312 376 q 322 294 312 319 q 349 251 332 269 q 389 221 366 232 q 437 210 411 210 m 1038 450 q 932 537 1014 537 q 885 527 905 537 q 852 498 865 517 q 831 456 838 480 q 822 403 823 431 l 1038 450 z "},"Ŕ":{"ha":969,"x_min":91,"x_max":942,"o":"m 218 1208 l 625 1493 l 766 1244 l 303 1059 l 218 1208 m 942 3 q 814 -22 853 -22 q 498 208 562 -22 l 460 362 l 395 362 l 395 0 l 91 0 l 91 955 l 515 955 q 671 936 598 955 q 797 882 743 918 q 882 794 851 846 q 913 674 913 742 q 900 584 913 624 q 864 513 888 545 q 806 457 840 481 q 728 414 772 433 l 734 380 q 739 361 736 369 q 742 347 741 353 l 749 318 q 768 274 758 292 q 795 245 779 256 q 835 229 811 234 q 894 224 859 224 q 911 225 899 224 q 942 229 923 227 l 942 3 m 635 661 q 624 704 635 687 q 593 731 612 722 q 547 745 573 741 q 490 749 520 749 l 395 749 l 395 557 l 448 557 l 492 559 q 544 567 519 562 q 590 583 570 572 q 623 613 610 594 q 635 661 635 631 z "},"ŕ":{"ha":620,"x_min":59,"x_max":618,"o":"m 59 948 l 466 1233 l 607 985 l 144 799 l 59 948 m 69 686 l 362 686 l 362 544 q 451 667 395 628 q 578 706 506 706 l 618 479 q 424 451 486 479 q 362 361 362 422 l 362 0 l 69 0 l 69 686 z "},"Ŗ":{"ha":969,"x_min":91,"x_max":942,"o":"m 362 -434 q 435 -433 409 -434 q 473 -426 460 -433 q 488 -405 486 -419 q 491 -362 491 -390 l 362 -362 l 362 -103 l 647 -103 l 644 -244 q 639 -374 643 -319 q 625 -469 635 -429 q 596 -533 614 -508 q 547 -572 578 -557 q 471 -591 516 -586 q 362 -597 425 -597 l 362 -434 m 942 3 q 814 -22 853 -22 q 498 208 562 -22 l 460 362 l 395 362 l 395 0 l 91 0 l 91 955 l 515 955 q 671 936 598 955 q 797 882 743 918 q 882 794 851 846 q 913 674 913 742 q 900 584 913 624 q 864 513 888 545 q 806 457 840 481 q 728 414 772 433 l 734 380 q 739 361 736 369 q 742 347 741 353 l 749 318 q 768 274 758 292 q 795 245 779 256 q 835 229 811 234 q 894 224 859 224 q 911 225 899 224 q 942 229 923 227 l 942 3 m 635 661 q 624 704 635 687 q 593 731 612 722 q 547 745 573 741 q 490 749 520 749 l 395 749 l 395 557 l 448 557 l 492 559 q 544 567 519 562 q 590 583 570 572 q 623 613 610 594 q 635 661 635 631 z "},"ŗ":{"ha":620,"x_min":69,"x_max":618,"o":"m 73 -412 q 146 -412 120 -412 q 184 -404 172 -411 q 199 -383 197 -397 q 202 -340 202 -368 l 73 -340 l 73 -81 l 358 -81 l 355 -222 q 350 -352 354 -297 q 336 -447 346 -408 q 307 -511 326 -486 q 258 -550 289 -536 q 182 -570 227 -564 q 73 -575 136 -575 l 73 -412 m 69 686 l 362 686 l 362 544 q 451 667 395 628 q 578 706 506 706 l 618 479 q 424 451 486 479 q 362 361 362 422 l 362 0 l 69 0 l 69 686 z "},"Ř":{"ha":969,"x_min":5,"x_max":942,"o":"m 5 1404 l 236 1404 l 289 1257 l 304 1202 q 318 1247 309 1221 q 338 1303 328 1274 q 357 1358 348 1331 q 373 1404 367 1385 l 604 1404 l 433 1059 l 176 1059 l 5 1404 m 942 3 q 814 -22 853 -22 q 498 208 562 -22 l 460 362 l 395 362 l 395 0 l 91 0 l 91 955 l 515 955 q 671 936 598 955 q 797 882 743 918 q 882 794 851 846 q 913 674 913 742 q 900 584 913 624 q 864 513 888 545 q 806 457 840 481 q 728 414 772 433 l 734 380 q 739 361 736 369 q 742 347 741 353 l 749 318 q 768 274 758 292 q 795 245 779 256 q 835 229 811 234 q 894 224 859 224 q 911 225 899 224 q 942 229 923 227 l 942 3 m 635 661 q 624 704 635 687 q 593 731 612 722 q 547 745 573 741 q 490 749 520 749 l 395 749 l 395 557 l 448 557 l 492 559 q 544 567 519 562 q 590 583 570 572 q 623 613 610 594 q 635 661 635 631 z "},"ř":{"ha":620,"x_min":45,"x_max":643,"o":"m 45 1145 l 275 1145 l 328 997 l 343 943 q 358 988 349 961 q 377 1043 367 1015 q 397 1099 387 1072 q 412 1145 406 1126 l 643 1145 l 472 799 l 216 799 l 45 1145 m 69 686 l 362 686 l 362 544 q 451 667 395 628 q 578 706 506 706 l 618 479 q 424 451 486 479 q 362 361 362 422 l 362 0 l 69 0 l 69 686 z "},"Ś":{"ha":823,"x_min":47,"x_max":781,"o":"m 195 1208 l 602 1493 l 743 1245 l 281 1059 l 195 1208 m 781 312 q 755 164 781 227 q 680 60 729 101 q 561 -1 631 19 q 400 -22 490 -22 q 52 50 201 -22 q 117 239 93 153 q 125 263 121 253 l 227 238 q 266 229 245 234 q 308 221 287 224 q 348 214 329 217 q 381 212 367 212 q 426 213 404 212 q 463 221 447 215 q 489 239 479 227 q 499 270 499 250 q 477 310 499 294 q 421 339 454 326 q 347 362 387 352 q 273 385 307 373 q 183 426 224 400 q 112 487 142 452 q 64 568 81 523 q 47 667 47 613 q 419 977 47 977 q 747 903 595 977 l 673 696 q 569 723 607 713 q 507 737 530 732 q 471 743 484 742 q 442 745 457 745 l 419 745 q 407 745 412 745 q 397 745 401 745 q 350 736 366 745 q 334 699 334 727 q 408 633 334 656 q 687 509 592 591 q 781 312 781 428 z "},"ś":{"ha":642,"x_min":38,"x_max":618,"o":"m 71 948 l 477 1233 l 618 985 l 156 799 l 71 948 m 370 533 q 288 505 288 533 q 294 485 288 494 q 310 470 300 477 q 332 460 320 464 q 357 454 345 456 q 456 430 410 446 q 535 385 502 413 q 588 317 569 357 q 608 221 608 277 q 588 123 608 166 q 534 50 569 80 q 453 5 500 20 q 351 -11 406 -11 q 189 -3 262 -11 q 54 33 115 5 l 85 193 q 124 182 108 186 q 152 175 141 177 q 178 170 162 173 q 211 164 193 167 q 248 159 229 161 q 281 157 266 157 q 350 190 350 157 q 339 213 348 203 q 318 230 331 222 q 289 241 305 237 q 254 250 272 246 q 160 277 201 260 q 93 320 120 294 q 52 386 66 347 q 38 479 38 425 q 64 583 41 540 q 126 653 87 626 q 219 693 165 681 q 335 706 272 706 q 459 699 401 706 q 568 667 517 692 l 538 502 q 370 533 437 533 z "},"Ŝ":{"ha":823,"x_min":47,"x_max":781,"o":"m 291 1405 l 547 1405 l 718 1059 l 488 1059 l 435 1207 l 418 1260 l 404 1207 l 351 1059 l 120 1059 l 291 1405 m 781 312 q 755 164 781 227 q 680 60 729 101 q 561 -1 631 19 q 400 -22 490 -22 q 52 50 201 -22 q 117 239 93 153 q 125 263 121 253 l 227 238 q 266 229 245 234 q 308 221 287 224 q 348 214 329 217 q 381 212 367 212 q 426 213 404 212 q 463 221 447 215 q 489 239 479 227 q 499 270 499 250 q 477 310 499 294 q 421 339 454 326 q 347 362 387 352 q 273 385 307 373 q 183 426 224 400 q 112 487 142 452 q 64 568 81 523 q 47 667 47 613 q 419 977 47 977 q 747 903 595 977 l 673 696 q 569 723 607 713 q 507 737 530 732 q 471 743 484 742 q 442 745 457 745 l 419 745 q 407 745 412 745 q 397 745 401 745 q 350 736 366 745 q 334 699 334 727 q 408 633 334 656 q 687 509 592 591 q 781 312 781 428 z "},"ŝ":{"ha":642,"x_min":36,"x_max":634,"o":"m 207 1145 l 463 1145 l 634 799 l 404 799 l 351 947 l 334 1000 l 319 947 l 267 799 l 36 799 l 207 1145 m 370 533 q 288 505 288 533 q 294 485 288 494 q 310 470 300 477 q 332 460 320 464 q 357 454 345 456 q 456 430 410 446 q 535 385 502 413 q 588 317 569 357 q 608 221 608 277 q 588 123 608 166 q 534 50 569 80 q 453 5 500 20 q 351 -11 406 -11 q 189 -3 262 -11 q 54 33 115 5 l 85 193 q 124 182 108 186 q 152 175 141 177 q 178 170 162 173 q 211 164 193 167 q 248 159 229 161 q 281 157 266 157 q 350 190 350 157 q 339 213 348 203 q 318 230 331 222 q 289 241 305 237 q 254 250 272 246 q 160 277 201 260 q 93 320 120 294 q 52 386 66 347 q 38 479 38 425 q 64 583 41 540 q 126 653 87 626 q 219 693 165 681 q 335 706 272 706 q 459 699 401 706 q 568 667 517 692 l 538 502 q 370 533 437 533 z "},"Ş":{"ha":823,"x_min":47,"x_max":781,"o":"m 404 -195 q 382 -146 404 -162 q 323 -131 360 -131 l 321 -131 l 361 -9 l 439 -9 l 412 -87 q 517 -122 479 -95 q 555 -196 555 -149 q 534 -268 555 -238 q 483 -317 513 -298 q 417 -345 452 -336 q 355 -353 382 -353 q 233 -323 294 -353 l 252 -272 q 314 -281 288 -281 q 404 -195 404 -281 m 781 312 q 755 164 781 227 q 680 60 729 101 q 561 -1 631 19 q 400 -22 490 -22 q 52 50 201 -22 q 117 239 93 153 q 125 263 121 253 l 227 238 q 266 229 245 234 q 308 221 287 224 q 348 214 329 217 q 381 212 367 212 q 426 213 404 212 q 463 221 447 215 q 489 239 479 227 q 499 270 499 250 q 477 310 499 294 q 421 339 454 326 q 347 362 387 352 q 273 385 307 373 q 183 426 224 400 q 112 487 142 452 q 64 568 81 523 q 47 667 47 613 q 419 977 47 977 q 747 903 595 977 l 673 696 q 569 723 607 713 q 507 737 530 732 q 471 743 484 742 q 442 745 457 745 l 419 745 q 407 745 412 745 q 397 745 401 745 q 350 736 366 745 q 334 699 334 727 q 408 633 334 656 q 687 509 592 591 q 781 312 781 428 z "},"ş":{"ha":642,"x_min":38,"x_max":608,"o":"m 355 -195 q 333 -146 355 -162 q 275 -131 311 -131 l 272 -131 l 313 -9 l 390 -9 l 363 -87 q 469 -122 431 -95 q 507 -196 507 -149 q 486 -268 507 -238 q 434 -317 465 -298 q 369 -345 404 -336 q 306 -353 334 -353 q 184 -323 245 -353 l 203 -272 q 265 -281 239 -281 q 355 -195 355 -281 m 370 533 q 288 505 288 533 q 294 485 288 494 q 310 470 300 477 q 332 460 320 464 q 357 454 345 456 q 456 430 410 446 q 535 385 502 413 q 588 317 569 357 q 608 221 608 277 q 588 123 608 166 q 534 50 569 80 q 453 5 500 20 q 351 -11 406 -11 q 189 -3 262 -11 q 54 33 115 5 l 85 193 q 124 182 108 186 q 152 175 141 177 q 178 170 162 173 q 211 164 193 167 q 248 159 229 161 q 281 157 266 157 q 350 190 350 157 q 339 213 348 203 q 318 230 331 222 q 289 241 305 237 q 254 250 272 246 q 160 277 201 260 q 93 320 120 294 q 52 386 66 347 q 38 479 38 425 q 64 583 41 540 q 126 653 87 626 q 219 693 165 681 q 335 706 272 706 q 459 699 401 706 q 568 667 517 692 l 538 502 q 370 533 437 533 z "},"Š":{"ha":823,"x_min":47,"x_max":781,"o":"m 120 1405 l 351 1405 l 404 1257 l 418 1203 q 433 1248 424 1221 q 452 1303 442 1275 q 472 1359 463 1332 q 488 1405 481 1386 l 718 1405 l 547 1059 l 291 1059 l 120 1405 m 781 312 q 755 164 781 227 q 680 60 729 101 q 561 -1 631 19 q 400 -22 490 -22 q 52 50 201 -22 q 117 239 93 153 q 125 263 121 253 l 227 238 q 266 229 245 234 q 308 221 287 224 q 348 214 329 217 q 381 212 367 212 q 426 213 404 212 q 463 221 447 215 q 489 239 479 227 q 499 270 499 250 q 477 310 499 294 q 421 339 454 326 q 347 362 387 352 q 273 385 307 373 q 183 426 224 400 q 112 487 142 452 q 64 568 81 523 q 47 667 47 613 q 419 977 47 977 q 747 903 595 977 l 673 696 q 569 723 607 713 q 507 737 530 732 q 471 743 484 742 q 442 745 457 745 l 419 745 q 407 745 412 745 q 397 745 401 745 q 350 736 366 745 q 334 699 334 727 q 408 633 334 656 q 687 509 592 591 q 781 312 781 428 z "},"š":{"ha":642,"x_min":36,"x_max":634,"o":"m 36 1145 l 267 1145 l 319 997 l 334 943 q 349 988 340 961 q 368 1043 358 1015 q 388 1099 378 1072 q 404 1145 397 1126 l 634 1145 l 463 799 l 207 799 l 36 1145 m 370 533 q 288 505 288 533 q 294 485 288 494 q 310 470 300 477 q 332 460 320 464 q 357 454 345 456 q 456 430 410 446 q 535 385 502 413 q 588 317 569 357 q 608 221 608 277 q 588 123 608 166 q 534 50 569 80 q 453 5 500 20 q 351 -11 406 -11 q 189 -3 262 -11 q 54 33 115 5 l 85 193 q 124 182 108 186 q 152 175 141 177 q 178 170 162 173 q 211 164 193 167 q 248 159 229 161 q 281 157 266 157 q 350 190 350 157 q 339 213 348 203 q 318 230 331 222 q 289 241 305 237 q 254 250 272 246 q 160 277 201 260 q 93 320 120 294 q 52 386 66 347 q 38 479 38 425 q 64 583 41 540 q 126 653 87 626 q 219 693 165 681 q 335 706 272 706 q 459 699 401 706 q 568 667 517 692 l 538 502 q 370 533 437 533 z "},"Ţ":{"ha":802,"x_min":41,"x_max":761,"o":"m 404 -174 q 382 -126 404 -142 q 324 -111 361 -111 l 321 -111 l 362 12 l 439 12 l 412 -67 q 518 -102 480 -75 q 556 -176 556 -129 q 535 -248 556 -218 q 484 -296 514 -277 q 418 -324 453 -315 q 355 -333 383 -333 q 233 -303 295 -333 l 252 -252 q 315 -261 288 -261 q 404 -174 404 -261 m 239 753 l 41 753 l 41 955 l 761 955 l 761 753 l 563 753 l 563 0 l 239 0 l 239 753 z "},"ţ":{"ha":604,"x_min":26,"x_max":569,"o":"m 363 -195 q 342 -146 363 -162 q 283 -131 320 -131 l 281 -131 l 321 -9 l 399 -9 l 372 -87 q 477 -122 439 -95 q 515 -196 515 -149 q 494 -268 515 -238 q 443 -317 473 -298 q 377 -345 412 -336 q 315 -353 342 -353 q 193 -323 254 -353 l 212 -272 q 274 -281 248 -281 q 363 -195 363 -281 m 569 37 q 360 -11 475 -11 q 255 8 301 -11 q 177 64 209 28 q 130 152 146 100 q 113 267 113 203 l 115 524 l 26 524 l 26 696 l 136 696 l 265 959 l 406 959 l 406 696 l 566 696 l 566 524 l 406 524 l 406 288 q 430 233 406 251 q 494 214 454 214 q 558 231 526 214 l 569 37 z "},"Ť":{"ha":802,"x_min":41,"x_max":761,"o":"m 102 1404 l 332 1404 l 385 1257 l 400 1202 q 415 1247 406 1221 q 434 1303 424 1274 q 454 1358 444 1331 q 469 1404 463 1385 l 700 1404 l 529 1059 l 273 1059 l 102 1404 m 239 753 l 41 753 l 41 955 l 761 955 l 761 753 l 563 753 l 563 0 l 239 0 l 239 753 z "},"ť":{"ha":604,"x_min":26,"x_max":888,"o":"m 604 694 q 676 695 650 694 q 714 703 702 696 q 730 724 727 709 q 732 766 732 739 l 604 766 l 604 1025 l 888 1025 l 886 884 q 880 754 884 810 q 866 660 876 699 q 838 596 856 621 q 788 557 819 571 q 712 537 758 543 q 604 532 667 532 l 604 694 m 569 37 q 360 -11 475 -11 q 255 8 301 -11 q 177 64 209 28 q 130 152 146 100 q 113 267 113 203 l 115 524 l 26 524 l 26 696 l 136 696 l 265 959 l 406 959 l 406 696 l 566 696 l 566 524 l 406 524 l 406 288 q 430 233 406 251 q 494 214 454 214 q 558 231 526 214 l 569 37 z "},"Ŧ":{"ha":815,"x_min":47,"x_max":768,"o":"m 245 351 l 146 351 l 146 469 l 245 469 l 245 731 l 47 731 l 47 933 l 768 933 l 768 731 l 570 731 l 570 469 l 669 469 l 669 351 l 570 351 l 570 0 l 245 0 l 245 351 z "},"ŧ":{"ha":625,"x_min":38,"x_max":581,"o":"m 581 26 q 372 -22 486 -22 q 266 -2 312 -22 q 189 54 220 18 q 141 141 157 90 q 125 256 125 193 l 125 351 l 47 351 l 47 469 l 126 469 l 126 524 l 38 524 l 38 696 l 126 696 l 126 864 l 418 959 l 418 696 l 578 696 l 578 524 l 418 524 l 418 469 l 570 469 l 570 351 l 418 351 l 418 277 q 441 222 418 240 q 506 203 465 203 q 570 220 538 203 l 581 26 z "},"Ũ":{"ha":1108,"x_min":82,"x_max":1026,"o":"m 455 1136 q 428 1129 439 1136 q 408 1113 416 1123 q 393 1089 399 1102 q 382 1063 387 1076 l 218 1129 q 265 1232 239 1187 q 322 1307 292 1276 q 387 1354 353 1338 q 456 1371 421 1371 q 499 1363 477 1371 q 532 1351 520 1356 l 564 1332 q 568 1329 565 1331 q 576 1323 572 1326 l 606 1306 q 630 1297 618 1300 q 659 1293 643 1293 q 728 1356 706 1293 l 890 1289 q 792 1114 848 1169 q 664 1059 735 1059 q 617 1064 637 1059 q 578 1079 596 1070 q 546 1097 561 1087 q 516 1116 531 1107 q 487 1130 502 1124 q 455 1136 472 1136 m 554 229 q 672 272 632 229 q 713 396 713 314 l 713 955 l 1026 955 l 1026 396 q 1007 263 1026 323 q 954 158 987 204 q 875 77 920 111 q 777 21 829 43 q 667 -11 724 -1 q 554 -22 610 -22 q 227 84 361 -22 q 82 396 82 197 l 82 955 l 395 955 l 395 396 q 554 229 395 229 z "},"ũ":{"ha":872,"x_min":64,"x_max":807,"o":"m 336 876 q 309 870 321 876 q 289 853 298 863 q 274 829 280 842 q 263 803 268 816 l 99 869 q 146 972 120 927 q 204 1047 173 1017 q 269 1095 235 1078 q 338 1111 302 1111 q 380 1104 359 1111 q 413 1091 401 1097 l 445 1072 q 450 1069 446 1071 q 458 1063 453 1067 l 487 1046 q 512 1037 499 1040 q 540 1034 524 1034 q 609 1096 587 1034 l 772 1029 q 673 854 730 909 q 545 799 616 799 q 498 805 519 799 q 460 819 477 810 q 427 838 442 827 q 398 856 412 848 q 368 870 383 865 q 336 876 353 876 m 350 289 q 357 255 350 271 q 377 229 364 240 q 406 212 389 218 q 441 206 422 206 q 474 213 458 206 q 501 230 490 219 q 519 256 513 241 q 526 289 526 271 l 526 696 l 807 696 l 807 298 q 779 169 807 227 q 702 72 751 112 q 586 11 653 32 q 439 -11 519 -11 q 293 10 361 -11 q 174 70 224 31 q 93 168 123 110 q 64 298 64 225 l 64 696 l 350 696 l 350 289 z "},"Ū":{"ha":1108,"x_min":82,"x_max":1026,"o":"m 368 1223 l 741 1223 l 741 1059 l 368 1059 l 368 1223 m 554 229 q 672 272 632 229 q 713 396 713 314 l 713 955 l 1026 955 l 1026 396 q 1007 263 1026 323 q 954 158 987 204 q 875 77 920 111 q 777 21 829 43 q 667 -11 724 -1 q 554 -22 610 -22 q 227 84 361 -22 q 82 396 82 197 l 82 955 l 395 955 l 395 396 q 554 229 395 229 z "},"ū":{"ha":872,"x_min":64,"x_max":807,"o":"m 249 963 l 622 963 l 622 799 l 249 799 l 249 963 m 350 289 q 357 255 350 271 q 377 229 364 240 q 406 212 389 218 q 441 206 422 206 q 474 213 458 206 q 501 230 490 219 q 519 256 513 241 q 526 289 526 271 l 526 696 l 807 696 l 807 298 q 779 169 807 227 q 702 72 751 112 q 586 11 653 32 q 439 -11 519 -11 q 293 10 361 -11 q 174 70 224 31 q 93 168 123 110 q 64 298 64 225 l 64 696 l 350 696 l 350 289 z "},"Ŭ":{"ha":1108,"x_min":82,"x_max":1026,"o":"m 792 1296 q 774 1198 792 1242 q 725 1123 757 1154 q 650 1076 694 1093 q 555 1059 606 1059 q 458 1076 502 1059 q 382 1125 414 1093 q 333 1200 351 1156 q 316 1296 316 1244 l 469 1296 q 493 1235 469 1259 q 555 1212 517 1212 q 613 1235 592 1212 q 635 1296 635 1257 l 792 1296 m 554 229 q 672 272 632 229 q 713 396 713 314 l 713 955 l 1026 955 l 1026 396 q 1007 263 1026 323 q 954 158 987 204 q 875 77 920 111 q 777 21 829 43 q 667 -11 724 -1 q 554 -22 610 -22 q 227 84 361 -22 q 82 396 82 197 l 82 955 l 395 955 l 395 396 q 554 229 395 229 z "},"ŭ":{"ha":872,"x_min":64,"x_max":807,"o":"m 673 1036 q 656 938 673 982 q 607 864 638 895 q 531 816 575 833 q 436 799 488 799 q 339 816 383 799 q 263 865 295 833 q 215 940 232 897 q 197 1036 197 984 l 351 1036 q 375 976 351 999 q 436 952 399 952 q 495 975 473 952 q 516 1036 516 998 l 673 1036 m 350 289 q 357 255 350 271 q 377 229 364 240 q 406 212 389 218 q 441 206 422 206 q 474 213 458 206 q 501 230 490 219 q 519 256 513 241 q 526 289 526 271 l 526 696 l 807 696 l 807 298 q 779 169 807 227 q 702 72 751 112 q 586 11 653 32 q 439 -11 519 -11 q 293 10 361 -11 q 174 70 224 31 q 93 168 123 110 q 64 298 64 225 l 64 696 l 350 696 l 350 289 z "},"Ů":{"ha":1108,"x_min":82,"x_max":1026,"o":"m 552 1383 q 518 1376 534 1383 q 492 1358 503 1370 q 475 1331 481 1347 q 469 1296 469 1315 q 493 1235 469 1257 q 555 1212 517 1212 q 614 1235 593 1212 q 635 1296 635 1257 q 612 1359 635 1335 q 552 1383 589 1383 m 316 1296 q 334 1395 316 1351 q 384 1471 352 1439 q 459 1519 416 1502 q 555 1536 503 1536 q 655 1517 611 1536 q 730 1466 699 1498 q 776 1389 760 1433 q 792 1296 792 1345 q 774 1198 792 1242 q 725 1123 757 1154 q 650 1076 694 1093 q 555 1059 606 1059 q 458 1076 502 1059 q 382 1125 414 1093 q 333 1200 351 1156 q 316 1296 316 1244 m 554 229 q 672 272 632 229 q 713 396 713 314 l 713 955 l 1026 955 l 1026 396 q 1007 263 1026 323 q 954 158 987 204 q 875 77 920 111 q 777 21 829 43 q 667 -11 724 -1 q 554 -22 610 -22 q 227 84 361 -22 q 82 396 82 197 l 82 955 l 395 955 l 395 396 q 554 229 395 229 z "},"ů":{"ha":872,"x_min":64,"x_max":807,"o":"m 433 1123 q 400 1117 415 1123 q 374 1099 385 1110 q 357 1071 363 1087 q 351 1036 351 1055 q 375 975 351 998 q 436 952 399 952 q 495 975 475 952 q 516 1036 516 998 q 493 1099 516 1075 q 433 1123 471 1123 m 197 1036 q 215 1135 197 1091 q 265 1211 233 1179 q 341 1259 297 1242 q 436 1276 385 1276 q 536 1257 492 1276 q 611 1206 581 1238 q 657 1129 642 1173 q 673 1036 673 1086 q 656 938 673 982 q 607 864 638 895 q 531 816 575 833 q 436 799 488 799 q 339 816 383 799 q 263 865 295 833 q 215 940 232 897 q 197 1036 197 984 m 350 289 q 357 255 350 271 q 377 229 364 240 q 406 212 389 218 q 441 206 422 206 q 474 213 458 206 q 501 230 490 219 q 519 256 513 241 q 526 289 526 271 l 526 696 l 807 696 l 807 298 q 779 169 807 227 q 702 72 751 112 q 586 11 653 32 q 439 -11 519 -11 q 293 10 361 -11 q 174 70 224 31 q 93 168 123 110 q 64 298 64 225 l 64 696 l 350 696 l 350 289 z "},"Ű":{"ha":1108,"x_min":82,"x_max":1026,"o":"m 330 1594 l 602 1514 l 398 1060 l 233 1107 l 330 1594 m 739 1597 l 992 1470 l 710 1059 l 557 1135 l 739 1597 m 554 229 q 672 272 632 229 q 713 396 713 314 l 713 955 l 1026 955 l 1026 396 q 1007 263 1026 323 q 954 158 987 204 q 875 77 920 111 q 777 21 829 43 q 667 -11 724 -1 q 554 -22 610 -22 q 227 84 361 -22 q 82 396 82 197 l 82 955 l 395 955 l 395 396 q 554 229 395 229 z "},"ű":{"ha":872,"x_min":64,"x_max":873,"o":"m 212 1336 l 483 1256 l 279 802 l 114 849 l 212 1336 m 620 1339 l 873 1211 l 591 800 l 438 876 l 620 1339 m 350 289 q 357 255 350 271 q 377 229 364 240 q 406 212 389 218 q 441 206 422 206 q 474 213 458 206 q 501 230 490 219 q 519 256 513 241 q 526 289 526 271 l 526 696 l 807 696 l 807 298 q 779 169 807 227 q 702 72 751 112 q 586 11 653 32 q 439 -11 519 -11 q 293 10 361 -11 q 174 70 224 31 q 93 168 123 110 q 64 298 64 225 l 64 696 l 350 696 l 350 289 z "},"Ų":{"ha":1108,"x_min":82,"x_max":1026,"o":"m 549 -281 q 614 -272 568 -281 l 615 -323 q 481 -353 543 -353 q 421 -346 449 -353 q 373 -323 393 -338 q 341 -286 353 -309 q 329 -234 329 -264 q 339 -187 329 -210 q 366 -144 350 -165 q 402 -106 382 -124 q 440 -72 422 -87 l 479 -39 q 502 -21 492 -28 q 516 -9 511 -14 l 592 -9 q 549 -92 570 -54 q 505 -161 527 -130 l 492 -182 q 484 -203 488 -188 q 479 -231 479 -218 q 549 -281 479 -281 m 554 229 q 672 272 632 229 q 713 396 713 314 l 713 955 l 1026 955 l 1026 396 q 1007 263 1026 323 q 954 158 987 204 q 875 77 920 111 q 777 21 829 43 q 667 -11 724 -1 q 554 -22 610 -22 q 227 84 361 -22 q 82 396 82 197 l 82 955 l 395 955 l 395 396 q 554 229 395 229 z "},"ų":{"ha":872,"x_min":64,"x_max":807,"o":"m 472 -281 q 537 -272 492 -281 l 538 -323 q 404 -353 467 -353 q 345 -346 372 -353 q 296 -323 317 -338 q 264 -286 276 -309 q 252 -234 252 -264 q 263 -187 252 -210 q 290 -144 273 -165 q 326 -106 306 -124 q 363 -72 345 -87 l 402 -39 q 425 -21 416 -28 q 439 -9 435 -14 l 515 -9 q 472 -92 494 -54 q 429 -161 450 -130 l 415 -182 q 407 -203 411 -188 q 403 -231 403 -218 q 472 -281 403 -281 m 350 289 q 357 255 350 271 q 377 229 364 240 q 406 212 389 218 q 441 206 422 206 q 474 213 458 206 q 501 230 490 219 q 519 256 513 241 q 526 289 526 271 l 526 696 l 807 696 l 807 298 q 779 169 807 227 q 702 72 751 112 q 586 11 653 32 q 439 -11 519 -11 q 293 10 361 -11 q 174 70 224 31 q 93 168 123 110 q 64 298 64 225 l 64 696 l 350 696 l 350 289 z "},"Ŵ":{"ha":1375,"x_min":29,"x_max":1346,"o":"m 559 1404 l 816 1404 l 987 1059 l 756 1059 l 703 1206 l 687 1259 l 672 1206 l 619 1059 l 389 1059 l 559 1404 m 29 955 l 341 955 l 432 346 l 526 793 l 848 793 l 943 346 l 1033 955 l 1346 955 l 1129 0 l 805 0 l 687 514 l 569 0 l 246 0 l 29 955 z "},"ŵ":{"ha":1158,"x_min":28,"x_max":1129,"o":"m 450 1145 l 707 1145 l 878 799 l 647 799 l 594 947 l 578 1000 l 563 947 l 510 799 l 279 799 l 450 1145 m 28 696 l 311 696 l 390 244 q 406 312 398 278 q 421 384 413 347 q 437 463 429 421 q 456 554 446 505 l 486 696 l 725 696 l 794 369 l 820 233 l 847 369 l 901 696 l 1129 696 l 985 0 l 649 0 l 574 368 l 501 0 l 181 0 l 28 696 z "},"Ŷ":{"ha":850,"x_min":-4,"x_max":859,"o":"m 299 1404 l 555 1404 l 726 1059 l 496 1059 l 443 1206 l 427 1259 l 412 1206 l 359 1059 l 128 1059 l 299 1404 m 271 266 l -4 955 l 286 955 l 420 526 l 553 955 l 859 955 l 570 266 l 570 0 l 271 0 l 271 266 z "},"ŷ":{"ha":928,"x_min":66,"x_max":857,"o":"m 334 1145 l 590 1145 l 761 799 l 530 799 l 477 947 l 461 1000 l 446 947 l 393 799 l 163 799 l 334 1145 m 578 115 q 377 0 513 0 q 258 22 315 0 q 159 83 202 44 q 92 177 117 123 q 66 294 66 231 l 66 696 l 358 696 l 358 308 q 367 270 358 288 q 388 238 375 252 q 418 217 401 224 q 453 209 435 209 q 499 218 478 209 q 534 243 519 227 q 556 280 549 259 q 564 327 564 302 l 564 696 l 857 696 l 857 176 q 832 -39 857 54 q 757 -196 806 -133 q 635 -293 707 -260 q 468 -326 562 -326 q 416 -322 446 -326 q 347 -312 387 -319 l 377 -84 q 412 -91 395 -89 q 446 -92 429 -92 q 509 -74 485 -92 q 547 -25 533 -55 q 568 41 562 4 q 578 115 574 78 z "},"Ÿ":{"ha":850,"x_min":-4,"x_max":859,"o":"m 481 1198 q 494 1255 481 1230 q 530 1300 508 1281 q 580 1329 552 1318 q 638 1339 608 1339 q 702 1327 673 1339 q 751 1294 730 1314 q 782 1249 771 1274 q 793 1198 793 1223 q 780 1142 793 1168 q 746 1098 767 1116 q 696 1069 724 1080 q 638 1059 668 1059 q 574 1070 603 1059 q 525 1101 545 1082 q 492 1145 504 1120 q 481 1198 481 1171 m 62 1198 q 75 1254 62 1228 q 109 1299 87 1280 q 159 1329 131 1318 q 218 1339 187 1339 q 278 1328 250 1339 q 328 1297 307 1316 q 361 1252 349 1277 q 374 1198 374 1226 q 360 1141 374 1167 q 326 1097 347 1116 q 276 1069 304 1079 q 218 1059 248 1059 q 157 1069 185 1059 q 107 1099 129 1080 q 74 1143 86 1118 q 62 1198 62 1168 m 271 266 l -4 955 l 286 955 l 420 526 l 553 955 l 859 955 l 570 266 l 570 0 l 271 0 l 271 266 z "},"Ź":{"ha":751,"x_min":50,"x_max":701,"o":"m 151 1208 l 558 1493 l 699 1244 l 237 1059 l 151 1208 m 50 201 l 376 753 l 63 753 l 63 955 l 687 955 l 687 753 l 368 201 l 701 201 l 701 0 l 50 0 l 50 201 z "},"ź":{"ha":680,"x_min":43,"x_max":637,"o":"m 87 948 l 494 1233 l 635 985 l 172 799 l 87 948 m 43 149 l 287 518 l 52 518 l 52 696 l 630 696 l 630 545 l 414 178 l 637 178 l 637 0 l 43 0 l 43 149 z "},"Ż":{"ha":751,"x_min":50,"x_max":701,"o":"m 219 1200 q 232 1256 219 1230 q 267 1300 245 1282 q 317 1329 289 1318 q 375 1339 345 1339 q 435 1328 406 1339 q 485 1298 463 1317 q 518 1253 506 1278 q 531 1200 531 1228 q 518 1142 531 1168 q 483 1098 505 1116 q 433 1069 461 1079 q 375 1059 405 1059 q 314 1069 342 1059 q 264 1099 286 1080 q 231 1144 243 1118 q 219 1200 219 1170 m 50 201 l 376 753 l 63 753 l 63 955 l 687 955 l 687 753 l 368 201 l 701 201 l 701 0 l 50 0 l 50 201 z "},"ż":{"ha":680,"x_min":43,"x_max":637,"o":"m 185 940 q 198 996 185 970 q 233 1040 212 1022 q 283 1069 255 1059 q 341 1080 311 1080 q 401 1068 372 1080 q 451 1038 429 1057 q 485 994 472 1019 q 497 940 497 968 q 484 882 497 908 q 449 838 471 857 q 399 809 427 819 q 341 799 371 799 q 280 810 309 799 q 231 840 252 821 q 197 884 210 859 q 185 940 185 910 m 43 149 l 287 518 l 52 518 l 52 696 l 630 696 l 630 545 l 414 178 l 637 178 l 637 0 l 43 0 l 43 149 z "},"Ž":{"ha":751,"x_min":50,"x_max":701,"o":"m 76 1404 l 307 1404 l 359 1257 l 374 1202 q 389 1247 380 1221 q 408 1303 398 1274 q 428 1358 418 1331 q 444 1404 437 1385 l 674 1404 l 503 1059 l 247 1059 l 76 1404 m 50 201 l 376 753 l 63 753 l 63 955 l 687 955 l 687 753 l 368 201 l 701 201 l 701 0 l 50 0 l 50 201 z "},"ž":{"ha":680,"x_min":42,"x_max":640,"o":"m 42 1145 l 273 1145 l 326 997 l 340 943 q 355 988 346 961 q 374 1043 364 1015 q 394 1099 385 1072 q 410 1145 404 1126 l 640 1145 l 469 799 l 213 799 l 42 1145 m 43 149 l 287 518 l 52 518 l 52 696 l 630 696 l 630 545 l 414 178 l 637 178 l 637 0 l 43 0 l 43 149 z "},"ſ":{"ha":604,"x_min":35,"x_max":602,"o":"m 458 857 q 395 837 418 857 q 372 779 372 817 q 396 696 372 742 l 590 696 l 590 524 l 415 524 l 415 0 l 122 0 l 122 524 l 35 524 l 35 696 l 122 696 q 136 863 122 793 q 180 978 150 932 q 259 1045 211 1023 q 376 1066 307 1066 q 602 1013 483 1066 l 593 825 q 458 857 513 857 z "},"ƒ":{"ha":604,"x_min":36,"x_max":603,"o":"m 494 845 q 416 761 416 845 l 416 696 l 591 696 l 591 524 l 416 524 l 416 0 l 121 0 l 121 524 l 36 524 l 36 696 l 121 696 l 121 770 q 137 896 121 840 q 184 988 153 951 q 264 1046 216 1026 q 376 1066 312 1066 q 603 1013 477 1066 l 593 825 q 494 845 532 845 z "},"Ȁ":{"ha":970,"x_min":7,"x_max":970,"o":"m 435 1514 l 708 1594 l 806 1107 l 640 1060 l 435 1514 m 46 1470 l 300 1597 l 481 1135 l 327 1059 l 46 1470 m 271 955 l 693 955 l 970 0 l 643 0 l 606 183 l 359 183 l 320 0 l 7 0 l 271 955 m 574 354 l 483 772 l 389 354 l 574 354 z "},"ȁ":{"ha":966,"x_min":35,"x_max":895,"o":"m 441 1256 l 714 1336 l 812 849 l 646 802 l 441 1256 m 52 1211 l 306 1339 l 488 876 l 333 800 l 52 1211 m 604 129 q 515 25 571 61 q 376 -11 460 -11 q 246 17 308 -11 q 138 93 184 44 q 63 208 91 141 q 35 352 35 274 q 63 494 35 429 q 139 607 92 559 q 247 680 186 654 q 376 706 309 706 q 444 697 410 706 q 508 668 477 688 q 563 617 538 648 q 604 544 587 587 l 604 706 l 895 706 l 895 0 l 604 0 l 604 129 m 604 353 q 591 404 602 380 q 561 447 579 429 q 517 475 542 465 q 467 486 493 486 q 411 474 437 486 q 367 445 386 463 q 338 401 349 426 q 327 347 327 376 q 338 292 327 317 q 369 248 350 267 q 414 219 389 230 q 467 209 439 209 q 519 220 495 209 q 562 249 544 231 q 591 291 581 267 q 604 342 602 315 l 604 353 z "},"Ȃ":{"ha":970,"x_min":7,"x_max":970,"o":"m 568 1059 q 561 1093 568 1077 q 543 1120 555 1109 q 516 1138 532 1131 q 482 1144 500 1144 q 448 1138 464 1144 q 421 1120 433 1131 q 403 1093 410 1109 q 397 1059 397 1077 l 230 1059 q 249 1165 230 1118 q 301 1246 267 1213 q 380 1298 334 1280 q 482 1316 427 1316 q 586 1297 539 1316 q 665 1244 632 1278 q 716 1163 698 1210 q 734 1059 734 1116 l 568 1059 m 271 955 l 693 955 l 970 0 l 643 0 l 606 183 l 359 183 l 320 0 l 7 0 l 271 955 m 574 354 l 483 772 l 389 354 l 574 354 z "},"ȃ":{"ha":966,"x_min":35,"x_max":895,"o":"m 575 800 q 569 834 575 819 q 551 862 562 850 q 524 879 539 873 q 490 886 508 886 q 456 879 471 886 q 429 862 440 873 q 411 834 417 850 q 404 800 404 819 l 237 800 q 256 907 237 859 q 308 988 275 954 q 388 1040 342 1021 q 490 1058 434 1058 q 593 1039 547 1058 q 672 986 640 1020 q 724 904 705 951 q 742 800 742 857 l 575 800 m 604 129 q 515 25 571 61 q 376 -11 460 -11 q 246 17 308 -11 q 138 93 184 44 q 63 208 91 141 q 35 352 35 274 q 63 494 35 429 q 139 607 92 559 q 247 680 186 654 q 376 706 309 706 q 444 697 410 706 q 508 668 477 688 q 563 617 538 648 q 604 544 587 587 l 604 706 l 895 706 l 895 0 l 604 0 l 604 129 m 604 353 q 591 404 602 380 q 561 447 579 429 q 517 475 542 465 q 467 486 493 486 q 411 474 437 486 q 367 445 386 463 q 338 401 349 426 q 327 347 327 376 q 338 292 327 317 q 369 248 350 267 q 414 219 389 230 q 467 209 439 209 q 519 220 495 209 q 562 249 544 231 q 591 291 581 267 q 604 342 602 315 l 604 353 z "},"Ȅ":{"ha":826,"x_min":-10,"x_max":761,"o":"m 379 1514 l 652 1594 l 749 1107 l 584 1060 l 379 1514 m -10 1470 l 243 1597 l 425 1135 l 271 1059 l -10 1470 m 91 955 l 761 955 l 761 745 l 427 745 l 427 571 l 732 571 l 732 396 l 427 396 l 427 209 l 761 209 l 761 0 l 91 0 l 91 955 z "},"ȅ":{"ha":772,"x_min":-17,"x_max":743,"o":"m 372 1256 l 645 1336 l 743 849 l 577 802 l 372 1256 m -17 1211 l 237 1339 l 418 876 l 264 800 l -17 1211 m 473 184 q 678 233 568 184 l 712 46 q 429 -11 586 -11 q 269 16 341 -11 q 145 91 197 43 q 64 204 93 138 q 35 347 35 270 q 65 495 35 429 q 148 608 96 561 q 270 681 200 655 q 419 706 340 706 q 559 679 499 706 q 660 606 620 652 q 721 497 701 559 q 741 365 741 435 q 740 347 741 355 q 738 330 739 338 l 321 275 q 376 205 338 227 q 473 184 414 184 m 525 450 q 419 537 501 537 q 373 527 393 537 q 339 499 353 517 q 317 456 325 481 q 309 403 310 431 l 525 450 z "},"Ȇ":{"ha":826,"x_min":91,"x_max":761,"o":"m 511 1059 q 505 1093 511 1077 q 487 1120 498 1109 q 460 1138 475 1131 q 426 1144 444 1144 q 392 1138 408 1144 q 365 1120 376 1131 q 347 1093 353 1109 q 340 1059 340 1077 l 174 1059 q 192 1165 174 1118 q 244 1246 211 1213 q 324 1298 278 1280 q 426 1316 370 1316 q 529 1297 483 1316 q 609 1244 576 1278 q 660 1163 642 1210 q 678 1059 678 1116 l 511 1059 m 91 955 l 761 955 l 761 745 l 427 745 l 427 571 l 732 571 l 732 396 l 427 396 l 427 209 l 761 209 l 761 0 l 91 0 l 91 955 z "},"ȇ":{"ha":772,"x_min":35,"x_max":741,"o":"m 505 800 q 498 834 505 819 q 480 862 492 850 q 453 879 469 873 q 419 886 437 886 q 385 879 401 886 q 358 862 370 873 q 340 834 347 850 q 334 800 334 819 l 167 800 q 185 907 167 859 q 238 988 204 954 q 317 1040 271 1021 q 419 1058 363 1058 q 523 1039 476 1058 q 602 986 569 1020 q 653 904 635 951 q 671 800 671 857 l 505 800 m 473 184 q 678 233 568 184 l 712 46 q 429 -11 586 -11 q 269 16 341 -11 q 145 91 197 43 q 64 204 93 138 q 35 347 35 270 q 65 495 35 429 q 148 608 96 561 q 270 681 200 655 q 419 706 340 706 q 559 679 499 706 q 660 606 620 652 q 721 497 701 559 q 741 365 741 435 q 740 347 741 355 q 738 330 739 338 l 321 275 q 376 205 338 227 q 473 184 414 184 m 525 450 q 419 537 501 537 q 373 527 393 537 q 339 499 353 517 q 317 456 325 481 q 309 403 310 431 l 525 450 z "},"Ȉ":{"ha":502,"x_min":-185,"x_max":574,"o":"m 204 1514 l 477 1594 l 574 1107 l 409 1060 l 204 1514 m -185 1470 l 68 1597 l 250 1135 l 96 1059 l -185 1470 m 91 955 l 411 955 l 411 0 l 91 0 l 91 955 z "},"ȉ":{"ha":507,"x_min":-222,"x_max":538,"o":"m 168 1256 l 440 1336 l 538 849 l 372 802 l 168 1256 m -222 1211 l 32 1339 l 214 876 l 59 800 l -222 1211 m 496 26 q 314 -22 414 -22 q 209 -2 255 -22 q 131 54 163 18 q 83 142 100 90 q 67 256 67 193 l 67 696 l 361 696 l 361 270 q 379 220 361 237 q 424 203 397 203 q 481 220 451 203 l 496 26 z "},"Ȋ":{"ha":502,"x_min":0,"x_max":505,"o":"m 338 1059 q 331 1093 338 1077 q 313 1120 325 1109 q 286 1138 302 1131 q 252 1144 271 1144 q 218 1138 234 1144 q 191 1120 203 1131 q 173 1093 180 1109 q 167 1059 167 1077 l 0 1059 q 19 1165 0 1118 q 71 1246 37 1213 q 151 1298 104 1280 q 252 1316 197 1316 q 356 1297 309 1316 q 435 1244 402 1278 q 486 1163 468 1210 q 505 1059 505 1116 l 338 1059 m 91 955 l 411 955 l 411 0 l 91 0 l 91 955 z "},"ȋ":{"ha":507,"x_min":-37,"x_max":496,"o":"m 301 800 q 295 834 301 819 q 277 862 288 850 q 250 879 265 873 q 216 886 234 886 q 182 879 197 886 q 155 862 166 873 q 137 834 143 850 q 130 800 130 819 l -37 800 q -18 907 -37 859 q 34 988 1 954 q 114 1040 68 1021 q 216 1058 160 1058 q 319 1039 273 1058 q 398 986 366 1020 q 450 904 431 951 q 468 800 468 857 l 301 800 m 496 26 q 314 -22 414 -22 q 209 -2 255 -22 q 131 54 163 18 q 83 142 100 90 q 67 256 67 193 l 67 696 l 361 696 l 361 270 q 379 220 361 237 q 424 203 397 203 q 481 220 451 203 l 496 26 z "},"Ȍ":{"ha":1108,"x_min":43,"x_max":1065,"o":"m 507 1514 l 779 1594 l 877 1107 l 711 1060 l 507 1514 m 117 1470 l 371 1597 l 553 1135 l 398 1059 l 117 1470 m 43 476 q 175 825 43 683 q 555 976 315 976 q 766 938 671 976 q 926 834 860 901 q 1029 676 993 768 q 1065 476 1065 584 q 1050 349 1065 411 q 1005 231 1035 286 q 932 129 976 176 q 832 49 889 83 q 706 -3 776 16 q 555 -22 637 -22 q 400 -3 471 -22 q 273 50 330 16 q 173 131 216 84 q 101 233 130 178 q 58 350 73 288 q 43 476 43 412 m 555 231 q 646 253 608 231 q 708 312 684 276 q 743 391 732 347 q 754 477 754 435 q 740 578 754 532 q 700 657 726 624 q 637 711 674 691 q 555 732 600 730 q 463 708 500 731 q 400 649 425 685 q 365 567 376 612 q 354 477 354 522 q 368 379 354 425 q 408 301 382 334 q 471 250 434 269 q 555 231 509 231 z "},"ȍ":{"ha":871,"x_min":1,"x_max":836,"o":"m 390 1256 l 663 1336 l 760 849 l 595 802 l 390 1256 m 1 1211 l 254 1339 l 436 876 l 281 800 l 1 1211 m 307 349 q 318 282 307 311 q 347 235 329 254 q 389 206 366 216 q 437 197 413 197 q 485 206 462 197 q 527 235 509 216 q 557 282 546 254 q 568 349 568 311 q 557 415 568 387 q 527 462 546 444 q 485 490 509 481 q 437 500 462 500 q 389 490 413 500 q 347 462 366 481 q 318 415 329 444 q 307 349 307 387 m 35 349 q 72 503 39 436 q 159 614 104 569 q 284 683 213 660 q 437 706 356 706 q 598 680 525 706 q 724 606 671 653 q 806 493 777 559 q 836 349 836 427 q 819 233 836 285 q 774 142 802 182 q 707 73 745 102 q 623 25 668 44 q 531 -2 578 7 q 435 -11 483 -11 q 272 15 346 -11 q 146 89 199 41 q 64 202 93 136 q 35 349 35 269 z "},"Ȏ":{"ha":1108,"x_min":43,"x_max":1065,"o":"m 640 1059 q 634 1093 640 1077 q 616 1120 627 1109 q 589 1138 604 1131 q 555 1144 573 1144 q 521 1138 536 1144 q 494 1120 505 1131 q 476 1093 482 1109 q 469 1059 469 1077 l 302 1059 q 321 1165 302 1118 q 373 1246 340 1213 q 453 1298 407 1280 q 555 1316 499 1316 q 658 1297 612 1316 q 738 1244 705 1278 q 789 1163 770 1210 q 807 1059 807 1116 l 640 1059 m 43 476 q 175 825 43 683 q 555 976 315 976 q 766 938 671 976 q 926 834 860 901 q 1029 676 993 768 q 1065 476 1065 584 q 1050 349 1065 411 q 1005 231 1035 286 q 932 129 976 176 q 832 49 889 83 q 706 -3 776 16 q 555 -22 637 -22 q 400 -3 471 -22 q 273 50 330 16 q 173 131 216 84 q 101 233 130 178 q 58 350 73 288 q 43 476 43 412 m 555 231 q 646 253 608 231 q 708 312 684 276 q 743 391 732 347 q 754 477 754 435 q 740 578 754 532 q 700 657 726 624 q 637 711 674 691 q 555 732 600 730 q 463 708 500 731 q 400 649 425 685 q 365 567 376 612 q 354 477 354 522 q 368 379 354 425 q 408 301 382 334 q 471 250 434 269 q 555 231 509 231 z "},"ȏ":{"ha":871,"x_min":35,"x_max":836,"o":"m 522 800 q 516 834 522 819 q 498 862 509 850 q 471 879 486 873 q 437 886 455 886 q 403 879 418 886 q 376 862 387 873 q 358 834 364 850 q 351 800 351 819 l 184 800 q 203 907 184 859 q 255 988 222 954 q 335 1040 289 1021 q 437 1058 381 1058 q 540 1039 494 1058 q 620 986 587 1020 q 671 904 652 951 q 689 800 689 857 l 522 800 m 307 349 q 318 282 307 311 q 347 235 329 254 q 389 206 366 216 q 437 197 413 197 q 485 206 462 197 q 527 235 509 216 q 557 282 546 254 q 568 349 568 311 q 557 415 568 387 q 527 462 546 444 q 485 490 509 481 q 437 500 462 500 q 389 490 413 500 q 347 462 366 481 q 318 415 329 444 q 307 349 307 387 m 35 349 q 72 503 39 436 q 159 614 104 569 q 284 683 213 660 q 437 706 356 706 q 598 680 525 706 q 724 606 671 653 q 806 493 777 559 q 836 349 836 427 q 819 233 836 285 q 774 142 802 182 q 707 73 745 102 q 623 25 668 44 q 531 -2 578 7 q 435 -11 483 -11 q 272 15 346 -11 q 146 89 199 41 q 64 202 93 136 q 35 349 35 269 z "},"Ȑ":{"ha":969,"x_min":-133,"x_max":942,"o":"m 256 1514 l 529 1594 l 627 1107 l 461 1060 l 256 1514 m -133 1470 l 121 1597 l 302 1135 l 148 1059 l -133 1470 m 942 3 q 814 -22 853 -22 q 498 208 562 -22 l 460 362 l 395 362 l 395 0 l 91 0 l 91 955 l 515 955 q 671 936 598 955 q 797 882 743 918 q 882 794 851 846 q 913 674 913 742 q 900 584 913 624 q 864 513 888 545 q 806 457 840 481 q 728 414 772 433 l 734 380 q 739 361 736 369 q 742 347 741 353 l 749 318 q 768 274 758 292 q 795 245 779 256 q 835 229 811 234 q 894 224 859 224 q 911 225 899 224 q 942 229 923 227 l 942 3 m 635 661 q 624 704 635 687 q 593 731 612 722 q 547 745 573 741 q 490 749 520 749 l 395 749 l 395 557 l 448 557 l 492 559 q 544 567 519 562 q 590 583 570 572 q 623 613 610 594 q 635 661 635 631 z "},"ȑ":{"ha":620,"x_min":-92,"x_max":667,"o":"m 297 1256 l 570 1336 l 667 849 l 502 802 l 297 1256 m -92 1211 l 161 1339 l 343 876 l 189 800 l -92 1211 m 69 686 l 362 686 l 362 544 q 451 667 395 628 q 578 706 506 706 l 618 479 q 424 451 486 479 q 362 361 362 422 l 362 0 l 69 0 l 69 686 z "},"Ȓ":{"ha":969,"x_min":51,"x_max":942,"o":"m 389 1059 q 382 1093 389 1077 q 364 1120 376 1109 q 337 1138 353 1131 q 303 1144 321 1144 q 269 1138 285 1144 q 242 1120 254 1131 q 224 1093 231 1109 q 218 1059 218 1077 l 51 1059 q 70 1165 51 1118 q 122 1246 88 1213 q 201 1298 155 1280 q 303 1316 248 1316 q 407 1297 360 1316 q 486 1244 453 1278 q 537 1163 519 1210 q 555 1059 555 1116 l 389 1059 m 942 3 q 814 -22 853 -22 q 498 208 562 -22 l 460 362 l 395 362 l 395 0 l 91 0 l 91 955 l 515 955 q 671 936 598 955 q 797 882 743 918 q 882 794 851 846 q 913 674 913 742 q 900 584 913 624 q 864 513 888 545 q 806 457 840 481 q 728 414 772 433 l 734 380 q 739 361 736 369 q 742 347 741 353 l 749 318 q 768 274 758 292 q 795 245 779 256 q 835 229 811 234 q 894 224 859 224 q 911 225 899 224 q 942 229 923 227 l 942 3 m 635 661 q 624 704 635 687 q 593 731 612 722 q 547 745 573 741 q 490 749 520 749 l 395 749 l 395 557 l 448 557 l 492 559 q 544 567 519 562 q 590 583 570 572 q 623 613 610 594 q 635 661 635 631 z "},"ȓ":{"ha":620,"x_min":69,"x_max":618,"o":"m 429 800 q 423 834 429 819 q 405 862 416 850 q 378 879 393 873 q 344 886 362 886 q 310 879 326 886 q 283 862 294 873 q 265 834 271 850 q 258 800 258 819 l 92 800 q 110 907 92 859 q 162 988 129 954 q 242 1040 196 1021 q 344 1058 288 1058 q 447 1039 401 1058 q 527 986 494 1020 q 578 904 559 951 q 596 800 596 857 l 429 800 m 69 686 l 362 686 l 362 544 q 451 667 395 628 q 578 706 506 706 l 618 479 q 424 451 486 479 q 362 361 362 422 l 362 0 l 69 0 l 69 686 z "},"Ȕ":{"ha":1108,"x_min":82,"x_max":1026,"o":"m 506 1514 l 779 1594 l 876 1107 l 711 1060 l 506 1514 m 117 1470 l 370 1597 l 552 1135 l 397 1059 l 117 1470 m 554 229 q 672 272 632 229 q 713 396 713 314 l 713 955 l 1026 955 l 1026 396 q 1007 263 1026 323 q 954 158 987 204 q 875 77 920 111 q 777 21 829 43 q 667 -11 724 -1 q 554 -22 610 -22 q 227 84 361 -22 q 82 396 82 197 l 82 955 l 395 955 l 395 396 q 554 229 395 229 z "},"ȕ":{"ha":872,"x_min":-1,"x_max":807,"o":"m 389 1256 l 661 1336 l 759 849 l 593 802 l 389 1256 m -1 1211 l 253 1339 l 435 876 l 280 800 l -1 1211 m 350 289 q 357 255 350 271 q 377 229 364 240 q 406 212 389 218 q 441 206 422 206 q 474 213 458 206 q 501 230 490 219 q 519 256 513 241 q 526 289 526 271 l 526 696 l 807 696 l 807 298 q 779 169 807 227 q 702 72 751 112 q 586 11 653 32 q 439 -11 519 -11 q 293 10 361 -11 q 174 70 224 31 q 93 168 123 110 q 64 298 64 225 l 64 696 l 350 696 l 350 289 z "},"Ȗ":{"ha":1108,"x_min":82,"x_max":1026,"o":"m 640 1059 q 633 1093 640 1077 q 615 1120 627 1109 q 588 1138 604 1131 q 554 1144 572 1144 q 520 1138 536 1144 q 493 1120 505 1131 q 475 1093 481 1109 q 469 1059 469 1077 l 302 1059 q 320 1165 302 1118 q 373 1246 339 1213 q 452 1298 406 1280 q 554 1316 498 1316 q 657 1297 611 1316 q 737 1244 704 1278 q 788 1163 770 1210 q 806 1059 806 1116 l 640 1059 m 554 229 q 672 272 632 229 q 713 396 713 314 l 713 955 l 1026 955 l 1026 396 q 1007 263 1026 323 q 954 158 987 204 q 875 77 920 111 q 777 21 829 43 q 667 -11 724 -1 q 554 -22 610 -22 q 227 84 361 -22 q 82 396 82 197 l 82 955 l 395 955 l 395 396 q 554 229 395 229 z "},"ȗ":{"ha":872,"x_min":64,"x_max":807,"o":"m 521 800 q 514 834 521 819 q 496 862 508 850 q 469 879 485 873 q 435 886 454 886 q 401 879 417 886 q 374 862 386 873 q 356 834 363 850 q 350 800 350 819 l 183 800 q 202 907 183 859 q 254 988 220 954 q 334 1040 288 1021 q 435 1058 380 1058 q 539 1039 492 1058 q 618 986 585 1020 q 669 904 651 951 q 688 800 688 857 l 521 800 m 350 289 q 357 255 350 271 q 377 229 364 240 q 406 212 389 218 q 441 206 422 206 q 474 213 458 206 q 501 230 490 219 q 519 256 513 241 q 526 289 526 271 l 526 696 l 807 696 l 807 298 q 779 169 807 227 q 702 72 751 112 q 586 11 653 32 q 439 -11 519 -11 q 293 10 361 -11 q 174 70 224 31 q 93 168 123 110 q 64 298 64 225 l 64 696 l 350 696 l 350 289 z "},"Ș":{"ha":823,"x_min":47,"x_max":781,"o":"m 258 -434 q 330 -433 304 -434 q 369 -426 356 -433 q 384 -405 381 -419 q 387 -362 387 -390 l 258 -362 l 258 -103 l 543 -103 l 540 -244 q 534 -374 538 -319 q 520 -469 530 -429 q 492 -533 510 -508 q 443 -572 473 -557 q 366 -591 412 -586 q 258 -597 321 -597 l 258 -434 m 781 312 q 755 164 781 227 q 680 60 729 101 q 561 -1 631 19 q 400 -22 490 -22 q 52 50 201 -22 q 117 239 93 153 q 125 263 121 253 l 227 238 q 266 229 245 234 q 308 221 287 224 q 348 214 329 217 q 381 212 367 212 q 426 213 404 212 q 463 221 447 215 q 489 239 479 227 q 499 270 499 250 q 477 310 499 294 q 421 339 454 326 q 347 362 387 352 q 273 385 307 373 q 183 426 224 400 q 112 487 142 452 q 64 568 81 523 q 47 667 47 613 q 419 977 47 977 q 747 903 595 977 l 673 696 q 569 723 607 713 q 507 737 530 732 q 471 743 484 742 q 442 745 457 745 l 419 745 q 407 745 412 745 q 397 745 401 745 q 350 736 366 745 q 334 699 334 727 q 408 633 334 656 q 687 509 592 591 q 781 312 781 428 z "},"ș":{"ha":642,"x_min":38,"x_max":608,"o":"m 209 -434 q 281 -433 256 -434 q 320 -426 307 -433 q 335 -405 332 -419 q 338 -362 338 -390 l 209 -362 l 209 -103 l 494 -103 l 491 -244 q 486 -374 490 -319 q 471 -469 481 -429 q 443 -533 461 -508 q 394 -572 425 -557 q 317 -591 363 -586 q 209 -597 272 -597 l 209 -434 m 370 533 q 288 505 288 533 q 294 485 288 494 q 310 470 300 477 q 332 460 320 464 q 357 454 345 456 q 456 430 410 446 q 535 385 502 413 q 588 317 569 357 q 608 221 608 277 q 588 123 608 166 q 534 50 569 80 q 453 5 500 20 q 351 -11 406 -11 q 189 -3 262 -11 q 54 33 115 5 l 85 193 q 124 182 108 186 q 152 175 141 177 q 178 170 162 173 q 211 164 193 167 q 248 159 229 161 q 281 157 266 157 q 350 190 350 157 q 339 213 348 203 q 318 230 331 222 q 289 241 305 237 q 254 250 272 246 q 160 277 201 260 q 93 320 120 294 q 52 386 66 347 q 38 479 38 425 q 64 583 41 540 q 126 653 87 626 q 219 693 165 681 q 335 706 272 706 q 459 699 401 706 q 568 667 517 692 l 538 502 q 370 533 437 533 z "},"Ț":{"ha":802,"x_min":41,"x_max":761,"o":"m 258 -412 q 331 -412 305 -412 q 369 -404 357 -411 q 385 -383 382 -397 q 387 -340 387 -368 l 258 -340 l 258 -81 l 543 -81 l 541 -222 q 535 -352 539 -297 q 521 -447 531 -408 q 492 -511 511 -486 q 443 -550 474 -536 q 367 -570 412 -564 q 258 -575 321 -575 l 258 -412 m 239 753 l 41 753 l 41 955 l 761 955 l 761 753 l 563 753 l 563 0 l 239 0 l 239 753 z "},"ț":{"ha":604,"x_min":26,"x_max":569,"o":"m 218 -434 q 290 -433 264 -434 q 329 -426 316 -433 q 344 -405 341 -419 q 347 -362 347 -390 l 218 -362 l 218 -103 l 503 -103 l 500 -244 q 494 -374 498 -319 q 480 -469 490 -429 q 452 -533 470 -508 q 402 -572 433 -557 q 326 -591 372 -586 q 218 -597 281 -597 l 218 -434 m 569 37 q 360 -11 475 -11 q 255 8 301 -11 q 177 64 209 28 q 130 152 146 100 q 113 267 113 203 l 115 524 l 26 524 l 26 696 l 136 696 l 265 959 l 406 959 l 406 696 l 566 696 l 566 524 l 406 524 l 406 288 q 430 233 406 251 q 494 214 454 214 q 558 231 526 214 l 569 37 z "},"ȷ":{"ha":438,"x_min":-180,"x_max":366,"o":"m -20 -75 q 73 41 73 -75 l 73 696 l 366 696 l 366 41 q 344 -102 366 -39 q 283 -209 323 -165 q 186 -276 243 -253 q 58 -300 130 -300 q -180 -227 -70 -300 l -116 -54 q -20 -75 -52 -75 z "},"ˆ":{"ha":669,"x_min":33,"x_max":631,"o":"m 203 1112 l 460 1112 l 631 766 l 400 766 l 347 914 l 331 967 l 316 914 l 263 766 l 33 766 l 203 1112 z "},"ˇ":{"ha":669,"x_min":33,"x_max":631,"o":"m 33 1112 l 263 1112 l 316 964 l 331 910 q 346 955 336 928 q 365 1010 355 982 q 385 1066 375 1039 q 400 1112 394 1093 l 631 1112 l 460 766 l 203 766 l 33 1112 z "},"˘":{"ha":571,"x_min":47,"x_max":524,"o":"m 524 1017 q 506 919 524 963 q 457 845 488 876 q 381 797 425 814 q 286 780 338 780 q 189 797 233 780 q 114 846 145 814 q 65 921 82 878 q 47 1017 47 965 l 201 1017 q 225 957 201 980 q 286 933 249 933 q 345 956 323 933 q 366 1017 366 979 l 524 1017 z "},"˙":{"ha":427,"x_min":58,"x_max":370,"o":"m 58 930 q 72 987 58 961 q 106 1031 85 1013 q 156 1060 128 1049 q 214 1070 184 1070 q 274 1059 245 1070 q 324 1028 302 1048 q 358 984 345 1009 q 370 930 370 959 q 357 873 370 899 q 322 828 344 847 q 272 800 300 810 q 214 789 244 789 q 153 800 182 789 q 104 830 125 811 q 71 875 83 849 q 58 930 58 901 z "},"˚":{"ha":571,"x_min":47,"x_max":524,"o":"m 283 1104 q 250 1098 265 1104 q 224 1080 235 1091 q 207 1052 213 1068 q 201 1017 201 1036 q 225 956 201 979 q 286 933 249 933 q 346 956 325 933 q 366 1017 366 979 q 343 1080 366 1056 q 283 1104 321 1104 m 47 1017 q 65 1116 47 1072 q 115 1192 83 1160 q 191 1240 147 1223 q 286 1257 235 1257 q 387 1238 342 1257 q 461 1187 431 1219 q 508 1111 492 1154 q 524 1017 524 1067 q 506 919 524 963 q 457 845 488 876 q 381 797 425 814 q 286 780 338 780 q 189 797 233 780 q 114 846 145 814 q 65 921 82 878 q 47 1017 47 965 z "},"˛":{"ha":435,"x_min":58,"x_max":345,"o":"m 278 -273 q 343 -263 298 -273 l 345 -315 q 210 -345 273 -345 q 151 -337 178 -345 q 102 -315 123 -330 q 70 -277 82 -300 q 58 -225 58 -255 q 69 -178 58 -201 q 96 -136 79 -156 q 132 -97 112 -115 q 170 -63 151 -79 l 208 -31 q 231 -12 222 -19 q 245 0 241 -5 l 321 0 q 278 -83 300 -45 q 235 -153 256 -121 l 221 -174 q 213 -194 217 -179 q 209 -222 209 -209 q 278 -273 209 -273 z "},"˜":{"ha":754,"x_min":42,"x_max":715,"o":"m 279 859 q 252 852 264 859 q 232 835 241 846 q 217 811 223 825 q 206 785 211 798 l 42 852 q 90 954 63 909 q 147 1030 116 999 q 212 1077 178 1061 q 281 1093 245 1093 q 323 1086 302 1093 q 356 1074 345 1079 l 388 1055 q 393 1051 389 1053 q 401 1046 396 1049 l 430 1029 q 455 1019 442 1023 q 483 1016 467 1016 q 552 1078 530 1016 l 715 1012 q 616 837 673 892 q 488 781 559 781 q 441 787 462 781 q 403 801 420 793 q 370 820 385 810 q 341 839 355 830 q 311 853 326 847 q 279 859 296 859 z "},"˝":{"ha":883,"x_min":77,"x_max":837,"o":"m 175 1360 l 446 1280 l 243 826 l 77 873 l 175 1360 m 583 1363 l 837 1236 l 555 825 l 401 901 l 583 1363 z "},"̏":{"ha":883,"x_min":46,"x_max":806,"o":"m 435 1280 l 708 1360 l 806 873 l 640 826 l 435 1280 m 46 1236 l 300 1363 l 481 901 l 327 825 l 46 1236 z "},"̑":{"ha":571,"x_min":34,"x_max":538,"o":"m 372 802 q 365 836 372 820 q 347 863 359 852 q 320 881 336 874 q 286 887 304 887 q 252 881 268 887 q 225 863 237 874 q 207 836 214 852 q 201 802 201 820 l 34 802 q 53 908 34 861 q 105 989 71 956 q 184 1041 138 1023 q 286 1059 231 1059 q 390 1040 343 1059 q 469 987 436 1021 q 520 906 502 953 q 538 802 538 859 l 372 802 z "},"̦":{"ha":483,"x_min":125,"x_max":410,"o":"m 125 -416 q 197 -415 172 -416 q 236 -408 223 -414 q 251 -386 248 -401 q 254 -344 254 -372 l 125 -344 l 125 -85 l 410 -85 l 407 -226 q 401 -356 406 -300 q 387 -450 397 -411 q 359 -514 377 -490 q 310 -553 340 -539 q 233 -573 279 -568 q 125 -578 188 -578 l 125 -416 z "},"Δ":{"ha":821,"x_min":35,"x_max":787,"o":"m 286 933 l 532 933 l 787 0 l 35 0 l 286 933 m 542 156 l 410 719 l 283 156 l 542 156 z "},"Ω":{"ha":1662,"x_min":0,"x_max":0,"o":""},"μ":{"ha":863,"x_min":79,"x_max":815,"o":"m 512 -22 q 357 16 437 -22 l 357 -183 l 79 -203 l 79 696 l 365 696 l 365 233 q 452 206 406 206 q 485 213 469 206 q 511 230 500 219 q 529 256 523 241 q 536 289 536 271 l 536 696 l 815 696 l 815 298 q 792 171 815 229 q 728 69 768 112 q 631 2 687 26 q 512 -22 576 -22 z "},"π":{"ha":971,"x_min":28,"x_max":894,"o":"m 163 696 l 894 696 l 894 2 l 601 2 l 601 578 l 457 578 l 457 256 q 440 140 457 191 q 391 52 423 88 q 314 -3 359 16 q 210 -22 268 -22 q 28 26 111 -22 l 43 220 q 100 203 73 203 q 145 220 127 203 q 163 270 163 237 l 163 277 l 163 696 z "},"–":{"ha":659,"x_min":66,"x_max":594,"o":"m 66 323 l 594 323 l 594 205 l 66 205 l 66 323 z "},"—":{"ha":844,"x_min":66,"x_max":778,"o":"m 66 323 l 778 323 l 778 205 l 66 205 l 66 323 z "},"‘":{"ha":407,"x_min":57,"x_max":342,"o":"m 342 814 l 295 814 q 252 812 269 814 q 227 803 236 810 q 216 781 218 795 q 213 742 213 767 l 342 742 l 342 481 l 57 481 q 58 516 58 494 q 58 568 58 537 l 60 657 q 67 773 62 724 q 81 858 71 823 q 110 917 92 894 q 159 953 129 940 q 235 971 190 966 q 342 977 279 977 l 342 814 z "},"’":{"ha":400,"x_min":68,"x_max":353,"o":"m 68 623 q 140 623 114 623 q 179 631 166 624 q 195 652 192 637 q 198 694 198 667 l 68 694 l 68 955 l 353 955 l 351 869 q 347 719 349 783 q 336 609 345 654 q 310 535 327 564 q 262 489 293 506 q 183 466 231 473 q 68 460 136 460 l 68 623 z "},"‚":{"ha":311,"x_min":56,"x_max":256,"o":"m 56 172 l 256 172 l 217 -173 l 84 -173 l 56 172 z "},"“":{"ha":788,"x_min":57,"x_max":723,"o":"m 342 814 l 295 814 q 252 812 269 814 q 227 803 236 810 q 216 781 218 795 q 213 742 213 767 l 342 742 l 342 481 l 57 481 q 58 516 58 494 q 58 568 58 537 l 60 657 q 67 773 62 724 q 81 858 71 823 q 110 917 92 894 q 159 953 129 940 q 235 971 190 966 q 342 977 279 977 l 342 814 m 723 814 l 677 814 q 634 812 650 814 q 608 803 617 810 q 596 781 599 795 q 593 742 593 767 l 723 742 l 723 481 l 438 481 q 439 516 439 494 q 439 568 439 537 l 441 657 q 448 779 443 728 q 465 865 453 829 q 496 922 476 901 q 546 956 515 944 q 621 972 577 968 q 723 977 664 977 l 723 814 z "},"”":{"ha":781,"x_min":68,"x_max":734,"o":"m 68 623 q 140 623 114 623 q 179 631 166 624 q 195 652 192 637 q 198 694 198 667 l 68 694 l 68 955 l 353 955 l 351 869 q 347 719 349 783 q 336 609 345 654 q 310 535 327 564 q 262 489 293 506 q 183 466 231 473 q 68 460 136 460 l 68 623 m 449 623 q 522 623 496 623 q 560 631 547 624 q 575 652 572 637 q 578 694 578 667 l 449 694 l 449 955 l 734 955 l 732 869 q 728 718 730 782 q 717 609 726 654 q 691 534 708 564 q 643 489 674 505 q 565 466 612 473 q 449 460 517 460 l 449 623 z "},"„":{"ha":568,"x_min":54,"x_max":517,"o":"m 316 203 l 517 203 l 477 -141 l 345 -141 l 316 203 m 54 203 l 254 203 l 214 -141 l 81 -141 l 54 203 z "},"†":{"ha":488,"x_min":33,"x_max":456,"o":"m 33 696 l 199 696 l 199 933 l 289 933 l 289 696 l 456 696 l 456 611 l 289 611 l 289 0 l 199 0 l 199 611 l 33 611 l 33 696 z "},"‡":{"ha":510,"x_min":43,"x_max":467,"o":"m 43 359 l 210 359 l 210 611 l 43 611 l 43 696 l 210 696 l 210 933 l 300 933 l 300 696 l 467 696 l 467 611 l 300 611 l 300 359 l 467 359 l 467 275 l 300 275 l 300 0 l 210 0 l 210 275 l 43 275 l 43 359 z "},"•":{"ha":703,"x_min":45,"x_max":657,"o":"m 45 359 q 68 471 45 419 q 131 560 90 522 q 227 620 171 598 q 352 642 283 642 q 474 621 418 642 q 571 563 530 600 q 634 474 612 526 q 657 359 657 422 q 632 240 657 292 q 566 151 608 187 q 468 96 524 115 q 351 77 412 77 q 229 98 285 77 q 132 156 173 119 q 68 245 92 193 q 45 359 45 297 z "},"…":{"ha":1246,"x_min":39,"x_max":1207,"o":"m 39 119 q 53 176 39 150 q 87 220 66 201 q 137 249 109 238 q 195 259 165 259 q 255 248 227 259 q 305 217 283 237 q 339 173 326 198 q 351 119 351 148 q 338 62 351 87 q 303 17 325 36 q 253 -12 281 -1 q 195 -22 225 -22 q 134 -11 163 -22 q 85 19 106 0 q 52 64 64 38 q 39 119 39 90 m 467 119 q 480 176 467 150 q 515 220 493 201 q 565 249 537 239 q 624 259 593 259 q 684 248 655 259 q 733 217 712 237 q 767 173 755 198 q 780 119 780 148 q 767 62 780 87 q 732 17 753 36 q 682 -12 710 -1 q 624 -22 654 -22 q 562 -11 591 -22 q 512 19 534 0 q 479 64 491 38 q 467 119 467 90 m 895 119 q 908 176 895 150 q 943 220 921 201 q 992 249 964 239 q 1051 259 1021 259 q 1111 248 1082 259 q 1161 218 1139 237 q 1195 173 1182 199 q 1207 119 1207 148 q 1194 62 1207 87 q 1160 17 1181 36 q 1110 -12 1138 -1 q 1051 -22 1082 -22 q 990 -11 1019 -22 q 941 19 962 0 q 907 64 920 38 q 895 119 895 90 z "},"‰":{"ha":1804,"x_min":34,"x_max":1770,"o":"m 677 933 l 773 933 l 543 0 l 449 0 l 677 933 m 947 -22 q 840 0 886 -22 q 761 60 793 22 q 712 146 729 98 q 696 250 696 195 q 714 358 696 309 q 766 445 733 408 q 846 502 800 481 q 947 522 892 522 q 1053 500 1006 522 q 1133 440 1100 477 q 1182 353 1165 402 q 1199 250 1199 303 q 1181 140 1199 190 q 1129 54 1162 90 q 1049 -2 1096 18 q 947 -22 1003 -22 m 947 117 q 983 128 968 117 q 1008 158 998 140 q 1022 201 1017 177 q 1027 250 1027 225 q 1022 299 1027 275 q 1006 341 1017 323 q 981 370 996 359 q 947 381 966 381 q 910 369 925 381 q 885 338 895 357 q 872 296 876 319 q 868 250 868 273 q 873 200 868 224 q 888 157 878 176 q 913 128 899 139 q 947 117 928 117 m 285 416 q 177 438 224 416 q 98 498 130 460 q 50 585 66 536 q 34 688 34 633 q 54 801 34 751 q 109 886 74 851 q 189 940 143 922 q 288 959 235 959 q 397 936 351 959 q 476 874 444 912 q 523 787 507 836 q 538 688 538 739 q 520 577 538 627 q 468 492 502 528 q 388 436 435 456 q 285 416 342 416 m 285 553 q 323 566 307 553 q 348 598 338 578 q 362 641 358 617 q 366 688 366 665 q 361 736 366 713 q 346 779 356 760 q 320 808 336 797 q 285 819 305 819 q 250 808 264 819 q 225 779 235 797 q 211 736 215 760 q 206 688 206 713 q 211 637 206 661 q 227 594 216 612 q 251 565 237 576 q 285 553 266 553 m 1518 -22 q 1411 0 1457 -22 q 1332 60 1364 22 q 1282 146 1299 98 q 1265 250 1265 195 q 1284 359 1265 309 q 1336 445 1303 409 q 1416 502 1370 481 q 1518 522 1463 522 q 1624 500 1577 522 q 1703 440 1670 477 q 1753 353 1735 402 q 1770 250 1770 303 q 1752 140 1770 190 q 1700 54 1733 90 q 1620 -2 1667 18 q 1518 -22 1574 -22 m 1518 117 q 1554 128 1539 117 q 1579 158 1569 140 q 1593 201 1588 177 q 1598 250 1598 225 q 1593 299 1598 275 q 1577 341 1588 323 q 1552 370 1567 359 q 1518 381 1537 381 q 1482 370 1497 381 q 1457 340 1467 359 q 1442 298 1447 322 q 1438 250 1438 275 q 1443 199 1438 223 q 1458 157 1448 175 q 1483 127 1468 138 q 1518 117 1498 117 z "},"‹":{"ha":391,"x_min":36,"x_max":328,"o":"m 36 549 l 328 757 l 328 505 l 193 425 l 328 340 l 328 87 l 36 300 l 36 549 z "},"›":{"ha":391,"x_min":64,"x_max":355,"o":"m 64 340 l 197 425 l 64 505 l 64 757 l 355 549 l 355 300 l 64 87 l 64 340 z "},"⁄":{"ha":381,"x_min":9,"x_max":375,"o":"m 237 955 l 375 955 l 144 0 l 9 0 l 237 955 z "},"⁴":{"ha":506,"x_min":27,"x_max":469,"o":"m 27 663 l 232 933 l 406 933 l 406 663 l 469 663 l 469 557 l 406 557 l 406 441 l 239 441 l 239 557 l 27 557 l 27 663 m 239 663 l 239 800 l 141 663 l 239 663 z "},"€":{"ha":922,"x_min":37,"x_max":872,"o":"m 663 229 q 707 232 687 229 q 748 239 728 234 q 789 251 768 243 q 836 269 810 258 l 871 50 q 610 -22 746 -22 q 443 5 521 -22 q 302 78 365 31 q 195 191 239 125 q 130 334 151 256 l 37 334 l 37 416 l 115 416 q 113 444 114 430 q 113 471 113 457 q 115 519 113 495 l 37 519 l 37 605 l 130 605 q 194 748 150 683 q 301 860 239 813 q 440 933 363 907 q 602 959 517 959 q 872 886 744 959 l 836 670 q 655 708 733 708 q 454 605 511 708 l 655 605 l 655 519 l 427 519 q 425 496 426 508 q 425 472 425 484 q 429 416 425 441 l 655 416 l 655 334 l 458 334 q 663 229 517 229 z "},"™":{"ha":1348,"x_min":66,"x_max":1267,"o":"m 186 788 l 66 788 l 66 933 l 523 933 l 523 788 l 402 788 l 402 416 l 186 416 l 186 788 m 603 933 l 817 933 l 937 726 l 1055 933 l 1267 933 l 1267 416 l 1055 416 l 1055 690 l 977 541 l 893 541 l 817 690 l 817 416 l 603 416 l 603 933 z "},"∂":{"ha":1662,"x_min":0,"x_max":0,"o":""},"−":{"ha":699,"x_min":69,"x_max":629,"o":"m 69 77 l 629 77 l 629 0 l 69 0 l 69 77 z "},"√":{"ha":292,"x_min":0,"x_max":0,"o":""},"∞":{"ha":1662,"x_min":0,"x_max":0,"o":""},"∫":{"ha":292,"x_min":0,"x_max":0,"o":""},"≈":{"ha":831,"x_min":41,"x_max":797,"o":"m 277 481 q 252 475 262 481 q 233 459 241 469 q 218 437 224 450 q 205 410 212 424 l 41 476 q 87 578 61 533 q 144 653 113 623 q 209 700 175 684 q 279 716 243 716 q 343 709 311 716 q 395 694 375 701 q 457 669 433 679 q 498 652 481 659 q 530 643 515 646 q 565 640 545 640 q 609 657 593 640 q 635 703 625 674 l 797 636 q 702 463 758 520 q 570 406 646 406 q 525 408 546 406 q 485 415 504 411 q 448 426 466 420 q 410 440 429 433 l 342 469 q 277 481 313 481 m 277 481 q 252 475 262 481 q 233 459 241 469 q 218 437 224 450 q 205 410 212 424 l 41 476 q 87 578 61 533 q 144 653 113 623 q 209 700 175 684 q 279 716 243 716 q 343 709 311 716 q 395 694 375 701 q 457 669 433 679 q 498 652 481 659 q 530 643 515 646 q 565 640 545 640 q 609 657 593 640 q 635 703 625 674 l 797 636 q 702 463 758 520 q 570 406 646 406 q 525 408 546 406 q 485 415 504 411 q 448 426 466 420 q 410 440 429 433 l 342 469 q 277 481 313 481 z "},"≠":{"ha":515,"x_min":46,"x_max":469,"o":"m 46 300 l 197 300 l 224 403 l 46 403 l 46 488 l 246 488 l 301 696 l 397 696 l 342 488 l 469 488 l 469 403 l 319 403 l 292 300 l 469 300 l 469 216 l 269 216 l 212 0 l 118 0 l 174 216 l 46 216 l 46 300 z "},"≤":{"ha":669,"x_min":46,"x_max":606,"o":"m 62 783 l 591 1073 l 591 864 l 179 658 l 591 463 l 591 237 l 62 547 l 62 783 m 46 77 l 606 77 l 606 0 l 46 0 l 46 77 z "},"≥":{"ha":669,"x_min":61,"x_max":621,"o":"m 77 463 l 490 658 l 77 864 l 77 1073 l 606 783 l 606 547 l 77 237 l 77 463 m 61 77 l 621 77 l 621 0 l 61 0 l 61 77 z "},"◊":{"ha":707,"x_min":38,"x_max":670,"o":"m 465 481 l 351 838 l 227 481 l 351 117 l 465 481 m 38 481 l 213 955 l 483 955 l 670 481 l 465 0 l 213 0 l 38 481 z "},"":{"ha":0,"x_min":0,"x_max":0,"o":""},"ﬁ":{"ha":1175,"x_min":35,"x_max":1164,"o":"m 1164 26 q 982 -22 1082 -22 q 878 -2 923 -22 q 801 54 832 18 q 753 142 769 90 q 736 256 736 193 l 736 524 l 415 524 l 415 0 l 122 0 l 122 524 l 35 524 l 35 696 l 122 696 l 122 770 q 185 988 122 911 q 376 1066 248 1066 q 602 1013 483 1066 l 593 825 q 494 845 532 845 q 415 761 415 845 l 415 696 l 1029 696 l 1029 270 q 1047 220 1029 237 q 1092 203 1065 203 q 1149 220 1119 203 l 1164 26 m 730 926 q 743 982 730 957 q 778 1026 756 1008 q 829 1056 800 1045 q 887 1066 857 1066 q 947 1055 918 1066 q 997 1024 975 1044 q 1030 980 1018 1005 q 1043 926 1043 955 q 1030 869 1043 895 q 995 824 1017 843 q 945 795 973 806 q 887 785 917 785 q 826 796 854 785 q 775 826 797 807 q 742 871 754 845 q 730 926 730 897 z "},"ﬂ":{"ha":1159,"x_min":35,"x_max":1152,"o":"m 560 845 q 415 761 415 845 l 415 696 l 590 696 l 590 524 l 415 524 l 415 0 l 122 0 l 122 524 l 35 524 l 35 696 l 122 696 l 122 770 q 140 869 122 827 q 189 941 157 911 q 266 990 221 971 q 365 1021 311 1010 q 482 1036 419 1032 q 612 1040 545 1040 q 648 1040 631 1040 q 685 1037 665 1039 q 732 1029 705 1034 q 796 1018 758 1025 q 886 1000 833 1010 q 1009 974 938 989 l 1009 277 q 1076 203 1009 203 q 1135 220 1105 203 l 1152 26 q 962 -22 1061 -22 q 853 0 899 -22 q 777 59 807 21 q 731 147 746 96 q 716 256 716 197 l 716 833 q 560 845 625 845 z "}}}
